G04*
G04 #@! TF.GenerationSoftware,Altium Limited,Altium Designer,24.3.1 (35)*
G04*
G04 Layer_Color=32896*
%FSLAX25Y25*%
%MOIN*%
G70*
G04*
G04 #@! TF.SameCoordinates,DE864B26-D939-457F-A8F5-E13979E0EDEB*
G04*
G04*
G04 #@! TF.FilePolarity,Positive*
G04*
G01*
G75*
%ADD13C,0.00600*%
%ADD14C,0.01000*%
D13*
X-90600Y-98401D02*
Y-102400D01*
X-93266D01*
X-96598Y-98401D02*
X-95265D01*
X-94599Y-99068D01*
Y-101734D01*
X-95265Y-102400D01*
X-96598D01*
X-97264Y-101734D01*
Y-99068D01*
X-96598Y-98401D01*
X-98597Y-102400D02*
Y-99734D01*
X-99930Y-98401D01*
X-101263Y-99734D01*
Y-102400D01*
Y-100401D01*
X-98597D01*
X-102596Y-98401D02*
Y-102400D01*
X-104595D01*
X-105262Y-101734D01*
Y-99068D01*
X-104595Y-98401D01*
X-102596D01*
X-137100D02*
X-139766D01*
X-138433D01*
Y-102400D01*
X-143764Y-98401D02*
X-141099D01*
Y-102400D01*
X-143764D01*
X-141099Y-100401D02*
X-142432D01*
X-145097Y-102400D02*
Y-98401D01*
X-146430Y-99734D01*
X-147763Y-98401D01*
Y-102400D01*
X-149096D02*
Y-98401D01*
X-151095D01*
X-151762Y-99068D01*
Y-100401D01*
X-151095Y-101067D01*
X-149096D01*
D14*
X-20000Y73997D02*
Y67999D01*
X-22999D01*
X-23999Y68999D01*
Y72998D01*
X-22999Y73997D01*
X-20000D01*
X-28997Y67999D02*
X-26998D01*
X-25998Y68999D01*
Y70998D01*
X-26998Y71998D01*
X-28997D01*
X-29997Y70998D01*
Y69999D01*
X-25998D01*
X-31996Y67999D02*
X-34995D01*
X-35995Y68999D01*
X-34995Y69999D01*
X-32996D01*
X-31996Y70998D01*
X-32996Y71998D01*
X-35995D01*
X-37994Y67999D02*
X-39994D01*
X-38994D01*
Y71998D01*
X-37994D01*
X-44992Y66000D02*
X-45992D01*
X-46991Y67000D01*
Y71998D01*
X-43992D01*
X-42993Y70998D01*
Y68999D01*
X-43992Y67999D01*
X-46991D01*
X-48991D02*
Y71998D01*
X-51990D01*
X-52989Y70998D01*
Y67999D01*
X-57988D02*
X-55988D01*
X-54989Y68999D01*
Y70998D01*
X-55988Y71998D01*
X-57988D01*
X-58987Y70998D01*
Y69999D01*
X-54989D01*
X-64986Y73997D02*
Y67999D01*
X-61986D01*
X-60987Y68999D01*
Y70998D01*
X-61986Y71998D01*
X-64986D01*
X-72983Y73997D02*
Y67999D01*
X-75982D01*
X-76982Y68999D01*
Y69999D01*
Y70998D01*
X-75982Y71998D01*
X-72983D01*
X-78981D02*
Y68999D01*
X-79981Y67999D01*
X-82980D01*
Y67000D01*
X-81980Y66000D01*
X-80980D01*
X-82980Y67999D02*
Y71998D01*
X-94976Y72998D02*
X-93976Y73997D01*
X-91977D01*
X-90977Y72998D01*
Y71998D01*
X-91977Y70998D01*
X-93976D01*
X-94976Y69999D01*
Y68999D01*
X-93976Y67999D01*
X-91977D01*
X-90977Y68999D01*
X-97975Y71998D02*
X-99974D01*
X-100974Y70998D01*
Y67999D01*
X-97975D01*
X-96975Y68999D01*
X-97975Y69999D01*
X-100974D01*
X-103973Y67999D02*
Y72998D01*
Y70998D01*
X-102973D01*
X-104973D01*
X-103973D01*
Y72998D01*
X-104973Y73997D01*
X-108971Y71998D02*
X-110971D01*
X-111970Y70998D01*
Y67999D01*
X-108971D01*
X-107972Y68999D01*
X-108971Y69999D01*
X-111970D01*
X-113970Y67999D02*
Y73997D01*
Y69999D02*
X-116969Y71998D01*
X-113970Y69999D02*
X-116969Y67999D01*
X-128965Y73997D02*
X-126965D01*
X-125966Y72998D01*
Y68999D01*
X-126965Y67999D01*
X-128965D01*
X-129964Y68999D01*
Y72998D01*
X-128965Y73997D01*
X-131964Y71998D02*
X-135962D01*
X-131964Y67999D01*
X-135962D01*
X-141961Y73997D02*
Y67999D01*
X-138962D01*
X-137962Y68999D01*
Y70998D01*
X-138962Y71998D01*
X-141961D01*
X-146959Y67999D02*
X-144960D01*
X-143960Y68999D01*
Y70998D01*
X-144960Y71998D01*
X-146959D01*
X-147959Y70998D01*
Y69999D01*
X-143960D01*
X-149958Y67999D02*
Y71998D01*
X-150958D01*
X-151957Y70998D01*
Y67999D01*
Y70998D01*
X-152957Y71998D01*
X-153957Y70998D01*
Y67999D01*
X-155956D02*
X-157955D01*
X-156956D01*
Y71998D01*
X-155956D01*
X-160954D02*
Y67999D01*
Y69999D01*
X-161954Y70998D01*
X-162954Y71998D01*
X-163953D01*
X-57500Y95497D02*
X-60166D01*
X-58833D01*
Y87500D01*
X-57500D01*
X-60166D01*
X-69496D02*
X-64165D01*
X-69496Y92832D01*
Y94165D01*
X-68163Y95497D01*
X-65497D01*
X-64165Y94165D01*
X-77494D02*
X-76161Y95497D01*
X-73495D01*
X-72162Y94165D01*
Y88833D01*
X-73495Y87500D01*
X-76161D01*
X-77494Y88833D01*
X-93488Y94165D02*
X-92155Y95497D01*
X-89490D01*
X-88157Y94165D01*
Y92832D01*
X-89490Y91499D01*
X-92155D01*
X-93488Y90166D01*
Y88833D01*
X-92155Y87500D01*
X-89490D01*
X-88157Y88833D01*
X-96154Y95497D02*
Y87500D01*
Y91499D01*
X-101486D01*
Y95497D01*
Y87500D01*
X-104152Y95497D02*
X-106817D01*
X-105484D01*
Y87500D01*
X-104152D01*
X-106817D01*
X-116148Y95497D02*
X-110816D01*
Y87500D01*
X-116148D01*
X-110816Y91499D02*
X-113482D01*
X-118814Y95497D02*
Y87500D01*
X-124145D01*
X-126811Y95497D02*
Y87500D01*
X-130810D01*
X-132142Y88833D01*
Y94165D01*
X-130810Y95497D01*
X-126811D01*
M02*
