G04*
G04 #@! TF.GenerationSoftware,Altium Limited,Altium Designer,24.3.1 (35)*
G04*
G04 Layer_Color=16711935*
%FSLAX25Y25*%
%MOIN*%
G70*
G04*
G04 #@! TF.SameCoordinates,DE864B26-D939-457F-A8F5-E13979E0EDEB*
G04*
G04*
G04 #@! TF.FilePolarity,Negative*
G04*
G01*
G75*
%ADD37C,0.06194*%
%ADD38R,0.06194X0.06194*%
%ADD39C,0.06824*%
%ADD40R,0.06824X0.06824*%
%ADD41R,0.06194X0.06194*%
%ADD42R,0.07887X0.07887*%
%ADD43C,0.07887*%
%ADD44C,0.13398*%
%ADD45C,0.05800*%
D37*
X0Y0D02*
D03*
Y10000D02*
D03*
Y20000D02*
D03*
Y30000D02*
D03*
Y40000D02*
D03*
Y50000D02*
D03*
Y60000D02*
D03*
Y70000D02*
D03*
Y80000D02*
D03*
Y-25984D02*
D03*
Y-35984D02*
D03*
Y-45984D02*
D03*
Y-55984D02*
D03*
Y-65984D02*
D03*
Y-75984D02*
D03*
Y-85984D02*
D03*
X-190174Y44020D02*
D03*
Y34020D02*
D03*
Y24020D02*
D03*
Y14020D02*
D03*
Y4020D02*
D03*
Y-5980D02*
D03*
Y-15980D02*
D03*
X-117500Y47500D02*
D03*
X-107500D02*
D03*
X-97500D02*
D03*
D38*
X0Y90000D02*
D03*
Y-15984D02*
D03*
X-190174Y54020D02*
D03*
D39*
Y-88815D02*
D03*
Y-78815D02*
D03*
Y-68815D02*
D03*
Y-58815D02*
D03*
Y-48815D02*
D03*
D40*
Y-38815D02*
D03*
D41*
X-87500Y47500D02*
D03*
D42*
X-106500Y-88231D02*
D03*
X-153302D02*
D03*
D43*
X-86815D02*
D03*
X-133617D02*
D03*
D44*
X-60023Y-96043D02*
D03*
X0Y104000D02*
D03*
X-190174Y109020D02*
D03*
D45*
X-160500Y31500D02*
D03*
Y39000D02*
D03*
Y46500D02*
D03*
Y54000D02*
D03*
Y61500D02*
D03*
M02*
