G04*
G04 #@! TF.GenerationSoftware,Altium Limited,Altium Designer,24.3.1 (35)*
G04*
G04 Layer_Color=8388736*
%FSLAX25Y25*%
%MOIN*%
G70*
G04*
G04 #@! TF.SameCoordinates,DE864B26-D939-457F-A8F5-E13979E0EDEB*
G04*
G04*
G04 #@! TF.FilePolarity,Negative*
G04*
G01*
G75*
%ADD26R,0.05091X0.06587*%
%ADD27R,0.09068X0.06312*%
%ADD28R,0.06312X0.05131*%
%ADD29R,0.05131X0.06312*%
%ADD30R,0.05131X0.06509*%
%ADD31R,0.06509X0.05131*%
%ADD32R,0.02595X0.04016*%
%ADD33R,0.04016X0.02595*%
%ADD34R,0.04016X0.02595*%
G04:AMPARAMS|DCode=35|XSize=75.32mil|YSize=56.42mil|CornerRadius=10.05mil|HoleSize=0mil|Usage=FLASHONLY|Rotation=90.000|XOffset=0mil|YOffset=0mil|HoleType=Round|Shape=RoundedRectangle|*
%AMROUNDEDRECTD35*
21,1,0.07532,0.03632,0,0,90.0*
21,1,0.05522,0.05642,0,0,90.0*
1,1,0.02011,0.01816,0.02761*
1,1,0.02011,0.01816,-0.02761*
1,1,0.02011,-0.01816,-0.02761*
1,1,0.02011,-0.01816,0.02761*
%
%ADD35ROUNDEDRECTD35*%
%ADD36R,0.06300X0.01600*%
%ADD37C,0.06194*%
%ADD38R,0.06194X0.06194*%
%ADD39C,0.06824*%
%ADD40R,0.06824X0.06824*%
%ADD41R,0.06194X0.06194*%
%ADD42R,0.07887X0.07887*%
%ADD43C,0.07887*%
%ADD44C,0.13398*%
%ADD45C,0.05800*%
D26*
X-100299Y-67000D02*
D03*
X-92701D02*
D03*
D27*
X-48204Y81662D02*
D03*
Y99379D02*
D03*
X-84031D02*
D03*
Y81662D02*
D03*
X-159531Y99379D02*
D03*
Y81662D02*
D03*
X-123704D02*
D03*
Y99379D02*
D03*
D28*
X-168617Y73898D02*
D03*
Y80000D02*
D03*
X-81511Y-36953D02*
D03*
Y-43055D02*
D03*
X-45511Y-36953D02*
D03*
Y-43055D02*
D03*
X-183617Y71914D02*
D03*
Y78017D02*
D03*
X-112117Y80217D02*
D03*
Y86320D02*
D03*
Y93769D02*
D03*
Y99871D02*
D03*
X-125500Y-32000D02*
D03*
Y-25898D02*
D03*
X-39117Y100068D02*
D03*
Y93178D02*
D03*
X-168617Y87269D02*
D03*
Y94158D02*
D03*
X-110500Y18445D02*
D03*
Y11555D02*
D03*
D29*
X-59752Y-52500D02*
D03*
X-65854D02*
D03*
X-59752Y-27000D02*
D03*
X-65854D02*
D03*
X-90449Y35000D02*
D03*
X-96551D02*
D03*
X-103949D02*
D03*
X-110051D02*
D03*
X-145551Y-17500D02*
D03*
X-139449D02*
D03*
X-82449Y22000D02*
D03*
X-88551D02*
D03*
X-142055Y-67000D02*
D03*
X-148945D02*
D03*
X-132500Y-17500D02*
D03*
X-125610D02*
D03*
X-102555Y3500D02*
D03*
X-109445D02*
D03*
D30*
X-59063Y-61000D02*
D03*
X-66150D02*
D03*
X-66543Y-19000D02*
D03*
X-59457D02*
D03*
D31*
X-89394Y-43350D02*
D03*
Y-36264D02*
D03*
X-37011Y-36658D02*
D03*
Y-43744D02*
D03*
X-192117Y71225D02*
D03*
Y78312D02*
D03*
D32*
X-99117Y10814D02*
D03*
Y26641D02*
D03*
D33*
X-95141Y10853D02*
D03*
Y14003D02*
D03*
Y17153D02*
D03*
Y20302D02*
D03*
Y23452D02*
D03*
Y26601D02*
D03*
X-103094Y10853D02*
D03*
Y14003D02*
D03*
Y17153D02*
D03*
Y20302D02*
D03*
Y23452D02*
D03*
D34*
Y26601D02*
D03*
D35*
X-119500Y7185D02*
D03*
Y17815D02*
D03*
D36*
X-134517Y-24291D02*
D03*
Y-26261D02*
D03*
Y-28231D02*
D03*
Y-30201D02*
D03*
Y-32171D02*
D03*
X-151717D02*
D03*
Y-30201D02*
D03*
Y-28231D02*
D03*
Y-26261D02*
D03*
Y-24291D02*
D03*
D37*
X0Y0D02*
D03*
Y10000D02*
D03*
Y20000D02*
D03*
Y30000D02*
D03*
Y40000D02*
D03*
Y50000D02*
D03*
Y60000D02*
D03*
Y70000D02*
D03*
Y80000D02*
D03*
Y-25984D02*
D03*
Y-35984D02*
D03*
Y-45984D02*
D03*
Y-55984D02*
D03*
Y-65984D02*
D03*
Y-75984D02*
D03*
Y-85984D02*
D03*
X-190174Y44020D02*
D03*
Y34020D02*
D03*
Y24020D02*
D03*
Y14020D02*
D03*
Y4020D02*
D03*
Y-5980D02*
D03*
Y-15980D02*
D03*
X-117500Y47500D02*
D03*
X-107500D02*
D03*
X-97500D02*
D03*
D38*
X0Y90000D02*
D03*
Y-15984D02*
D03*
X-190174Y54020D02*
D03*
D39*
Y-88815D02*
D03*
Y-78815D02*
D03*
Y-68815D02*
D03*
Y-58815D02*
D03*
Y-48815D02*
D03*
D40*
Y-38815D02*
D03*
D41*
X-87500Y47500D02*
D03*
D42*
X-106500Y-88231D02*
D03*
X-153302D02*
D03*
D43*
X-86815D02*
D03*
X-133617D02*
D03*
D44*
X-60023Y-96043D02*
D03*
X0Y104000D02*
D03*
X-190174Y109020D02*
D03*
D45*
X-160500Y31500D02*
D03*
Y39000D02*
D03*
Y46500D02*
D03*
Y54000D02*
D03*
Y61500D02*
D03*
M02*
