G04*
G04 #@! TF.GenerationSoftware,Altium Limited,Altium Designer,24.3.1 (35)*
G04*
G04 Layer_Physical_Order=2*
G04 Layer_Color=16711680*
%FSLAX25Y25*%
%MOIN*%
G70*
G04*
G04 #@! TF.SameCoordinates,DE864B26-D939-457F-A8F5-E13979E0EDEB*
G04*
G04*
G04 #@! TF.FilePolarity,Positive*
G04*
G01*
G75*
%ADD14C,0.01000*%
%ADD46C,0.02000*%
%ADD49C,0.05394*%
%ADD50R,0.05394X0.05394*%
%ADD51C,0.06024*%
%ADD52R,0.06024X0.06024*%
%ADD53R,0.05394X0.05394*%
%ADD54R,0.07087X0.07087*%
%ADD55C,0.07087*%
%ADD56C,0.12598*%
%ADD57C,0.03500*%
%ADD58C,0.05000*%
G36*
X-191782Y117766D02*
X-191489Y117708D01*
X2455D01*
X2512Y117697D01*
X3370D01*
Y117690D01*
X4519Y117577D01*
X5624Y117242D01*
X6642Y116698D01*
X7534Y115965D01*
X8266Y115073D01*
X8811Y114055D01*
X9146Y112950D01*
X9259Y111801D01*
X9266D01*
X9266Y-90106D01*
X9265D01*
X9128Y-91493D01*
X8724Y-92826D01*
X8067Y-94055D01*
X7183Y-95132D01*
X6106Y-96016D01*
X4877Y-96673D01*
X3543Y-97078D01*
X2156Y-97214D01*
Y-97215D01*
X-36721D01*
X-37014Y-97273D01*
X-37262Y-97439D01*
X-37262Y-97439D01*
X-44912Y-105089D01*
X-174200D01*
X-181881Y-97408D01*
X-182130Y-97242D01*
X-182422Y-97184D01*
X-192292D01*
Y-97183D01*
X-193679Y-97046D01*
X-195012Y-96641D01*
X-196241Y-95985D01*
X-197319Y-95101D01*
X-198203Y-94024D01*
X-198859Y-92795D01*
X-199264Y-91461D01*
X-199400Y-90074D01*
X-199400Y-90074D01*
X-199400D01*
X-199402Y-89574D01*
X-199402Y110603D01*
X-199400D01*
X-199264Y111990D01*
X-198859Y113323D01*
X-198203Y114552D01*
X-197319Y115629D01*
X-196241Y116513D01*
X-195012Y117170D01*
X-193679Y117575D01*
X-192292Y117711D01*
X-192292Y117711D01*
Y117711D01*
X-191827Y117797D01*
X-191782Y117766D01*
D02*
G37*
%LPC*%
G36*
X-190174Y115852D02*
X-191507Y115720D01*
X-192789Y115332D01*
X-193970Y114700D01*
X-195005Y113851D01*
X-195855Y112815D01*
X-196486Y111634D01*
X-196875Y110353D01*
X-197006Y109020D01*
X-196875Y107687D01*
X-196486Y106405D01*
X-195855Y105224D01*
X-195005Y104189D01*
X-193970Y103339D01*
X-192789Y102708D01*
X-191507Y102319D01*
X-190174Y102188D01*
X-188841Y102319D01*
X-187560Y102708D01*
X-186378Y103339D01*
X-185343Y104189D01*
X-184494Y105224D01*
X-183862Y106405D01*
X-183473Y107687D01*
X-183342Y109020D01*
X-183473Y110353D01*
X-183862Y111634D01*
X-184494Y112815D01*
X-185343Y113851D01*
X-186378Y114700D01*
X-187560Y115332D01*
X-188841Y115720D01*
X-190174Y115852D01*
D02*
G37*
G36*
X0Y110832D02*
X-1333Y110701D01*
X-2615Y110312D01*
X-3796Y109681D01*
X-4831Y108831D01*
X-5681Y107796D01*
X-6312Y106614D01*
X-6701Y105333D01*
X-6832Y104000D01*
X-6701Y102667D01*
X-6312Y101385D01*
X-5681Y100204D01*
X-4831Y99169D01*
X-3796Y98319D01*
X-2615Y97688D01*
X-1333Y97299D01*
X0Y97168D01*
X1333Y97299D01*
X2615Y97688D01*
X3796Y98319D01*
X4831Y99169D01*
X5681Y100204D01*
X6312Y101385D01*
X6701Y102667D01*
X6832Y104000D01*
X6701Y105333D01*
X6312Y106614D01*
X5681Y107796D01*
X4831Y108831D01*
X3796Y109681D01*
X2615Y110312D01*
X1333Y110701D01*
X0Y110832D01*
D02*
G37*
G36*
X3197Y93197D02*
X-3197D01*
Y86803D01*
X3197D01*
Y93197D01*
D02*
G37*
G36*
X0Y83224D02*
X-835Y83115D01*
X-1612Y82792D01*
X-2280Y82280D01*
X-2792Y81612D01*
X-3115Y80835D01*
X-3224Y80000D01*
X-3115Y79165D01*
X-2792Y78388D01*
X-2280Y77720D01*
X-1612Y77208D01*
X-835Y76885D01*
X0Y76776D01*
X835Y76885D01*
X1612Y77208D01*
X2280Y77720D01*
X2792Y78388D01*
X3115Y79165D01*
X3224Y80000D01*
X3115Y80835D01*
X2792Y81612D01*
X2280Y82280D01*
X1612Y82792D01*
X835Y83115D01*
X0Y83224D01*
D02*
G37*
G36*
Y73224D02*
X-835Y73115D01*
X-1612Y72792D01*
X-2280Y72280D01*
X-2792Y71612D01*
X-3115Y70835D01*
X-3224Y70000D01*
X-3115Y69165D01*
X-2792Y68388D01*
X-2280Y67720D01*
X-1612Y67208D01*
X-835Y66885D01*
X0Y66776D01*
X835Y66885D01*
X1612Y67208D01*
X2280Y67720D01*
X2792Y68388D01*
X3115Y69165D01*
X3224Y70000D01*
X3115Y70835D01*
X2792Y71612D01*
X2280Y72280D01*
X1612Y72792D01*
X835Y73115D01*
X0Y73224D01*
D02*
G37*
G36*
X-160500Y57026D02*
X-161283Y56923D01*
X-162013Y56621D01*
X-162640Y56140D01*
X-163120Y55513D01*
X-163423Y54783D01*
X-163526Y54000D01*
X-163423Y53217D01*
X-163120Y52487D01*
X-162640Y51860D01*
X-162013Y51380D01*
X-161283Y51077D01*
X-160500Y50974D01*
X-159717Y51077D01*
X-158987Y51380D01*
X-158360Y51860D01*
X-157879Y52487D01*
X-157577Y53217D01*
X-157474Y54000D01*
X-157577Y54783D01*
X-157879Y55513D01*
X-158360Y56140D01*
X-158987Y56621D01*
X-159717Y56923D01*
X-160500Y57026D01*
D02*
G37*
G36*
X-186977Y57217D02*
X-193371D01*
Y50823D01*
X-186977D01*
Y57217D01*
D02*
G37*
G36*
X0Y53224D02*
X-835Y53115D01*
X-1612Y52792D01*
X-2280Y52280D01*
X-2792Y51612D01*
X-3115Y50835D01*
X-3224Y50000D01*
X-3115Y49165D01*
X-2792Y48388D01*
X-2280Y47720D01*
X-1612Y47207D01*
X-835Y46885D01*
X0Y46776D01*
X835Y46885D01*
X1612Y47207D01*
X2280Y47720D01*
X2792Y48388D01*
X3115Y49165D01*
X3224Y50000D01*
X3115Y50835D01*
X2792Y51612D01*
X2280Y52280D01*
X1612Y52792D01*
X835Y53115D01*
X0Y53224D01*
D02*
G37*
G36*
X-181500Y65794D02*
X-182378Y65619D01*
X-183122Y65122D01*
X-183619Y64378D01*
X-183794Y63500D01*
X-183619Y62622D01*
X-183145Y61912D01*
X-183143Y61907D01*
X-183134Y61895D01*
X-183131Y61892D01*
X-183122Y61869D01*
X-183106Y61814D01*
X-183089Y61733D01*
X-183074Y61639D01*
X-183043Y61187D01*
X-183041Y61008D01*
X-183029Y60980D01*
Y47633D01*
X-185111Y45552D01*
X-186009D01*
X-186034Y45564D01*
X-186276Y45572D01*
X-186488Y45594D01*
X-186689Y45631D01*
X-186880Y45682D01*
X-187063Y45747D01*
X-187236Y45825D01*
X-187403Y45919D01*
X-187562Y46026D01*
X-187716Y46150D01*
X-187879Y46303D01*
X-187919Y46319D01*
X-188562Y46812D01*
X-189340Y47134D01*
X-190174Y47244D01*
X-191009Y47134D01*
X-191786Y46812D01*
X-192454Y46300D01*
X-192967Y45632D01*
X-193289Y44854D01*
X-193399Y44020D01*
X-193289Y43185D01*
X-192967Y42408D01*
X-192454Y41740D01*
X-191786Y41227D01*
X-191009Y40905D01*
X-190174Y40795D01*
X-189340Y40905D01*
X-188562Y41227D01*
X-187911Y41727D01*
X-187874Y41741D01*
X-187711Y41895D01*
X-187558Y42018D01*
X-187399Y42126D01*
X-187233Y42220D01*
X-187059Y42298D01*
X-186878Y42363D01*
X-186687Y42414D01*
X-186485Y42451D01*
X-186273Y42474D01*
X-186032Y42482D01*
X-186006Y42493D01*
X-184477D01*
X-183892Y42610D01*
X-183396Y42941D01*
X-180419Y45919D01*
X-180087Y46415D01*
X-179971Y47000D01*
Y60975D01*
X-179959Y61001D01*
X-179950Y61358D01*
X-179926Y61635D01*
X-179911Y61733D01*
X-179894Y61814D01*
X-179878Y61869D01*
X-179869Y61892D01*
X-179866Y61895D01*
X-179857Y61907D01*
X-179855Y61912D01*
X-179381Y62622D01*
X-179206Y63500D01*
X-179381Y64378D01*
X-179878Y65122D01*
X-180622Y65619D01*
X-181500Y65794D01*
D02*
G37*
G36*
X-100000Y61020D02*
X-139500D01*
X-139890Y60942D01*
X-140221Y60721D01*
X-158374Y42568D01*
X-158418Y42553D01*
X-158536Y42449D01*
X-158649Y42373D01*
X-158786Y42300D01*
X-158948Y42234D01*
X-159137Y42176D01*
X-159352Y42126D01*
X-159587Y42088D01*
X-160159Y42044D01*
X-160480Y42041D01*
X-160523Y42023D01*
X-161283Y41923D01*
X-162013Y41620D01*
X-162640Y41140D01*
X-163120Y40513D01*
X-163423Y39783D01*
X-163526Y39000D01*
X-163423Y38217D01*
X-163120Y37487D01*
X-162640Y36860D01*
X-162013Y36380D01*
X-161283Y36077D01*
X-160500Y35974D01*
X-159717Y36077D01*
X-158987Y36380D01*
X-158360Y36860D01*
X-157879Y37487D01*
X-157577Y38217D01*
X-157479Y38965D01*
X-157459Y39008D01*
X-157439Y39645D01*
X-157413Y39906D01*
X-157374Y40148D01*
X-157324Y40363D01*
X-157266Y40552D01*
X-157200Y40714D01*
X-157127Y40851D01*
X-157051Y40964D01*
X-156947Y41082D01*
X-156932Y41126D01*
X-139078Y58980D01*
X-100422D01*
X-91306Y49864D01*
X-91288Y49816D01*
X-90931Y49433D01*
X-90812Y49284D01*
X-90721Y49155D01*
X-90697Y49112D01*
Y48812D01*
X-90714Y48771D01*
X-90697Y48729D01*
Y48728D01*
X-90707Y48684D01*
X-90697Y48668D01*
Y44303D01*
X-84303D01*
Y50697D01*
X-88668D01*
X-88684Y50707D01*
X-88728Y50697D01*
X-88729D01*
X-88771Y50714D01*
X-88812Y50697D01*
X-89113D01*
X-89155Y50722D01*
X-89278Y50808D01*
X-89615Y51094D01*
X-89809Y51281D01*
X-89859Y51301D01*
X-99279Y60721D01*
X-99610Y60942D01*
X-100000Y61020D01*
D02*
G37*
G36*
X-107500Y50724D02*
X-108335Y50615D01*
X-109112Y50292D01*
X-109780Y49780D01*
X-110292Y49112D01*
X-110615Y48335D01*
X-110724Y47500D01*
X-110615Y46665D01*
X-110292Y45888D01*
X-109780Y45220D01*
X-109112Y44708D01*
X-108335Y44385D01*
X-107500Y44276D01*
X-106666Y44385D01*
X-105888Y44708D01*
X-105220Y45220D01*
X-104708Y45888D01*
X-104385Y46665D01*
X-104276Y47500D01*
X-104385Y48335D01*
X-104708Y49112D01*
X-105220Y49780D01*
X-105888Y50292D01*
X-106666Y50615D01*
X-107500Y50724D01*
D02*
G37*
G36*
X-160500Y49526D02*
X-161283Y49423D01*
X-162013Y49121D01*
X-162640Y48640D01*
X-162959Y48224D01*
X-163037Y48176D01*
X-163138Y48037D01*
X-163229Y47937D01*
X-163330Y47849D01*
X-163442Y47772D01*
X-163567Y47706D01*
X-163708Y47649D01*
X-163866Y47604D01*
X-164041Y47570D01*
X-164236Y47549D01*
X-164468Y47541D01*
X-164493Y47529D01*
X-166000D01*
X-166585Y47413D01*
X-167081Y47081D01*
X-170581Y43581D01*
X-170913Y43085D01*
X-171029Y42500D01*
Y35327D01*
X-188310Y18047D01*
X-188336Y18037D01*
X-188512Y17873D01*
X-188678Y17739D01*
X-188846Y17622D01*
X-189017Y17523D01*
X-189192Y17440D01*
X-189371Y17373D01*
X-189554Y17322D01*
X-189743Y17285D01*
X-189939Y17264D01*
X-190163Y17257D01*
X-190200Y17241D01*
X-191009Y17134D01*
X-191786Y16812D01*
X-192454Y16300D01*
X-192967Y15632D01*
X-193289Y14854D01*
X-193399Y14020D01*
X-193289Y13185D01*
X-192967Y12408D01*
X-192454Y11740D01*
X-191786Y11227D01*
X-191009Y10905D01*
X-190174Y10795D01*
X-189340Y10905D01*
X-188562Y11227D01*
X-187894Y11740D01*
X-187382Y12408D01*
X-187060Y13185D01*
X-186953Y13994D01*
X-186936Y14031D01*
X-186930Y14255D01*
X-186909Y14451D01*
X-186872Y14640D01*
X-186821Y14823D01*
X-186754Y15002D01*
X-186671Y15176D01*
X-186572Y15348D01*
X-186455Y15516D01*
X-186321Y15682D01*
X-186156Y15858D01*
X-186147Y15884D01*
X-168419Y33612D01*
X-168087Y34109D01*
X-167971Y34694D01*
Y41866D01*
X-165366Y44471D01*
X-164049D01*
X-164025Y44459D01*
X-163561Y44438D01*
X-163365Y44413D01*
X-163173Y44379D01*
X-162990Y44335D01*
X-162816Y44282D01*
X-162651Y44219D01*
X-162494Y44148D01*
X-162344Y44069D01*
X-162187Y43970D01*
X-162115Y43957D01*
X-162013Y43880D01*
X-161283Y43577D01*
X-160500Y43474D01*
X-159717Y43577D01*
X-158987Y43880D01*
X-158360Y44360D01*
X-157879Y44987D01*
X-157577Y45717D01*
X-157474Y46500D01*
X-157577Y47283D01*
X-157879Y48013D01*
X-158360Y48640D01*
X-158987Y49121D01*
X-159717Y49423D01*
X-160500Y49526D01*
D02*
G37*
G36*
X-136000Y47794D02*
X-136878Y47620D01*
X-137622Y47122D01*
X-138119Y46378D01*
X-138294Y45500D01*
X-138291Y45485D01*
X-138294Y45310D01*
X-138306Y45154D01*
X-138327Y45011D01*
X-138355Y44880D01*
X-138390Y44761D01*
X-138432Y44653D01*
X-138481Y44554D01*
X-138535Y44465D01*
X-138597Y44383D01*
X-138682Y44289D01*
X-138699Y44243D01*
X-156221Y26721D01*
X-156442Y26390D01*
X-156520Y26000D01*
Y4422D01*
X-175721Y-14779D01*
X-175942Y-15110D01*
X-176020Y-15500D01*
Y-42578D01*
X-181237Y-47795D01*
X-185317D01*
X-185357Y-47775D01*
X-185535Y-47762D01*
X-185694Y-47728D01*
X-185874Y-47667D01*
X-186076Y-47575D01*
X-186296Y-47451D01*
X-186535Y-47293D01*
X-186784Y-47106D01*
X-187345Y-46615D01*
X-187643Y-46321D01*
X-187669Y-46311D01*
X-187670Y-46310D01*
X-188403Y-45747D01*
X-189257Y-45393D01*
X-190174Y-45273D01*
X-191091Y-45393D01*
X-191945Y-45747D01*
X-192679Y-46310D01*
X-193242Y-47044D01*
X-193596Y-47898D01*
X-193716Y-48815D01*
X-193596Y-49732D01*
X-193242Y-50586D01*
X-192679Y-51320D01*
X-191945Y-51882D01*
X-191091Y-52236D01*
X-190174Y-52357D01*
X-189257Y-52236D01*
X-188403Y-51882D01*
X-187670Y-51320D01*
X-187669Y-51319D01*
X-187643Y-51309D01*
X-187345Y-51015D01*
X-186784Y-50524D01*
X-186535Y-50337D01*
X-186296Y-50179D01*
X-186076Y-50055D01*
X-185874Y-49963D01*
X-185694Y-49902D01*
X-185535Y-49868D01*
X-185357Y-49855D01*
X-185317Y-49835D01*
X-180815D01*
X-180425Y-49757D01*
X-180094Y-49536D01*
X-174279Y-43721D01*
X-174058Y-43390D01*
X-173980Y-43000D01*
Y-15922D01*
X-154779Y3279D01*
X-154558Y3610D01*
X-154480Y4000D01*
Y25578D01*
X-137257Y42801D01*
X-137211Y42818D01*
X-137117Y42903D01*
X-137035Y42965D01*
X-136945Y43019D01*
X-136847Y43068D01*
X-136739Y43110D01*
X-136620Y43145D01*
X-136489Y43173D01*
X-136346Y43194D01*
X-136190Y43206D01*
X-136015Y43209D01*
X-136000Y43206D01*
X-135122Y43380D01*
X-134378Y43878D01*
X-133880Y44622D01*
X-133706Y45500D01*
X-133880Y46378D01*
X-134378Y47122D01*
X-135122Y47620D01*
X-136000Y47794D01*
D02*
G37*
G36*
X0Y43224D02*
X-835Y43115D01*
X-1612Y42792D01*
X-2280Y42280D01*
X-2792Y41612D01*
X-3115Y40835D01*
X-3224Y40000D01*
X-3115Y39165D01*
X-2792Y38388D01*
X-2280Y37720D01*
X-1612Y37207D01*
X-835Y36885D01*
X0Y36776D01*
X835Y36885D01*
X1612Y37207D01*
X2280Y37720D01*
X2792Y38388D01*
X3115Y39165D01*
X3224Y40000D01*
X3115Y40835D01*
X2792Y41612D01*
X2280Y42280D01*
X1612Y42792D01*
X835Y43115D01*
X0Y43224D01*
D02*
G37*
G36*
X-175500Y80794D02*
X-176378Y80619D01*
X-177122Y80122D01*
X-177620Y79378D01*
X-177794Y78500D01*
X-177620Y77622D01*
X-177122Y76878D01*
X-177110Y76869D01*
X-176988Y76743D01*
X-176886Y76625D01*
X-176800Y76509D01*
X-176727Y76397D01*
X-176668Y76287D01*
X-176621Y76181D01*
X-176586Y76077D01*
X-176561Y75975D01*
X-176547Y75874D01*
X-176541Y75747D01*
X-176520Y75703D01*
Y39922D01*
X-181422Y35020D01*
X-185824D01*
X-185865Y35040D01*
X-186031Y35051D01*
X-186174Y35080D01*
X-186334Y35132D01*
X-186510Y35209D01*
X-186701Y35314D01*
X-186907Y35447D01*
X-187119Y35604D01*
X-187599Y36024D01*
X-187852Y36277D01*
X-187888Y36291D01*
X-187894Y36300D01*
X-188562Y36812D01*
X-189340Y37134D01*
X-190174Y37244D01*
X-191009Y37134D01*
X-191786Y36812D01*
X-192454Y36300D01*
X-192967Y35632D01*
X-193289Y34854D01*
X-193399Y34020D01*
X-193289Y33185D01*
X-192967Y32408D01*
X-192454Y31740D01*
X-191786Y31227D01*
X-191009Y30905D01*
X-190174Y30795D01*
X-189340Y30905D01*
X-188562Y31227D01*
X-187940Y31704D01*
X-187893Y31722D01*
X-187373Y32207D01*
X-187143Y32394D01*
X-186921Y32555D01*
X-186713Y32687D01*
X-186519Y32791D01*
X-186341Y32868D01*
X-186180Y32920D01*
X-186037Y32949D01*
X-185872Y32960D01*
X-185831Y32980D01*
X-181000D01*
X-180610Y33058D01*
X-180279Y33279D01*
X-174779Y38779D01*
X-174558Y39110D01*
X-174480Y39500D01*
Y75703D01*
X-174459Y75747D01*
X-174453Y75874D01*
X-174439Y75975D01*
X-174414Y76077D01*
X-174379Y76181D01*
X-174332Y76287D01*
X-174273Y76397D01*
X-174200Y76509D01*
X-174114Y76625D01*
X-174012Y76743D01*
X-173890Y76869D01*
X-173878Y76878D01*
X-173380Y77622D01*
X-173206Y78500D01*
X-173380Y79378D01*
X-173878Y80122D01*
X-174622Y80619D01*
X-175500Y80794D01*
D02*
G37*
G36*
X0Y33224D02*
X-835Y33115D01*
X-1612Y32792D01*
X-2280Y32280D01*
X-2792Y31612D01*
X-3115Y30835D01*
X-3224Y30000D01*
X-3115Y29165D01*
X-2792Y28388D01*
X-2280Y27720D01*
X-1612Y27207D01*
X-835Y26885D01*
X0Y26776D01*
X835Y26885D01*
X1612Y27207D01*
X2280Y27720D01*
X2792Y28388D01*
X3115Y29165D01*
X3224Y30000D01*
X3115Y30835D01*
X2792Y31612D01*
X2280Y32280D01*
X1612Y32792D01*
X835Y33115D01*
X0Y33224D01*
D02*
G37*
G36*
X-190174Y27244D02*
X-191009Y27134D01*
X-191786Y26812D01*
X-192454Y26300D01*
X-192967Y25632D01*
X-193289Y24854D01*
X-193399Y24020D01*
X-193289Y23185D01*
X-192967Y22408D01*
X-192454Y21740D01*
X-191786Y21227D01*
X-191009Y20905D01*
X-190174Y20795D01*
X-189340Y20905D01*
X-188562Y21227D01*
X-187894Y21740D01*
X-187382Y22408D01*
X-187060Y23185D01*
X-186950Y24020D01*
X-187060Y24854D01*
X-187382Y25632D01*
X-187894Y26300D01*
X-188562Y26812D01*
X-189340Y27134D01*
X-190174Y27244D01*
D02*
G37*
G36*
X0Y23224D02*
X-835Y23115D01*
X-1612Y22792D01*
X-2280Y22280D01*
X-2792Y21612D01*
X-3115Y20834D01*
X-3224Y20000D01*
X-3115Y19165D01*
X-2792Y18388D01*
X-2280Y17720D01*
X-1612Y17208D01*
X-835Y16885D01*
X0Y16776D01*
X835Y16885D01*
X1612Y17208D01*
X2280Y17720D01*
X2792Y18388D01*
X3115Y19165D01*
X3224Y20000D01*
X3115Y20834D01*
X2792Y21612D01*
X2280Y22280D01*
X1612Y22792D01*
X835Y23115D01*
X0Y23224D01*
D02*
G37*
G36*
X-88000Y15794D02*
X-88878Y15619D01*
X-89622Y15122D01*
X-90119Y14378D01*
X-90294Y13500D01*
X-90291Y13485D01*
X-90294Y13310D01*
X-90306Y13154D01*
X-90327Y13011D01*
X-90355Y12880D01*
X-90390Y12761D01*
X-90432Y12653D01*
X-90481Y12554D01*
X-90535Y12465D01*
X-90597Y12383D01*
X-90682Y12289D01*
X-90699Y12243D01*
X-108422Y-5480D01*
X-160500D01*
X-160890Y-5558D01*
X-161221Y-5779D01*
X-171221Y-15779D01*
X-171442Y-16110D01*
X-171520Y-16500D01*
Y-58719D01*
X-187460Y-74659D01*
X-187503Y-74673D01*
X-187638Y-74790D01*
X-187775Y-74878D01*
X-187946Y-74963D01*
X-188153Y-75040D01*
X-188397Y-75108D01*
X-188676Y-75165D01*
X-188985Y-75209D01*
X-189729Y-75259D01*
X-190148Y-75262D01*
X-190174Y-75273D01*
X-190174Y-75273D01*
X-191091Y-75393D01*
X-191945Y-75747D01*
X-192679Y-76310D01*
X-193242Y-77044D01*
X-193596Y-77898D01*
X-193716Y-78815D01*
X-193596Y-79732D01*
X-193242Y-80586D01*
X-192679Y-81320D01*
X-191945Y-81883D01*
X-191091Y-82236D01*
X-190174Y-82357D01*
X-189257Y-82236D01*
X-188403Y-81883D01*
X-187670Y-81320D01*
X-187107Y-80586D01*
X-186753Y-79732D01*
X-186632Y-78815D01*
X-186632Y-78814D01*
X-186621Y-78789D01*
X-186618Y-78369D01*
X-186569Y-77626D01*
X-186525Y-77317D01*
X-186468Y-77038D01*
X-186399Y-76794D01*
X-186322Y-76587D01*
X-186238Y-76415D01*
X-186149Y-76279D01*
X-186033Y-76144D01*
X-186019Y-76101D01*
X-169779Y-59862D01*
X-169558Y-59531D01*
X-169480Y-59141D01*
Y-16922D01*
X-160078Y-7520D01*
X-108000D01*
X-107610Y-7442D01*
X-107279Y-7221D01*
X-89257Y10801D01*
X-89211Y10818D01*
X-89117Y10903D01*
X-89035Y10965D01*
X-88946Y11019D01*
X-88847Y11068D01*
X-88739Y11110D01*
X-88620Y11145D01*
X-88489Y11173D01*
X-88346Y11194D01*
X-88190Y11206D01*
X-88015Y11209D01*
X-88000Y11206D01*
X-87122Y11381D01*
X-86378Y11878D01*
X-85881Y12622D01*
X-85706Y13500D01*
X-85881Y14378D01*
X-86378Y15122D01*
X-87122Y15619D01*
X-88000Y15794D01*
D02*
G37*
G36*
X0Y13224D02*
X-835Y13115D01*
X-1612Y12792D01*
X-2280Y12280D01*
X-2792Y11612D01*
X-3115Y10835D01*
X-3224Y10000D01*
X-3115Y9165D01*
X-2792Y8388D01*
X-2280Y7720D01*
X-1612Y7208D01*
X-835Y6885D01*
X0Y6776D01*
X835Y6885D01*
X1612Y7208D01*
X2280Y7720D01*
X2792Y8388D01*
X3115Y9165D01*
X3224Y10000D01*
X3115Y10835D01*
X2792Y11612D01*
X2280Y12280D01*
X1612Y12792D01*
X835Y13115D01*
X0Y13224D01*
D02*
G37*
G36*
X-88000Y8294D02*
X-88878Y8119D01*
X-89622Y7622D01*
X-90119Y6878D01*
X-90294Y6000D01*
X-90291Y5985D01*
X-90294Y5810D01*
X-90306Y5654D01*
X-90327Y5511D01*
X-90355Y5380D01*
X-90390Y5261D01*
X-90432Y5153D01*
X-90481Y5054D01*
X-90535Y4965D01*
X-90597Y4883D01*
X-90682Y4789D01*
X-90699Y4743D01*
X-106422Y-10980D01*
X-153000D01*
X-153390Y-11058D01*
X-153721Y-11279D01*
X-166221Y-23779D01*
X-166442Y-24110D01*
X-166520Y-24500D01*
Y-63718D01*
X-187460Y-84659D01*
X-187503Y-84673D01*
X-187638Y-84790D01*
X-187775Y-84878D01*
X-187946Y-84962D01*
X-188153Y-85040D01*
X-188397Y-85108D01*
X-188676Y-85165D01*
X-188985Y-85209D01*
X-189729Y-85259D01*
X-190148Y-85262D01*
X-190174Y-85273D01*
X-190174Y-85273D01*
X-191091Y-85394D01*
X-191945Y-85747D01*
X-192679Y-86310D01*
X-193242Y-87044D01*
X-193596Y-87898D01*
X-193716Y-88815D01*
X-193596Y-89732D01*
X-193242Y-90586D01*
X-192679Y-91320D01*
X-191945Y-91882D01*
X-191091Y-92236D01*
X-190174Y-92357D01*
X-189257Y-92236D01*
X-188403Y-91882D01*
X-187670Y-91320D01*
X-187107Y-90586D01*
X-186753Y-89732D01*
X-186632Y-88815D01*
X-186632Y-88814D01*
X-186621Y-88789D01*
X-186618Y-88370D01*
X-186569Y-87626D01*
X-186525Y-87317D01*
X-186468Y-87038D01*
X-186399Y-86794D01*
X-186322Y-86587D01*
X-186238Y-86415D01*
X-186149Y-86279D01*
X-186033Y-86144D01*
X-186019Y-86101D01*
X-164779Y-64862D01*
X-164558Y-64531D01*
X-164480Y-64141D01*
Y-24922D01*
X-163541Y-23983D01*
X-163041Y-24190D01*
Y-62000D01*
X-162883Y-62383D01*
X-162500Y-62541D01*
X-95541D01*
Y-101000D01*
X-95383Y-101383D01*
X-95000Y-101541D01*
X-74500D01*
X-74117Y-101383D01*
X-73959Y-101000D01*
Y-58500D01*
X-74117Y-58117D01*
X-74500Y-57959D01*
X-139776D01*
X-158459Y-39276D01*
Y-28725D01*
X-158389Y-28673D01*
X-158122Y-28620D01*
X-157378Y-28122D01*
X-156880Y-27378D01*
X-156706Y-26500D01*
X-156711Y-26476D01*
X-156617Y-26383D01*
X-156459Y-26000D01*
X-156459Y-26000D01*
Y-23500D01*
X-156617Y-23117D01*
X-157000Y-22959D01*
X-161810D01*
X-162017Y-22459D01*
X-152578Y-13020D01*
X-106000D01*
X-105610Y-12942D01*
X-105279Y-12721D01*
X-89257Y3301D01*
X-89211Y3318D01*
X-89117Y3403D01*
X-89035Y3464D01*
X-88946Y3519D01*
X-88847Y3568D01*
X-88739Y3610D01*
X-88620Y3645D01*
X-88489Y3673D01*
X-88346Y3694D01*
X-88190Y3706D01*
X-88015Y3709D01*
X-88000Y3706D01*
X-87122Y3881D01*
X-86378Y4378D01*
X-85881Y5122D01*
X-85706Y6000D01*
X-85881Y6878D01*
X-86378Y7622D01*
X-87122Y8119D01*
X-88000Y8294D01*
D02*
G37*
G36*
X-105000Y56020D02*
X-137000D01*
X-137390Y55942D01*
X-137721Y55721D01*
X-158374Y35068D01*
X-158418Y35053D01*
X-158536Y34949D01*
X-158649Y34873D01*
X-158786Y34800D01*
X-158948Y34734D01*
X-159137Y34676D01*
X-159352Y34626D01*
X-159587Y34589D01*
X-160159Y34544D01*
X-160480Y34541D01*
X-160523Y34523D01*
X-161283Y34423D01*
X-162013Y34121D01*
X-162640Y33640D01*
X-163120Y33013D01*
X-163423Y32283D01*
X-163526Y31500D01*
X-163423Y30717D01*
X-163120Y29987D01*
X-162640Y29360D01*
X-162013Y28879D01*
X-161283Y28577D01*
X-160500Y28474D01*
X-159717Y28577D01*
X-158987Y28879D01*
X-158360Y29360D01*
X-157879Y29987D01*
X-157577Y30717D01*
X-157479Y31465D01*
X-157459Y31508D01*
X-157439Y32145D01*
X-157413Y32406D01*
X-157374Y32648D01*
X-157324Y32863D01*
X-157266Y33052D01*
X-157200Y33214D01*
X-157127Y33351D01*
X-157051Y33464D01*
X-156947Y33582D01*
X-156932Y33626D01*
X-136578Y53980D01*
X-105422D01*
X-101294Y49852D01*
X-101280Y49809D01*
X-101171Y49684D01*
X-101090Y49562D01*
X-101013Y49413D01*
X-100943Y49233D01*
X-100880Y49023D01*
X-100828Y48783D01*
X-100787Y48520D01*
X-100741Y47881D01*
X-100738Y47522D01*
X-100723Y47486D01*
X-100615Y46665D01*
X-100292Y45888D01*
X-99796Y45240D01*
X-99781Y45202D01*
X-99294Y44687D01*
X-99107Y44460D01*
X-98946Y44240D01*
X-98813Y44033D01*
X-98709Y43840D01*
X-98632Y43663D01*
X-98580Y43503D01*
X-98551Y43360D01*
X-98540Y43194D01*
X-98520Y43154D01*
Y40422D01*
X-139922Y-980D01*
X-143203D01*
X-143247Y-959D01*
X-143374Y-953D01*
X-143475Y-939D01*
X-143577Y-914D01*
X-143681Y-879D01*
X-143787Y-832D01*
X-143897Y-773D01*
X-144009Y-701D01*
X-144125Y-614D01*
X-144243Y-512D01*
X-144369Y-390D01*
X-144378Y-378D01*
X-145122Y119D01*
X-146000Y294D01*
X-146878Y119D01*
X-147622Y-378D01*
X-148119Y-1122D01*
X-148294Y-2000D01*
X-148119Y-2878D01*
X-147622Y-3622D01*
X-146878Y-4119D01*
X-146000Y-4294D01*
X-145122Y-4119D01*
X-144378Y-3622D01*
X-144369Y-3610D01*
X-144243Y-3488D01*
X-144125Y-3386D01*
X-144009Y-3300D01*
X-143897Y-3227D01*
X-143787Y-3168D01*
X-143681Y-3121D01*
X-143577Y-3086D01*
X-143475Y-3061D01*
X-143374Y-3047D01*
X-143247Y-3041D01*
X-143203Y-3020D01*
X-139500D01*
X-139110Y-2942D01*
X-138779Y-2721D01*
X-96779Y39279D01*
X-96558Y39610D01*
X-96480Y40000D01*
Y43154D01*
X-96460Y43194D01*
X-96449Y43360D01*
X-96420Y43503D01*
X-96368Y43663D01*
X-96291Y43840D01*
X-96187Y44033D01*
X-96054Y44240D01*
X-95897Y44454D01*
X-95478Y44939D01*
X-95226Y45195D01*
X-95212Y45231D01*
X-94708Y45888D01*
X-94385Y46665D01*
X-94276Y47500D01*
X-94385Y48335D01*
X-94708Y49112D01*
X-95220Y49780D01*
X-95888Y50292D01*
X-96665Y50615D01*
X-97474Y50721D01*
X-97512Y50738D01*
X-98220Y50758D01*
X-98513Y50787D01*
X-98783Y50828D01*
X-99023Y50880D01*
X-99233Y50943D01*
X-99413Y51013D01*
X-99562Y51090D01*
X-99684Y51171D01*
X-99809Y51280D01*
X-99852Y51294D01*
X-104279Y55721D01*
X-104610Y55942D01*
X-105000Y56020D01*
D02*
G37*
G36*
X-83000Y32294D02*
X-83878Y32120D01*
X-84622Y31622D01*
X-85119Y30878D01*
X-85294Y30000D01*
X-85119Y29122D01*
X-84622Y28378D01*
X-83878Y27880D01*
X-83040Y27714D01*
X-83035Y27711D01*
X-83021Y27710D01*
X-83016Y27709D01*
X-82994Y27700D01*
X-82943Y27672D01*
X-82874Y27627D01*
X-82798Y27571D01*
X-82456Y27273D01*
X-82327Y27148D01*
X-82300Y27137D01*
X-76029Y20866D01*
Y3633D01*
X-76296Y3367D01*
X-76323Y3357D01*
X-76581Y3110D01*
X-76794Y2932D01*
X-76874Y2873D01*
X-76943Y2828D01*
X-76994Y2801D01*
X-77016Y2791D01*
X-77021Y2790D01*
X-77035Y2788D01*
X-77040Y2786D01*
X-77878Y2620D01*
X-78622Y2122D01*
X-79119Y1378D01*
X-79294Y500D01*
X-79119Y-378D01*
X-78622Y-1122D01*
X-77878Y-1619D01*
X-77000Y-1794D01*
X-76122Y-1619D01*
X-75378Y-1122D01*
X-74881Y-378D01*
X-74714Y460D01*
X-74712Y465D01*
X-74710Y479D01*
X-74709Y484D01*
X-74699Y506D01*
X-74672Y557D01*
X-74627Y626D01*
X-74571Y702D01*
X-74274Y1044D01*
X-74148Y1173D01*
X-74137Y1200D01*
X-73419Y1919D01*
X-73087Y2415D01*
X-72971Y3000D01*
Y21500D01*
X-73087Y22085D01*
X-73419Y22581D01*
X-80133Y29296D01*
X-80143Y29322D01*
X-80390Y29581D01*
X-80568Y29794D01*
X-80627Y29874D01*
X-80672Y29943D01*
X-80699Y29994D01*
X-80709Y30016D01*
X-80710Y30021D01*
X-80712Y30035D01*
X-80714Y30040D01*
X-80881Y30878D01*
X-81378Y31622D01*
X-82122Y32120D01*
X-83000Y32294D01*
D02*
G37*
G36*
X0Y3224D02*
X-835Y3115D01*
X-1612Y2792D01*
X-2280Y2280D01*
X-2792Y1612D01*
X-3115Y835D01*
X-3224Y0D01*
X-3115Y-835D01*
X-2792Y-1612D01*
X-2280Y-2280D01*
X-1612Y-2792D01*
X-835Y-3115D01*
X0Y-3224D01*
X835Y-3115D01*
X1612Y-2792D01*
X2280Y-2280D01*
X2792Y-1612D01*
X3115Y-835D01*
X3224Y0D01*
X3115Y835D01*
X2792Y1612D01*
X2280Y2280D01*
X1612Y2792D01*
X835Y3115D01*
X0Y3224D01*
D02*
G37*
G36*
X3197Y-12787D02*
X-3197D01*
Y-19181D01*
X3197D01*
Y-12787D01*
D02*
G37*
G36*
X-190174Y-12756D02*
X-191009Y-12866D01*
X-191786Y-13188D01*
X-192454Y-13700D01*
X-192967Y-14368D01*
X-193289Y-15146D01*
X-193399Y-15980D01*
X-193289Y-16815D01*
X-192967Y-17593D01*
X-192454Y-18260D01*
X-191786Y-18773D01*
X-191009Y-19095D01*
X-190174Y-19205D01*
X-189340Y-19095D01*
X-188562Y-18773D01*
X-187894Y-18260D01*
X-187382Y-17593D01*
X-187060Y-16815D01*
X-186950Y-15980D01*
X-187060Y-15146D01*
X-187382Y-14368D01*
X-187894Y-13700D01*
X-188562Y-13188D01*
X-189340Y-12866D01*
X-190174Y-12756D01*
D02*
G37*
G36*
X0Y-22760D02*
X-835Y-22870D01*
X-1612Y-23192D01*
X-2280Y-23704D01*
X-2792Y-24372D01*
X-3115Y-25150D01*
X-3224Y-25984D01*
X-3115Y-26819D01*
X-2792Y-27597D01*
X-2280Y-28264D01*
X-1612Y-28777D01*
X-835Y-29099D01*
X0Y-29209D01*
X835Y-29099D01*
X1612Y-28777D01*
X2280Y-28264D01*
X2792Y-27597D01*
X3115Y-26819D01*
X3224Y-25984D01*
X3115Y-25150D01*
X2792Y-24372D01*
X2280Y-23704D01*
X1612Y-23192D01*
X835Y-22870D01*
X0Y-22760D01*
D02*
G37*
G36*
Y-32760D02*
X-835Y-32870D01*
X-1612Y-33192D01*
X-2260Y-33689D01*
X-2297Y-33703D01*
X-2813Y-34190D01*
X-3040Y-34377D01*
X-3260Y-34538D01*
X-3467Y-34671D01*
X-3660Y-34775D01*
X-3837Y-34852D01*
X-3997Y-34904D01*
X-4140Y-34933D01*
X-4306Y-34944D01*
X-4346Y-34965D01*
X-67187D01*
X-67232Y-34944D01*
X-67359Y-34938D01*
X-67460Y-34923D01*
X-67561Y-34899D01*
X-67665Y-34863D01*
X-67772Y-34817D01*
X-67881Y-34757D01*
X-67993Y-34685D01*
X-68109Y-34598D01*
X-68227Y-34497D01*
X-68354Y-34375D01*
X-68362Y-34362D01*
X-69106Y-33865D01*
X-69984Y-33690D01*
X-70862Y-33865D01*
X-71606Y-34362D01*
X-72104Y-35106D01*
X-72278Y-35984D01*
X-72104Y-36862D01*
X-71606Y-37606D01*
X-70862Y-38104D01*
X-69984Y-38278D01*
X-69106Y-38104D01*
X-68362Y-37606D01*
X-68354Y-37594D01*
X-68227Y-37472D01*
X-68109Y-37371D01*
X-67993Y-37284D01*
X-67881Y-37211D01*
X-67772Y-37152D01*
X-67665Y-37105D01*
X-67561Y-37070D01*
X-67460Y-37045D01*
X-67359Y-37031D01*
X-67232Y-37025D01*
X-67187Y-37004D01*
X-4346D01*
X-4306Y-37024D01*
X-4140Y-37036D01*
X-3997Y-37064D01*
X-3837Y-37116D01*
X-3660Y-37193D01*
X-3467Y-37297D01*
X-3260Y-37430D01*
X-3046Y-37588D01*
X-2561Y-38006D01*
X-2305Y-38258D01*
X-2269Y-38273D01*
X-1612Y-38777D01*
X-835Y-39099D01*
X0Y-39209D01*
X835Y-39099D01*
X1612Y-38777D01*
X2280Y-38264D01*
X2792Y-37596D01*
X3115Y-36819D01*
X3224Y-35984D01*
X3115Y-35150D01*
X2792Y-34372D01*
X2280Y-33704D01*
X1612Y-33192D01*
X835Y-32870D01*
X0Y-32760D01*
D02*
G37*
G36*
X-186662Y-35303D02*
X-193686D01*
Y-42327D01*
X-186662D01*
Y-35303D01*
D02*
G37*
G36*
X0Y-42760D02*
X-835Y-42870D01*
X-1612Y-43192D01*
X-2280Y-43704D01*
X-2792Y-44372D01*
X-3115Y-45150D01*
X-3224Y-45984D01*
X-3115Y-46819D01*
X-2792Y-47596D01*
X-2280Y-48264D01*
X-1612Y-48777D01*
X-835Y-49099D01*
X0Y-49209D01*
X835Y-49099D01*
X1612Y-48777D01*
X2280Y-48264D01*
X2792Y-47596D01*
X3115Y-46819D01*
X3224Y-45984D01*
X3115Y-45150D01*
X2792Y-44372D01*
X2280Y-43704D01*
X1612Y-43192D01*
X835Y-42870D01*
X0Y-42760D01*
D02*
G37*
G36*
Y-52760D02*
X-835Y-52870D01*
X-1612Y-53192D01*
X-2280Y-53704D01*
X-2792Y-54372D01*
X-3115Y-55150D01*
X-3224Y-55984D01*
X-3115Y-56819D01*
X-2792Y-57596D01*
X-2280Y-58264D01*
X-1612Y-58777D01*
X-835Y-59099D01*
X0Y-59209D01*
X835Y-59099D01*
X1612Y-58777D01*
X2280Y-58264D01*
X2792Y-57596D01*
X3115Y-56819D01*
X3224Y-55984D01*
X3115Y-55150D01*
X2792Y-54372D01*
X2280Y-53704D01*
X1612Y-53192D01*
X835Y-52870D01*
X0Y-52760D01*
D02*
G37*
G36*
X-190174Y-55273D02*
X-191091Y-55393D01*
X-191945Y-55747D01*
X-192679Y-56310D01*
X-193242Y-57044D01*
X-193596Y-57898D01*
X-193716Y-58815D01*
X-193596Y-59732D01*
X-193242Y-60586D01*
X-192679Y-61320D01*
X-191945Y-61883D01*
X-191091Y-62236D01*
X-190174Y-62357D01*
X-189257Y-62236D01*
X-188403Y-61883D01*
X-187670Y-61320D01*
X-187107Y-60586D01*
X-186753Y-59732D01*
X-186632Y-58815D01*
X-186753Y-57898D01*
X-187107Y-57044D01*
X-187670Y-56310D01*
X-188403Y-55747D01*
X-189257Y-55393D01*
X-190174Y-55273D01*
D02*
G37*
G36*
X0Y-62760D02*
X-835Y-62870D01*
X-1612Y-63192D01*
X-2280Y-63704D01*
X-2792Y-64372D01*
X-3115Y-65150D01*
X-3224Y-65984D01*
X-3115Y-66819D01*
X-2792Y-67597D01*
X-2280Y-68264D01*
X-1612Y-68777D01*
X-835Y-69099D01*
X0Y-69209D01*
X835Y-69099D01*
X1612Y-68777D01*
X2280Y-68264D01*
X2792Y-67597D01*
X3115Y-66819D01*
X3224Y-65984D01*
X3115Y-65150D01*
X2792Y-64372D01*
X2280Y-63704D01*
X1612Y-63192D01*
X835Y-62870D01*
X0Y-62760D01*
D02*
G37*
G36*
X-190174Y-65273D02*
X-191091Y-65394D01*
X-191945Y-65747D01*
X-192679Y-66310D01*
X-193242Y-67044D01*
X-193596Y-67898D01*
X-193716Y-68815D01*
X-193596Y-69732D01*
X-193242Y-70586D01*
X-192679Y-71320D01*
X-191945Y-71882D01*
X-191091Y-72236D01*
X-190174Y-72357D01*
X-189257Y-72236D01*
X-188403Y-71882D01*
X-187670Y-71320D01*
X-187107Y-70586D01*
X-186753Y-69732D01*
X-186632Y-68815D01*
X-186753Y-67898D01*
X-187107Y-67044D01*
X-187670Y-66310D01*
X-188403Y-65747D01*
X-189257Y-65394D01*
X-190174Y-65273D01*
D02*
G37*
G36*
X0Y-72760D02*
X-835Y-72870D01*
X-1612Y-73192D01*
X-2280Y-73704D01*
X-2792Y-74372D01*
X-3115Y-75150D01*
X-3224Y-75984D01*
X-3115Y-76819D01*
X-2792Y-77596D01*
X-2280Y-78264D01*
X-1612Y-78777D01*
X-835Y-79099D01*
X0Y-79209D01*
X835Y-79099D01*
X1612Y-78777D01*
X2280Y-78264D01*
X2792Y-77596D01*
X3115Y-76819D01*
X3224Y-75984D01*
X3115Y-75150D01*
X2792Y-74372D01*
X2280Y-73704D01*
X1612Y-73192D01*
X835Y-72870D01*
X0Y-72760D01*
D02*
G37*
G36*
Y-82760D02*
X-835Y-82870D01*
X-1612Y-83192D01*
X-2280Y-83704D01*
X-2792Y-84372D01*
X-3115Y-85150D01*
X-3224Y-85984D01*
X-3115Y-86819D01*
X-2792Y-87596D01*
X-2280Y-88264D01*
X-1612Y-88777D01*
X-835Y-89099D01*
X0Y-89209D01*
X835Y-89099D01*
X1612Y-88777D01*
X2280Y-88264D01*
X2792Y-87596D01*
X3115Y-86819D01*
X3224Y-85984D01*
X3115Y-85150D01*
X2792Y-84372D01*
X2280Y-83704D01*
X1612Y-83192D01*
X835Y-82870D01*
X0Y-82760D01*
D02*
G37*
G36*
X-102457Y-84188D02*
X-110543D01*
Y-92275D01*
X-102457D01*
Y-84188D01*
D02*
G37*
G36*
X-149259D02*
X-157346D01*
Y-92275D01*
X-149259D01*
Y-84188D01*
D02*
G37*
G36*
X-133617Y-84153D02*
X-134673Y-84292D01*
X-135656Y-84699D01*
X-136501Y-85348D01*
X-137149Y-86192D01*
X-137556Y-87176D01*
X-137695Y-88231D01*
X-137556Y-89287D01*
X-137149Y-90270D01*
X-136501Y-91115D01*
X-135656Y-91763D01*
X-134673Y-92171D01*
X-133617Y-92309D01*
X-132562Y-92171D01*
X-131578Y-91763D01*
X-130734Y-91115D01*
X-130085Y-90270D01*
X-129678Y-89287D01*
X-129539Y-88231D01*
X-129678Y-87176D01*
X-130085Y-86192D01*
X-130734Y-85348D01*
X-131578Y-84699D01*
X-132562Y-84292D01*
X-133617Y-84153D01*
D02*
G37*
G36*
X-60023Y-89211D02*
X-61356Y-89342D01*
X-62637Y-89731D01*
X-63818Y-90363D01*
X-64854Y-91212D01*
X-65703Y-92248D01*
X-66335Y-93429D01*
X-66724Y-94710D01*
X-66855Y-96043D01*
X-66724Y-97376D01*
X-66335Y-98658D01*
X-65703Y-99839D01*
X-64854Y-100874D01*
X-63818Y-101724D01*
X-62637Y-102355D01*
X-61356Y-102744D01*
X-60023Y-102875D01*
X-58690Y-102744D01*
X-57408Y-102355D01*
X-56227Y-101724D01*
X-55192Y-100874D01*
X-54342Y-99839D01*
X-53711Y-98658D01*
X-53322Y-97376D01*
X-53191Y-96043D01*
X-53322Y-94710D01*
X-53711Y-93429D01*
X-54342Y-92248D01*
X-55192Y-91212D01*
X-56227Y-90363D01*
X-57408Y-89731D01*
X-58690Y-89342D01*
X-60023Y-89211D01*
D02*
G37*
%LPD*%
G36*
X-180318Y62198D02*
X-180356Y62130D01*
X-180390Y62046D01*
X-180419Y61947D01*
X-180444Y61831D01*
X-180464Y61699D01*
X-180491Y61388D01*
X-180500Y61014D01*
X-182500D01*
X-182502Y61209D01*
X-182536Y61699D01*
X-182556Y61831D01*
X-182581Y61947D01*
X-182610Y62046D01*
X-182644Y62130D01*
X-182682Y62198D01*
X-182725Y62250D01*
X-180275D01*
X-180318Y62198D01*
D02*
G37*
G36*
X-188072Y45741D02*
X-187884Y45590D01*
X-187687Y45457D01*
X-187480Y45342D01*
X-187265Y45244D01*
X-187041Y45165D01*
X-186808Y45103D01*
X-186565Y45058D01*
X-186313Y45031D01*
X-186053Y45023D01*
X-186050Y43023D01*
X-186311Y43014D01*
X-186563Y42987D01*
X-186805Y42943D01*
X-187038Y42880D01*
X-187263Y42801D01*
X-187478Y42703D01*
X-187683Y42587D01*
X-187880Y42454D01*
X-188068Y42303D01*
X-188246Y42134D01*
X-188250Y45910D01*
X-188072Y45741D01*
D02*
G37*
G36*
X-89979Y50693D02*
X-89610Y50379D01*
X-89447Y50265D01*
X-89298Y50179D01*
X-89164Y50121D01*
X-89044Y50092D01*
X-88938Y50090D01*
X-88847Y50117D01*
X-88771Y50173D01*
X-90173Y48771D01*
X-90118Y48847D01*
X-90090Y48938D01*
X-90092Y49044D01*
X-90121Y49164D01*
X-90179Y49298D01*
X-90265Y49447D01*
X-90379Y49610D01*
X-90522Y49787D01*
X-90892Y50185D01*
X-90185Y50892D01*
X-89979Y50693D01*
D02*
G37*
G36*
X-157354Y41439D02*
X-157480Y41295D01*
X-157592Y41130D01*
X-157691Y40943D01*
X-157776Y40734D01*
X-157847Y40504D01*
X-157905Y40251D01*
X-157949Y39977D01*
X-157980Y39682D01*
X-158000Y39025D01*
X-160475Y41500D01*
X-160136Y41503D01*
X-159523Y41551D01*
X-159249Y41595D01*
X-158996Y41653D01*
X-158766Y41724D01*
X-158557Y41809D01*
X-158370Y41908D01*
X-158204Y42020D01*
X-158061Y42146D01*
X-157354Y41439D01*
D02*
G37*
G36*
X-161899Y44428D02*
X-162073Y44537D01*
X-162254Y44634D01*
X-162444Y44720D01*
X-162642Y44794D01*
X-162848Y44857D01*
X-163062Y44908D01*
X-163284Y44949D01*
X-163515Y44977D01*
X-164000Y45000D01*
X-164450Y47000D01*
X-164198Y47009D01*
X-163961Y47034D01*
X-163739Y47077D01*
X-163532Y47137D01*
X-163339Y47214D01*
X-163162Y47309D01*
X-162999Y47420D01*
X-162851Y47549D01*
X-162718Y47695D01*
X-162599Y47858D01*
X-161899Y44428D01*
D02*
G37*
G36*
X-186552Y16228D02*
X-186730Y16037D01*
X-186889Y15840D01*
X-187029Y15638D01*
X-187150Y15429D01*
X-187252Y15213D01*
X-187335Y14992D01*
X-187399Y14765D01*
X-187444Y14532D01*
X-187470Y14292D01*
X-187477Y14047D01*
X-190147Y16716D01*
X-189902Y16723D01*
X-189662Y16749D01*
X-189429Y16794D01*
X-189201Y16859D01*
X-188980Y16942D01*
X-188765Y17044D01*
X-188556Y17165D01*
X-188354Y17305D01*
X-188157Y17464D01*
X-187966Y17642D01*
X-186552Y16228D01*
D02*
G37*
G36*
X-136018Y43750D02*
X-136216Y43747D01*
X-136405Y43732D01*
X-136584Y43707D01*
X-136754Y43670D01*
X-136914Y43622D01*
X-137065Y43564D01*
X-137207Y43494D01*
X-137339Y43413D01*
X-137462Y43321D01*
X-137575Y43218D01*
X-138282Y43925D01*
X-138179Y44038D01*
X-138087Y44161D01*
X-138006Y44293D01*
X-137936Y44435D01*
X-137878Y44586D01*
X-137830Y44746D01*
X-137794Y44916D01*
X-137768Y45095D01*
X-137753Y45284D01*
X-137750Y45483D01*
X-136018Y43750D01*
D02*
G37*
G36*
X-187713Y-47012D02*
X-187125Y-47527D01*
X-186846Y-47736D01*
X-186579Y-47913D01*
X-186321Y-48058D01*
X-186074Y-48170D01*
X-185838Y-48251D01*
X-185612Y-48299D01*
X-185397Y-48315D01*
Y-49315D01*
X-185612Y-49331D01*
X-185838Y-49379D01*
X-186074Y-49460D01*
X-186321Y-49572D01*
X-186579Y-49717D01*
X-186846Y-49894D01*
X-187125Y-50103D01*
X-187713Y-50618D01*
X-188023Y-50923D01*
Y-46707D01*
X-187713Y-47012D01*
D02*
G37*
G36*
X-174413Y77108D02*
X-174536Y76964D01*
X-174645Y76819D01*
X-174739Y76673D01*
X-174819Y76526D01*
X-174884Y76377D01*
X-174935Y76228D01*
X-174971Y76077D01*
X-174993Y75926D01*
X-175000Y75773D01*
X-176000D01*
X-176007Y75926D01*
X-176029Y76077D01*
X-176065Y76228D01*
X-176116Y76377D01*
X-176181Y76526D01*
X-176261Y76673D01*
X-176355Y76819D01*
X-176464Y76964D01*
X-176587Y77108D01*
X-176725Y77250D01*
X-174275D01*
X-174413Y77108D01*
D02*
G37*
G36*
X-187969Y35629D02*
X-187459Y35183D01*
X-187215Y35002D01*
X-186978Y34848D01*
X-186749Y34723D01*
X-186526Y34625D01*
X-186311Y34556D01*
X-186103Y34514D01*
X-185902Y34500D01*
X-185910Y33500D01*
X-186109Y33486D01*
X-186317Y33445D01*
X-186532Y33376D01*
X-186755Y33279D01*
X-186987Y33154D01*
X-187226Y33002D01*
X-187473Y32823D01*
X-187728Y32615D01*
X-188262Y32118D01*
X-188234Y35893D01*
X-187969Y35629D01*
D02*
G37*
G36*
X-88017Y11750D02*
X-88216Y11747D01*
X-88405Y11732D01*
X-88584Y11706D01*
X-88754Y11670D01*
X-88914Y11622D01*
X-89065Y11564D01*
X-89207Y11494D01*
X-89339Y11413D01*
X-89462Y11321D01*
X-89575Y11218D01*
X-90282Y11925D01*
X-90179Y12038D01*
X-90087Y12161D01*
X-90006Y12293D01*
X-89937Y12435D01*
X-89878Y12586D01*
X-89830Y12746D01*
X-89793Y12916D01*
X-89768Y13095D01*
X-89753Y13284D01*
X-89750Y13483D01*
X-88017Y11750D01*
D02*
G37*
G36*
X-186443Y-75791D02*
X-186583Y-75954D01*
X-186709Y-76148D01*
X-186819Y-76372D01*
X-186914Y-76626D01*
X-186994Y-76910D01*
X-187058Y-77225D01*
X-187107Y-77570D01*
X-187159Y-78350D01*
X-187162Y-78785D01*
X-190144Y-75803D01*
X-189709Y-75800D01*
X-188929Y-75748D01*
X-188584Y-75699D01*
X-188269Y-75635D01*
X-187985Y-75555D01*
X-187731Y-75460D01*
X-187507Y-75350D01*
X-187313Y-75224D01*
X-187150Y-75084D01*
X-186443Y-75791D01*
D02*
G37*
G36*
X-88017Y4250D02*
X-88216Y4247D01*
X-88405Y4232D01*
X-88584Y4206D01*
X-88754Y4170D01*
X-88914Y4122D01*
X-89065Y4064D01*
X-89207Y3994D01*
X-89339Y3913D01*
X-89462Y3821D01*
X-89575Y3718D01*
X-90282Y4425D01*
X-90179Y4538D01*
X-90087Y4661D01*
X-90006Y4793D01*
X-89937Y4935D01*
X-89878Y5086D01*
X-89830Y5246D01*
X-89793Y5416D01*
X-89768Y5595D01*
X-89753Y5784D01*
X-89750Y5982D01*
X-88017Y4250D01*
D02*
G37*
G36*
X-186443Y-85791D02*
X-186583Y-85954D01*
X-186709Y-86148D01*
X-186819Y-86372D01*
X-186914Y-86626D01*
X-186994Y-86910D01*
X-187058Y-87225D01*
X-187107Y-87570D01*
X-187159Y-88349D01*
X-187162Y-88785D01*
X-190144Y-85803D01*
X-189709Y-85800D01*
X-188929Y-85748D01*
X-188584Y-85699D01*
X-188269Y-85635D01*
X-187985Y-85555D01*
X-187731Y-85460D01*
X-187507Y-85350D01*
X-187313Y-85224D01*
X-187150Y-85084D01*
X-186443Y-85791D01*
D02*
G37*
G36*
X-157000Y-26000D02*
X-158974Y-27974D01*
X-158595Y-28203D01*
X-158801Y-28255D01*
X-159000Y-28318D01*
Y-39500D01*
X-140000Y-58500D01*
X-74500D01*
Y-101000D01*
X-95000D01*
Y-62000D01*
X-162500D01*
Y-23500D01*
X-157000D01*
Y-26000D01*
D02*
G37*
G36*
X-100013Y50740D02*
X-99837Y50622D01*
X-99635Y50519D01*
X-99409Y50430D01*
X-99158Y50356D01*
X-98882Y50295D01*
X-98580Y50249D01*
X-98254Y50217D01*
X-97527Y50197D01*
X-100197Y47527D01*
X-100200Y47903D01*
X-100249Y48581D01*
X-100295Y48882D01*
X-100356Y49158D01*
X-100430Y49409D01*
X-100519Y49635D01*
X-100622Y49837D01*
X-100740Y50013D01*
X-100872Y50165D01*
X-100164Y50872D01*
X-100013Y50740D01*
D02*
G37*
G36*
X-95876Y45306D02*
X-96320Y44792D01*
X-96500Y44546D01*
X-96653Y44308D01*
X-96778Y44078D01*
X-96875Y43855D01*
X-96944Y43640D01*
X-96986Y43432D01*
X-97000Y43232D01*
X-98000D01*
X-98014Y43432D01*
X-98055Y43640D01*
X-98125Y43855D01*
X-98222Y44078D01*
X-98347Y44308D01*
X-98500Y44546D01*
X-98680Y44792D01*
X-98888Y45045D01*
X-99388Y45574D01*
X-95612D01*
X-95876Y45306D01*
D02*
G37*
G36*
X-157354Y33939D02*
X-157480Y33795D01*
X-157592Y33630D01*
X-157691Y33443D01*
X-157776Y33234D01*
X-157847Y33004D01*
X-157905Y32751D01*
X-157949Y32477D01*
X-157980Y32182D01*
X-158000Y31525D01*
X-160475Y34000D01*
X-160136Y34003D01*
X-159523Y34051D01*
X-159249Y34095D01*
X-158996Y34153D01*
X-158766Y34224D01*
X-158557Y34309D01*
X-158370Y34408D01*
X-158204Y34520D01*
X-158061Y34646D01*
X-157354Y33939D01*
D02*
G37*
G36*
X-144608Y-913D02*
X-144464Y-1036D01*
X-144319Y-1145D01*
X-144173Y-1239D01*
X-144026Y-1319D01*
X-143877Y-1384D01*
X-143728Y-1435D01*
X-143577Y-1471D01*
X-143426Y-1493D01*
X-143273Y-1500D01*
Y-2500D01*
X-143426Y-2507D01*
X-143577Y-2529D01*
X-143728Y-2565D01*
X-143877Y-2616D01*
X-144026Y-2681D01*
X-144173Y-2761D01*
X-144319Y-2855D01*
X-144464Y-2964D01*
X-144608Y-3087D01*
X-144750Y-3225D01*
Y-775D01*
X-144608Y-913D01*
D02*
G37*
G36*
X-81243Y29915D02*
X-81222Y29840D01*
X-81187Y29757D01*
X-81137Y29666D01*
X-81073Y29567D01*
X-80994Y29459D01*
X-80793Y29220D01*
X-80535Y28949D01*
X-81949Y27535D01*
X-82089Y27671D01*
X-82459Y27994D01*
X-82567Y28073D01*
X-82666Y28137D01*
X-82757Y28187D01*
X-82840Y28223D01*
X-82916Y28243D01*
X-82982Y28250D01*
X-81250Y29983D01*
X-81243Y29915D01*
D02*
G37*
G36*
X-74535Y1551D02*
X-74671Y1411D01*
X-74994Y1041D01*
X-75073Y933D01*
X-75137Y834D01*
X-75187Y743D01*
X-75222Y660D01*
X-75244Y585D01*
X-75250Y518D01*
X-76982Y2250D01*
X-76916Y2256D01*
X-76840Y2277D01*
X-76757Y2313D01*
X-76666Y2363D01*
X-76567Y2427D01*
X-76459Y2506D01*
X-76220Y2707D01*
X-75949Y2965D01*
X-74535Y1551D01*
D02*
G37*
G36*
X-68592Y-34897D02*
X-68448Y-35020D01*
X-68303Y-35129D01*
X-68157Y-35223D01*
X-68010Y-35303D01*
X-67862Y-35368D01*
X-67712Y-35419D01*
X-67562Y-35455D01*
X-67410Y-35477D01*
X-67257Y-35484D01*
Y-36484D01*
X-67410Y-36492D01*
X-67562Y-36513D01*
X-67712Y-36549D01*
X-67862Y-36600D01*
X-68010Y-36665D01*
X-68157Y-36745D01*
X-68303Y-36840D01*
X-68448Y-36948D01*
X-68592Y-37071D01*
X-68735Y-37209D01*
Y-34759D01*
X-68592Y-34897D01*
D02*
G37*
G36*
X-1926Y-37872D02*
X-2194Y-37608D01*
X-2708Y-37164D01*
X-2954Y-36984D01*
X-3192Y-36831D01*
X-3422Y-36706D01*
X-3645Y-36609D01*
X-3860Y-36540D01*
X-4068Y-36498D01*
X-4268Y-36484D01*
Y-35484D01*
X-4068Y-35470D01*
X-3860Y-35429D01*
X-3645Y-35359D01*
X-3422Y-35262D01*
X-3192Y-35137D01*
X-2954Y-34985D01*
X-2708Y-34804D01*
X-2455Y-34596D01*
X-1926Y-34097D01*
Y-37872D01*
D02*
G37*
D14*
X-160500Y39000D02*
X-139500Y60000D01*
X-100000D01*
X-87500Y47500D01*
X-160500Y31500D02*
X-137000Y55000D01*
X-105000D01*
X-97500Y47500D01*
X-155500Y26000D02*
X-136000Y45500D01*
X-155500Y4000D02*
Y26000D01*
X-175000Y-15500D02*
X-155500Y4000D01*
X-97500Y40000D02*
Y47500D01*
X-139500Y-2000D02*
X-97500Y40000D01*
X-146000Y-2000D02*
X-139500D01*
X-141500Y-59500D02*
X-94000D01*
X-86815Y-88231D02*
Y-66685D01*
X-94000Y-59500D02*
X-86815Y-66685D01*
X-69984Y-35984D02*
X0D01*
X-161000Y-40000D02*
X-141500Y-59500D01*
X-161000Y-40000D02*
Y-29096D01*
X-153000Y-12000D02*
X-106000D01*
X-88000Y6000D01*
X-165500Y-24500D02*
X-153000Y-12000D01*
X-165500Y-64141D02*
Y-24500D01*
X-190174Y-88815D02*
X-165500Y-64141D01*
X-108000Y-6500D02*
X-88000Y13500D01*
X-160500Y-6500D02*
X-108000D01*
X-170500Y-16500D02*
X-160500Y-6500D01*
X-170500Y-59141D02*
Y-16500D01*
X-190174Y-78815D02*
X-170500Y-59141D01*
X-159000Y-27096D02*
Y-26500D01*
X-161000Y-29096D02*
X-159000Y-27096D01*
X-180815Y-48815D02*
X-175000Y-43000D01*
X-190174Y-48815D02*
X-180815D01*
X-175000Y-43000D02*
Y-15500D01*
X-190155Y34000D02*
X-181000D01*
X-190174Y34020D02*
X-190155Y34000D01*
X-181000D02*
X-175500Y39500D01*
Y78500D01*
D46*
X-161000Y46000D02*
X-160500Y46500D01*
X-166000Y46000D02*
X-161000D01*
X-169500Y42500D02*
X-166000Y46000D01*
X-169500Y34694D02*
Y42500D01*
X-190174Y14020D02*
X-169500Y34694D01*
X-77000Y500D02*
X-74500Y3000D01*
Y21500D01*
X-83000Y30000D02*
X-74500Y21500D01*
X-181500Y47000D02*
Y63500D01*
X-184477Y44023D02*
X-181500Y47000D01*
X-190174Y44020D02*
X-190171Y44023D01*
X-184477D01*
D49*
X0Y0D02*
D03*
Y10000D02*
D03*
Y20000D02*
D03*
Y30000D02*
D03*
Y40000D02*
D03*
Y50000D02*
D03*
Y60000D02*
D03*
Y70000D02*
D03*
Y80000D02*
D03*
Y-25984D02*
D03*
Y-35984D02*
D03*
Y-45984D02*
D03*
Y-55984D02*
D03*
Y-65984D02*
D03*
Y-75984D02*
D03*
Y-85984D02*
D03*
X-190174Y44020D02*
D03*
Y34020D02*
D03*
Y24020D02*
D03*
Y14020D02*
D03*
Y4020D02*
D03*
Y-5980D02*
D03*
Y-15980D02*
D03*
X-117500Y47500D02*
D03*
X-107500D02*
D03*
X-97500D02*
D03*
D50*
X0Y90000D02*
D03*
Y-15984D02*
D03*
X-190174Y54020D02*
D03*
D51*
Y-88815D02*
D03*
Y-78815D02*
D03*
Y-68815D02*
D03*
Y-58815D02*
D03*
Y-48815D02*
D03*
D52*
Y-38815D02*
D03*
D53*
X-87500Y47500D02*
D03*
D54*
X-106500Y-88231D02*
D03*
X-153302D02*
D03*
D55*
X-86815D02*
D03*
X-133617D02*
D03*
D56*
X-60023Y-96043D02*
D03*
X0Y104000D02*
D03*
X-190174Y109020D02*
D03*
D57*
X-128795Y19757D02*
D03*
X-136000Y45500D02*
D03*
X-187000Y63500D02*
D03*
X-69984Y-35984D02*
D03*
X-50000Y-64500D02*
D03*
X-36894Y-52426D02*
D03*
X-50244Y-19138D02*
D03*
X-76894Y-27926D02*
D03*
X-140500Y-24000D02*
D03*
X-152000Y-39500D02*
D03*
X-114000Y-18000D02*
D03*
X-69500Y11500D02*
D03*
X-103500Y100000D02*
D03*
X-168617Y100117D02*
D03*
X-88000Y6000D02*
D03*
Y13500D02*
D03*
X-146000Y-2000D02*
D03*
X-77000Y500D02*
D03*
X-83000Y30000D02*
D03*
X-159000Y-26500D02*
D03*
X-175500Y78500D02*
D03*
X-181500Y63500D02*
D03*
D58*
X-160500Y31500D02*
D03*
Y39000D02*
D03*
Y46500D02*
D03*
Y54000D02*
D03*
Y61500D02*
D03*
M02*
