G04*
G04 #@! TF.GenerationSoftware,Altium Limited,Altium Designer,24.3.1 (35)*
G04*
G04 Layer_Color=65535*
%FSLAX25Y25*%
%MOIN*%
G70*
G04*
G04 #@! TF.SameCoordinates,DE864B26-D939-457F-A8F5-E13979E0EDEB*
G04*
G04*
G04 #@! TF.FilePolarity,Positive*
G04*
G01*
G75*
%ADD10C,0.00787*%
%ADD11C,0.00500*%
%ADD12C,0.00197*%
%ADD13C,0.00600*%
%ADD14C,0.01000*%
G36*
X-129767Y-25041D02*
X-130767D01*
Y-23541D01*
X-129767D01*
Y-25041D01*
D02*
G37*
D10*
X-90330Y99379D02*
G03*
X-90330Y99379I-394J0D01*
G01*
X-116617Y81662D02*
G03*
X-116617Y81662I-394J0D01*
G01*
X-54339Y-61000D02*
G03*
X-54339Y-61000I-394J0D01*
G01*
X-89000Y-31933D02*
G03*
X-89000Y-31933I-394J0D01*
G01*
X-70480Y-19000D02*
G03*
X-70480Y-19000I-394J0D01*
G01*
X-36617Y-48075D02*
G03*
X-36617Y-48075I-394J0D01*
G01*
X-191724Y66895D02*
G03*
X-191724Y66895I-394J0D01*
G01*
X-107424Y26601D02*
G03*
X-107424Y26601I-394J0D01*
G01*
X-119106Y1476D02*
G03*
X-119106Y1476I-394J0D01*
G01*
X-121264Y-88231D02*
G03*
X-121264Y-88231I-394J0D01*
G01*
X-168066D02*
G03*
X-168066Y-88231I-394J0D01*
G01*
X-5000Y-5000D02*
Y95000D01*
X5000Y-5000D02*
Y95000D01*
X-5000Y-5000D02*
X5000D01*
X-5000Y95000D02*
X5000D01*
X-5000Y-10984D02*
X5000D01*
X-5000Y-90984D02*
X5000D01*
Y-10984D01*
X-5000Y-90984D02*
Y-10984D01*
X-195174Y59020D02*
X-185174D01*
X-195174Y-20980D02*
X-185174D01*
Y59020D01*
X-195174Y-20980D02*
Y59020D01*
X-185174Y-93815D02*
Y-33815D01*
X-195174Y-93815D02*
X-185174D01*
X-195174D02*
Y-33815D01*
X-185174D01*
X-122500Y52500D02*
X-82500D01*
X-122500Y42500D02*
X-82500D01*
X-122500D02*
Y52500D01*
X-82500Y42500D02*
Y52500D01*
D11*
X-96894Y-64165D02*
X-96106D01*
X-96894Y-69835D02*
X-96106D01*
X-77928Y102332D02*
X-54306D01*
Y78710D02*
Y102332D01*
X-77928Y78710D02*
X-54306D01*
X-77928D02*
Y102332D01*
X-153428Y78710D02*
X-129806D01*
X-153428D02*
Y102332D01*
X-129806D01*
Y78710D02*
Y102332D01*
X-96637Y8393D02*
X-93212D01*
X-105023D02*
X-101597D01*
X-96637Y29062D02*
X-93212D01*
X-105023D02*
X-101597D01*
X-56500Y64000D02*
X-56000D01*
X-56800Y63900D02*
X-55800D01*
X-57000Y63800D02*
X-55700D01*
X-57200Y63700D02*
X-55600D01*
X-57400Y63600D02*
X-55500D01*
X-57600Y63500D02*
X-55400D01*
X-57800Y63400D02*
X-55300D01*
X-57900Y63300D02*
X-55200D01*
X-58000Y63200D02*
X-55100D01*
X-58200Y63100D02*
X-55100D01*
X-58200Y63000D02*
X-55000D01*
X-58300Y62900D02*
X-54900D01*
X-58400Y62800D02*
X-54800D01*
X-58400Y62700D02*
X-54800D01*
X-58500Y62600D02*
X-54700D01*
X-58600Y62500D02*
X-54700D01*
X-58600Y62400D02*
X-54600D01*
X-58700Y62300D02*
X-54500D01*
X-58700Y62200D02*
X-54500D01*
X-58800Y62100D02*
X-54400D01*
X-58800Y62000D02*
X-54400D01*
X-58900Y61900D02*
X-54300D01*
X-59000Y61800D02*
X-54300D01*
X-59000Y61700D02*
X-54200D01*
X-59100Y61600D02*
X-54200D01*
X-59100Y61500D02*
X-54100D01*
X-59200Y61400D02*
X-54100D01*
X-59300Y61300D02*
X-54000D01*
X-59300Y61200D02*
X-54000D01*
X-59400Y61100D02*
X-53900D01*
X-59400Y61000D02*
X-53900D01*
X-59500Y60900D02*
X-53800D01*
X-59500Y60800D02*
X-53800D01*
X-59600Y60700D02*
X-53700D01*
X-59700Y60600D02*
X-53700D01*
X-59700Y60500D02*
X-53600D01*
X-59800Y60400D02*
X-53600D01*
X-59800Y60300D02*
X-53500D01*
X-59900Y60200D02*
X-53500D01*
X-59900Y60100D02*
X-53400D01*
X-60000Y60000D02*
X-53400D01*
X-60100Y59900D02*
X-53300D01*
X-60100Y59800D02*
X-53300D01*
X-60200Y59700D02*
X-53200D01*
X-60200Y59600D02*
X-53100D01*
X-60300Y59500D02*
X-53100D01*
X-60400Y59400D02*
X-53000D01*
X-60400Y59300D02*
X-53000D01*
X-60500Y59200D02*
X-52900D01*
X-60500Y59100D02*
X-52900D01*
X-60600Y59000D02*
X-52900D01*
X-60600Y58900D02*
X-52800D01*
X-60700Y58800D02*
X-52700D01*
X-60800Y58700D02*
X-52700D01*
X-60800Y58600D02*
X-52600D01*
X-60900Y58500D02*
X-52600D01*
X-60900Y58400D02*
X-52500D01*
X-61000Y58300D02*
X-52500D01*
X-61100Y58200D02*
X-52400D01*
X-61100Y58000D02*
X-52300D01*
X-61200Y57900D02*
X-52300D01*
X-61300Y57800D02*
X-52200D01*
X-61300Y57700D02*
X-52200D01*
X-61400Y57600D02*
X-52100D01*
X-61500Y57500D02*
X-52100D01*
X-61500Y57400D02*
X-52000D01*
X-61600Y57300D02*
X-52000D01*
X-61600Y57200D02*
X-51900D01*
X-61700Y57100D02*
X-51900D01*
X-61700Y57000D02*
X-51800D01*
X-61800Y56900D02*
X-51700D01*
X-61900Y56800D02*
X-51700D01*
X-61900Y56700D02*
X-51600D01*
X-62000Y56600D02*
X-51600D01*
X-62000Y56500D02*
X-51600D01*
X-62100Y56400D02*
X-51600D01*
X-62200Y56300D02*
X-51700D01*
X-62200Y56200D02*
X-51900D01*
X-62300Y56100D02*
X-52000D01*
X-62300Y56000D02*
X-52200D01*
X-62400Y55900D02*
X-52300D01*
X-62400Y55800D02*
X-52600D01*
X-62500Y55700D02*
X-52800D01*
X-62600Y55600D02*
X-53000D01*
X-62600Y55500D02*
X-53400D01*
X-62600Y55400D02*
X-53700D01*
X-62700Y55300D02*
X-53900D01*
X-62800Y55200D02*
X-54200D01*
X-62900Y55100D02*
X-54800D01*
X-62900Y55000D02*
X-55100D01*
X-63000Y54900D02*
X-55500D01*
X-63000Y54800D02*
X-56400D01*
X-63100Y54700D02*
X-57200D01*
X-63100Y54600D02*
X-57700D01*
X-63200Y54500D02*
X-58500D01*
X-63300Y54400D02*
X-60800D01*
X-63300Y54300D02*
X-60900D01*
X-63400Y54200D02*
X-61000D01*
X-63400Y54100D02*
X-61200D01*
X-63500Y54000D02*
X-61300D01*
X-63600Y53900D02*
X-61400D01*
X-63600Y53800D02*
X-61500D01*
X-63600Y53700D02*
X-61600D01*
X-63600Y53600D02*
X-61700D01*
X-63600Y53500D02*
X-61800D01*
X-63400Y53400D02*
X-61900D01*
X-63100Y53300D02*
X-62000D01*
X-62900Y53200D02*
X-62100D01*
X-62600Y53100D02*
X-62300D01*
X-64600Y51800D02*
X-64100D01*
X-64700Y51700D02*
X-64000D01*
X-64800Y51600D02*
X-63900D01*
X-64900Y51500D02*
X-63900D01*
X-65000Y51400D02*
X-63800D01*
X-49400Y51300D02*
X-48500D01*
X-65000D02*
X-63800D01*
X-49700Y51200D02*
X-48300D01*
X-65000D02*
X-63800D01*
X-49800Y51100D02*
X-48200D01*
X-65100D02*
X-63800D01*
X-49900Y51000D02*
X-48100D01*
X-65100D02*
X-63800D01*
X-50000Y50900D02*
X-48100D01*
X-65200D02*
X-63800D01*
X-50000Y50800D02*
X-48000D01*
X-65300D02*
X-63900D01*
X-50100Y50700D02*
X-48000D01*
X-65300D02*
X-63900D01*
X-50200Y50600D02*
X-47900D01*
X-65400D02*
X-63900D01*
X-50300Y50500D02*
X-47900D01*
X-65400D02*
X-63900D01*
X-50400Y50400D02*
X-47800D01*
X-65500D02*
X-64000D01*
X-50400Y50300D02*
X-47700D01*
X-65500D02*
X-64000D01*
X-50500Y50200D02*
X-47700D01*
X-65600D02*
X-64000D01*
X-50500Y50100D02*
X-47700D01*
X-65700D02*
X-64100D01*
X-50600Y50000D02*
X-47600D01*
X-65700D02*
X-64100D01*
X-50700Y49900D02*
X-47500D01*
X-65800D02*
X-64100D01*
X-50700Y49800D02*
X-47500D01*
X-65800D02*
X-64200D01*
X-50800Y49700D02*
X-47400D01*
X-65800D02*
X-64200D01*
X-50800Y49600D02*
X-47400D01*
X-65900D02*
X-64200D01*
X-50900Y49500D02*
X-47300D01*
X-66000D02*
X-64200D01*
X-51000Y49400D02*
X-47300D01*
X-66000D02*
X-64200D01*
X-51000Y49300D02*
X-47200D01*
X-61100D02*
X-60400D01*
X-66100D02*
X-64200D01*
X-51100Y49200D02*
X-47100D01*
X-61200D02*
X-60200D01*
X-66100D02*
X-64300D01*
X-51200Y49100D02*
X-47100D01*
X-61300D02*
X-60100D01*
X-66200D02*
X-64300D01*
X-51200Y49000D02*
X-47000D01*
X-61400D02*
X-59900D01*
X-66200D02*
X-64300D01*
X-51400Y48900D02*
X-47000D01*
X-61500D02*
X-59800D01*
X-66300D02*
X-64300D01*
X-51400Y48800D02*
X-46900D01*
X-61500D02*
X-59600D01*
X-66400D02*
X-64300D01*
X-51500Y48700D02*
X-46900D01*
X-61600D02*
X-59500D01*
X-66400D02*
X-64300D01*
X-51600Y48600D02*
X-46800D01*
X-61700D02*
X-59400D01*
X-66500D02*
X-64400D01*
X-51800Y48500D02*
X-46700D01*
X-61800D02*
X-59100D01*
X-66500D02*
X-64400D01*
X-51900Y48400D02*
X-46700D01*
X-61900D02*
X-58900D01*
X-66600D02*
X-64400D01*
X-52000Y48300D02*
X-46700D01*
X-62000D02*
X-58800D01*
X-66700D02*
X-64500D01*
X-52200Y48200D02*
X-46600D01*
X-62100D02*
X-58700D01*
X-66700D02*
X-64500D01*
X-52400Y48100D02*
X-46600D01*
X-62200D02*
X-58500D01*
X-66800D02*
X-64500D01*
X-52500Y48000D02*
X-46500D01*
X-62200D02*
X-58300D01*
X-66800D02*
X-64500D01*
X-52600Y47900D02*
X-46400D01*
X-62300D02*
X-58200D01*
X-66800D02*
X-64600D01*
X-52800Y47800D02*
X-46400D01*
X-62300D02*
X-58000D01*
X-66900D02*
X-64600D01*
X-52900Y47700D02*
X-46300D01*
X-62300D02*
X-57800D01*
X-67000D02*
X-64600D01*
X-53000Y47600D02*
X-46300D01*
X-62400D02*
X-57700D01*
X-67100D02*
X-64600D01*
X-53000Y47500D02*
X-46200D01*
X-62400D02*
X-57700D01*
X-67100D02*
X-64600D01*
X-52900Y47400D02*
X-46200D01*
X-62300D02*
X-57700D01*
X-67100D02*
X-64600D01*
X-52800Y47300D02*
X-46100D01*
X-62300D02*
X-57700D01*
X-67200D02*
X-64600D01*
X-52700Y47200D02*
X-46000D01*
X-62200D02*
X-57700D01*
X-67200D02*
X-64500D01*
X-52600Y47100D02*
X-46000D01*
X-62200D02*
X-57800D01*
X-67300D02*
X-64500D01*
X-52400Y47000D02*
X-45900D01*
X-62200D02*
X-57900D01*
X-67400D02*
X-64500D01*
X-52200Y46900D02*
X-45900D01*
X-62200D02*
X-58100D01*
X-67400D02*
X-64500D01*
X-52000Y46800D02*
X-45900D01*
X-62200D02*
X-58200D01*
X-67500D02*
X-64500D01*
X-51900Y46700D02*
X-45800D01*
X-62200D02*
X-58300D01*
X-67500D02*
X-64400D01*
X-51800Y46600D02*
X-45700D01*
X-62200D02*
X-58400D01*
X-67600D02*
X-64400D01*
X-51600Y46500D02*
X-45600D01*
X-62200D02*
X-58500D01*
X-67600D02*
X-64400D01*
X-51500Y46400D02*
X-45600D01*
X-62200D02*
X-58600D01*
X-67700D02*
X-64400D01*
X-51300Y46300D02*
X-45600D01*
X-62200D02*
X-58700D01*
X-67800D02*
X-64300D01*
X-51100Y46200D02*
X-45500D01*
X-62300D02*
X-58900D01*
X-67800D02*
X-64300D01*
X-50900Y46100D02*
X-45500D01*
X-62300D02*
X-59000D01*
X-67900D02*
X-64300D01*
X-50800Y46000D02*
X-45400D01*
X-62300D02*
X-59100D01*
X-67900D02*
X-64200D01*
X-50600Y45900D02*
X-45300D01*
X-62300D02*
X-59200D01*
X-67900D02*
X-64200D01*
X-50400Y45800D02*
X-45300D01*
X-62300D02*
X-59200D01*
X-68000D02*
X-64200D01*
X-50300Y45700D02*
X-45200D01*
X-62300D02*
X-59300D01*
X-68100D02*
X-64200D01*
X-50100Y45600D02*
X-45200D01*
X-55500D02*
X-54400D01*
X-62300D02*
X-59400D01*
X-68100D02*
X-64200D01*
X-49900Y45500D02*
X-45100D01*
X-55700D02*
X-54200D01*
X-62300D02*
X-59500D01*
X-68200D02*
X-64200D01*
X-49700Y45400D02*
X-45100D01*
X-55800D02*
X-54100D01*
X-62300D02*
X-59600D01*
X-68200D02*
X-64100D01*
X-49600Y45300D02*
X-45000D01*
X-56100D02*
X-53800D01*
X-62300D02*
X-59700D01*
X-68300D02*
X-64100D01*
X-49400Y45200D02*
X-44900D01*
X-56200D02*
X-53600D01*
X-62300D02*
X-59800D01*
X-68300D02*
X-64100D01*
X-49300Y45100D02*
X-44900D01*
X-56300D02*
X-53500D01*
X-62200D02*
X-59800D01*
X-68400D02*
X-64100D01*
X-49100Y45000D02*
X-44800D01*
X-56500D02*
X-53300D01*
X-62200D02*
X-59900D01*
X-68500D02*
X-64000D01*
X-49000Y44900D02*
X-44800D01*
X-56600D02*
X-53000D01*
X-62200D02*
X-59900D01*
X-68500D02*
X-64000D01*
X-48700Y44800D02*
X-44700D01*
X-56700D02*
X-52900D01*
X-62200D02*
X-60000D01*
X-68600D02*
X-63900D01*
X-48500Y44700D02*
X-44600D01*
X-56800D02*
X-52700D01*
X-62200D02*
X-60100D01*
X-68600D02*
X-63900D01*
X-48400Y44600D02*
X-44600D01*
X-56900D02*
X-52600D01*
X-62200D02*
X-60100D01*
X-68700D02*
X-63900D01*
X-48300Y44500D02*
X-44500D01*
X-57000D02*
X-52400D01*
X-62200D02*
X-60200D01*
X-68700D02*
X-63900D01*
X-48100Y44400D02*
X-44500D01*
X-57100D02*
X-52300D01*
X-62200D02*
X-60200D01*
X-68800D02*
X-63800D01*
X-47900Y44300D02*
X-44500D01*
X-57200D02*
X-52100D01*
X-62100D02*
X-60200D01*
X-68900D02*
X-63800D01*
X-47800Y44200D02*
X-44400D01*
X-57300D02*
X-51900D01*
X-62100D02*
X-60300D01*
X-68900D02*
X-63800D01*
X-47600Y44100D02*
X-44300D01*
X-57400D02*
X-51700D01*
X-62100D02*
X-60300D01*
X-68900D02*
X-63800D01*
X-47400Y44000D02*
X-44300D01*
X-57500D02*
X-51600D01*
X-62100D02*
X-60300D01*
X-69000D02*
X-63800D01*
X-47300Y43900D02*
X-44200D01*
X-57500D02*
X-51500D01*
X-62100D02*
X-60300D01*
X-69000D02*
X-63700D01*
X-47100Y43800D02*
X-44200D01*
X-57600D02*
X-51200D01*
X-62000D02*
X-60300D01*
X-69100D02*
X-63700D01*
X-46900Y43700D02*
X-44100D01*
X-57600D02*
X-51100D01*
X-62000D02*
X-60300D01*
X-69200D02*
X-63700D01*
X-46800Y43600D02*
X-44100D01*
X-57700D02*
X-51000D01*
X-62000D02*
X-60300D01*
X-69300D02*
X-63600D01*
X-46600Y43500D02*
X-44000D01*
X-57700D02*
X-50800D01*
X-62000D02*
X-60300D01*
X-69300D02*
X-63600D01*
X-46500Y43400D02*
X-43900D01*
X-57800D02*
X-50600D01*
X-62000D02*
X-60300D01*
X-69300D02*
X-63600D01*
X-46200Y43300D02*
X-43900D01*
X-57900D02*
X-50500D01*
X-62000D02*
X-60300D01*
X-69400D02*
X-63500D01*
X-46100Y43200D02*
X-43800D01*
X-57900D02*
X-50300D01*
X-62000D02*
X-60300D01*
X-69400D02*
X-63500D01*
X-45900Y43100D02*
X-43800D01*
X-58000D02*
X-50100D01*
X-62100D02*
X-60300D01*
X-69500D02*
X-63500D01*
X-45800Y43000D02*
X-43700D01*
X-58000D02*
X-50000D01*
X-62100D02*
X-60200D01*
X-69600D02*
X-63500D01*
X-45600Y42900D02*
X-43700D01*
X-58100D02*
X-49900D01*
X-62100D02*
X-60200D01*
X-69600D02*
X-63400D01*
X-45500Y42800D02*
X-43600D01*
X-58100D02*
X-49700D01*
X-62100D02*
X-60200D01*
X-69700D02*
X-63400D01*
X-45300Y42700D02*
X-43500D01*
X-58200D02*
X-49500D01*
X-62100D02*
X-60200D01*
X-69700D02*
X-63400D01*
X-45100Y42600D02*
X-43500D01*
X-58200D02*
X-49400D01*
X-62100D02*
X-60200D01*
X-69800D02*
X-63300D01*
X-44900Y42500D02*
X-43400D01*
X-58200D02*
X-49100D01*
X-62100D02*
X-60200D01*
X-69800D02*
X-63300D01*
X-44800Y42400D02*
X-43400D01*
X-58300D02*
X-49000D01*
X-62100D02*
X-60200D01*
X-69900D02*
X-63200D01*
X-44600Y42300D02*
X-43400D01*
X-58300D02*
X-48900D01*
X-62100D02*
X-60100D01*
X-70000D02*
X-63200D01*
X-44400Y42200D02*
X-43300D01*
X-58400D02*
X-48700D01*
X-62100D02*
X-60100D01*
X-70000D02*
X-63200D01*
X-44300Y42100D02*
X-43200D01*
X-58400D02*
X-48500D01*
X-62100D02*
X-60100D01*
X-70000D02*
X-63200D01*
X-44100Y42000D02*
X-43100D01*
X-58500D02*
X-48300D01*
X-62200D02*
X-60000D01*
X-70100D02*
X-63100D01*
X-43900Y41900D02*
X-43100D01*
X-58600D02*
X-48200D01*
X-62200D02*
X-60000D01*
X-70100D02*
X-63100D01*
X-43800Y41800D02*
X-43100D01*
X-58600D02*
X-48000D01*
X-62200D02*
X-60000D01*
X-70200D02*
X-63100D01*
X-43700Y41700D02*
X-43100D01*
X-58700D02*
X-47900D01*
X-62200D02*
X-59900D01*
X-70200D02*
X-63100D01*
X-43400Y41600D02*
X-43300D01*
X-58700D02*
X-47700D01*
X-62300D02*
X-59900D01*
X-70200D02*
X-63000D01*
X-58800Y41500D02*
X-47600D01*
X-62300D02*
X-59800D01*
X-70200D02*
X-62900D01*
X-58900Y41400D02*
X-47400D01*
X-70200D02*
X-59700D01*
X-59000Y41300D02*
X-47200D01*
X-70200D02*
X-59400D01*
X-70200Y41200D02*
X-47100D01*
X-70200Y41100D02*
X-46900D01*
X-70200Y41000D02*
X-46700D01*
X-70200Y40900D02*
X-46600D01*
X-70200Y40800D02*
X-46500D01*
X-70200Y40700D02*
X-46200D01*
X-70200Y40600D02*
X-46100D01*
X-70200Y40500D02*
X-45900D01*
X-70100Y40400D02*
X-45800D01*
X-70100Y40300D02*
X-45600D01*
X-70000Y40200D02*
X-45400D01*
X-70000Y40100D02*
X-45300D01*
X-69900Y40000D02*
X-45200D01*
X-69800Y39900D02*
X-44900D01*
X-69500Y39800D02*
X-44800D01*
X-69400Y39700D02*
X-44700D01*
X-69200Y39600D02*
X-44600D01*
X-68900Y39500D02*
X-44500D01*
X-68600Y39400D02*
X-44500D01*
X-68400Y39300D02*
X-44500D01*
X-61100Y58100D02*
X-52400D01*
X-123181Y6201D02*
Y18799D01*
X-115819Y6201D02*
Y18799D01*
X-116342Y-72090D02*
X-76972D01*
Y-104373D02*
Y-72090D01*
X-116342Y-104373D02*
X-76972D01*
X-116342D02*
Y-72090D01*
X-118705Y-104373D02*
Y-72090D01*
X-116342D01*
X-118705Y-104373D02*
X-116342D01*
X-163145Y-72090D02*
X-123775D01*
Y-104373D02*
Y-72090D01*
X-163145Y-104373D02*
X-123775D01*
X-163145D02*
Y-72090D01*
X-165507Y-104373D02*
Y-72090D01*
X-163145D01*
X-165507Y-104373D02*
X-163145D01*
D12*
X-89149Y77725D02*
Y103316D01*
X-43086D01*
X-89149Y77725D02*
X-43086D01*
Y103316D01*
X-118586Y77725D02*
Y103316D01*
X-164649Y77725D02*
X-118586D01*
X-164649Y103316D02*
X-118586D01*
X-164649Y77725D02*
Y103316D01*
X-164877Y70453D02*
Y83445D01*
X-172357Y70453D02*
X-164877D01*
X-172357Y83445D02*
X-164877D01*
X-172357Y70453D02*
Y83445D01*
X-69299Y-48760D02*
X-56307D01*
Y-56240D02*
Y-48760D01*
X-69299Y-56240D02*
Y-48760D01*
Y-56240D02*
X-56307D01*
X-85251Y-46500D02*
Y-33508D01*
X-77771D01*
X-85251Y-46500D02*
X-77771D01*
Y-33508D01*
X-69299Y-23260D02*
X-56307D01*
Y-30740D02*
Y-23260D01*
X-69299Y-30740D02*
Y-23260D01*
Y-30740D02*
X-56307D01*
X-49251Y-46500D02*
Y-33508D01*
X-41771D01*
X-49251Y-46500D02*
X-41771D01*
Y-33508D01*
X-99996Y38740D02*
X-87004D01*
Y31260D02*
Y38740D01*
X-99996Y31260D02*
Y38740D01*
Y31260D02*
X-87004D01*
X-113496Y38740D02*
X-100504D01*
Y31260D02*
Y38740D01*
X-113496Y31260D02*
Y38740D01*
Y31260D02*
X-100504D01*
X-179877Y68470D02*
Y81462D01*
X-187357Y68470D02*
X-179877D01*
X-187357Y81462D02*
X-179877D01*
X-187357Y68470D02*
Y81462D01*
X-108377Y76773D02*
Y89765D01*
X-115857Y76773D02*
X-108377D01*
X-115857Y89765D02*
X-108377D01*
X-115857Y76773D02*
Y89765D01*
X-108377Y90324D02*
Y103316D01*
X-115857Y90324D02*
X-108377D01*
X-115857Y103316D02*
X-108377D01*
X-115857Y90324D02*
Y103316D01*
X-148996Y-21240D02*
X-136004D01*
X-148996D02*
Y-13760D01*
X-136004Y-21240D02*
Y-13760D01*
X-148996D02*
X-136004D01*
X-121760Y-35445D02*
Y-22453D01*
X-129240Y-35445D02*
X-121760D01*
X-129240Y-22453D02*
X-121760D01*
X-129240Y-35445D02*
Y-22453D01*
X-91996Y25740D02*
X-79004D01*
Y18260D02*
Y25740D01*
X-91996Y18260D02*
Y25740D01*
Y18260D02*
X-79004D01*
X-55913Y-64937D02*
Y-57063D01*
X-69299Y-64937D02*
X-55913D01*
X-69299Y-57063D02*
X-55913D01*
X-69299Y-64937D02*
Y-57063D01*
X-93331Y-46500D02*
X-85457D01*
X-93331D02*
Y-33114D01*
X-85457Y-46500D02*
Y-33114D01*
X-93331D02*
X-85457D01*
X-69693Y-22937D02*
Y-15063D01*
X-56307D01*
X-69693Y-22937D02*
X-56307D01*
Y-15063D01*
X-40948Y-33508D02*
X-33074D01*
Y-46894D02*
Y-33508D01*
X-40948Y-46894D02*
Y-33508D01*
Y-46894D02*
X-33074D01*
X-196054Y68076D02*
X-188180D01*
X-196054D02*
Y81462D01*
X-188180Y68076D02*
Y81462D01*
X-196054D02*
X-188180D01*
X-42857Y89930D02*
X-35377D01*
Y103316D01*
X-42857Y89930D02*
Y103316D01*
X-35377D01*
X-172357Y97406D02*
X-164877D01*
X-172357Y84021D02*
Y97406D01*
X-164877Y84021D02*
Y97406D01*
X-172357Y84021D02*
X-164877D01*
X-152193Y-70740D02*
Y-63260D01*
Y-70740D02*
X-138807D01*
X-152193Y-63260D02*
X-138807D01*
Y-70740D02*
Y-63260D01*
X-122362Y-21240D02*
Y-13760D01*
X-135748D02*
X-122362D01*
X-135748Y-21240D02*
X-122362D01*
X-135748D02*
Y-13760D01*
X-114240Y8307D02*
X-106760D01*
Y21693D01*
X-114240Y8307D02*
Y21693D01*
X-106760D01*
X-112693Y-240D02*
Y7240D01*
Y-240D02*
X-99307D01*
X-112693Y7240D02*
X-99307D01*
Y-240D02*
Y7240D01*
D13*
X-149717Y-22431D02*
Y-21631D01*
X-136517D01*
Y-34831D02*
Y-34031D01*
X-149717Y-34831D02*
X-136517D01*
X-149717D02*
Y-34031D01*
X-136517Y-22431D02*
Y-21631D01*
X-153234Y32932D02*
X-153901Y33599D01*
X-155234D01*
X-155900Y32932D01*
Y32266D01*
X-155234Y31599D01*
X-153901D01*
X-153234Y30933D01*
Y30266D01*
X-153901Y29600D01*
X-155234D01*
X-155900Y30266D01*
X-149235Y32932D02*
X-149902Y33599D01*
X-151235D01*
X-151901Y32932D01*
Y30266D01*
X-151235Y29600D01*
X-149902D01*
X-149235Y30266D01*
X-147903Y33599D02*
Y29600D01*
X-145237D01*
X-153234Y40432D02*
X-153901Y41099D01*
X-155234D01*
X-155900Y40432D01*
Y39766D01*
X-155234Y39099D01*
X-153901D01*
X-153234Y38433D01*
Y37766D01*
X-153901Y37100D01*
X-155234D01*
X-155900Y37766D01*
X-151901Y41099D02*
Y37100D01*
X-149902D01*
X-149235Y37766D01*
Y40432D01*
X-149902Y41099D01*
X-151901D01*
X-147903Y37100D02*
Y39766D01*
X-146570Y41099D01*
X-145237Y39766D01*
Y37100D01*
Y39099D01*
X-147903D01*
X-153234Y48599D02*
X-155900D01*
Y46599D01*
X-154567Y47266D01*
X-153901D01*
X-153234Y46599D01*
Y45266D01*
X-153901Y44600D01*
X-155234D01*
X-155900Y45266D01*
X-151901Y48599D02*
Y45933D01*
X-150568Y44600D01*
X-149235Y45933D01*
Y48599D01*
X-155900Y55432D02*
X-155234Y56099D01*
X-153901D01*
X-153234Y55432D01*
Y54766D01*
X-153901Y54099D01*
X-154567D01*
X-153901D01*
X-153234Y53433D01*
Y52766D01*
X-153901Y52100D01*
X-155234D01*
X-155900Y52766D01*
X-151901Y56099D02*
Y53433D01*
X-150568Y52100D01*
X-149235Y53433D01*
Y56099D01*
X-147903Y55432D02*
X-147236Y56099D01*
X-145903D01*
X-145237Y55432D01*
Y54766D01*
X-145903Y54099D01*
X-146570D01*
X-145903D01*
X-145237Y53433D01*
Y52766D01*
X-145903Y52100D01*
X-147236D01*
X-147903Y52766D01*
X-153234Y62932D02*
X-153901Y63599D01*
X-155234D01*
X-155900Y62932D01*
Y60266D01*
X-155234Y59600D01*
X-153901D01*
X-153234Y60266D01*
Y61599D01*
X-154567D01*
X-151901Y59600D02*
Y63599D01*
X-149235Y59600D01*
Y63599D01*
X-147903D02*
Y59600D01*
X-145903D01*
X-145237Y60266D01*
Y62932D01*
X-145903Y63599D01*
X-147903D01*
X-82900Y-68400D02*
X-80234D01*
X-116400Y-68067D02*
X-113734D01*
X-115067Y-66734D02*
Y-69400D01*
X-130900Y-68400D02*
X-128234D01*
X-162400Y-68067D02*
X-159734D01*
X-161067Y-66734D02*
Y-69400D01*
X-129182Y45266D02*
X-129849Y44599D01*
Y43266D01*
X-129182Y42600D01*
X-126516D01*
X-125850Y43266D01*
Y44599D01*
X-126516Y45266D01*
X-127849D01*
Y43933D01*
X-125850Y46599D02*
X-129849D01*
X-125850Y49264D01*
X-129849D01*
Y50597D02*
X-125850D01*
Y52597D01*
X-126516Y53263D01*
X-129182D01*
X-129849Y52597D01*
Y50597D01*
X-78682Y45266D02*
X-79349Y44599D01*
Y43266D01*
X-78682Y42600D01*
X-78016D01*
X-77349Y43266D01*
Y44599D01*
X-76683Y45266D01*
X-76016D01*
X-75350Y44599D01*
Y43266D01*
X-76016Y42600D01*
X-79349Y46599D02*
X-75350D01*
Y48598D01*
X-76016Y49264D01*
X-78682D01*
X-79349Y48598D01*
Y46599D01*
X-75350Y50597D02*
X-78016D01*
X-79349Y51930D01*
X-78016Y53263D01*
X-75350D01*
X-77349D01*
Y50597D01*
X-71900Y76099D02*
Y72766D01*
X-71234Y72100D01*
X-69901D01*
X-69234Y72766D01*
Y76099D01*
X-65236Y75432D02*
X-65902Y76099D01*
X-67235D01*
X-67901Y75432D01*
Y74766D01*
X-67235Y74099D01*
X-65902D01*
X-65236Y73433D01*
Y72766D01*
X-65902Y72100D01*
X-67235D01*
X-67901Y72766D01*
X-61237Y76099D02*
X-63903D01*
Y72100D01*
X-61237D01*
X-63903Y74099D02*
X-62570D01*
X-59904Y72100D02*
Y76099D01*
X-57904D01*
X-57238Y75432D01*
Y74099D01*
X-57904Y73433D01*
X-59904D01*
X-58571D02*
X-57238Y72100D01*
X-149400D02*
Y76099D01*
X-147401D01*
X-146734Y75432D01*
Y74099D01*
X-147401Y73433D01*
X-149400D01*
X-148067D02*
X-146734Y72100D01*
X-142736Y76099D02*
X-145401D01*
Y72100D01*
X-142736D01*
X-145401Y74099D02*
X-144068D01*
X-138737Y75432D02*
X-139403Y76099D01*
X-140736D01*
X-141403Y75432D01*
Y74766D01*
X-140736Y74099D01*
X-139403D01*
X-138737Y73433D01*
Y72766D01*
X-139403Y72100D01*
X-140736D01*
X-141403Y72766D01*
X-134738Y76099D02*
X-137404D01*
Y72100D01*
X-134738D01*
X-137404Y74099D02*
X-136071D01*
X-133405Y76099D02*
X-130739D01*
X-132072D01*
Y72100D01*
X-195900Y83600D02*
Y87599D01*
X-193901D01*
X-193234Y86932D01*
Y85599D01*
X-193901Y84933D01*
X-195900D01*
X-191901Y87599D02*
Y83600D01*
X-190568Y84933D01*
X-189235Y83600D01*
Y87599D01*
X-187903Y83600D02*
Y87599D01*
X-185903D01*
X-185237Y86932D01*
Y85599D01*
X-185903Y84933D01*
X-187903D01*
X-186570D02*
X-185237Y83600D01*
X-182900Y52600D02*
Y56599D01*
X-180234Y52600D01*
Y56599D01*
X-176235Y55932D02*
X-176902Y56599D01*
X-178235D01*
X-178901Y55932D01*
Y53266D01*
X-178235Y52600D01*
X-176902D01*
X-176235Y53266D01*
X-30566Y51654D02*
X-31233Y52321D01*
X-32566D01*
X-33232Y51654D01*
Y50988D01*
X-32566Y50322D01*
X-31233D01*
X-30566Y49655D01*
Y48989D01*
X-31233Y48322D01*
X-32566D01*
X-33232Y48989D01*
X-26568Y51654D02*
X-27234Y52321D01*
X-28567D01*
X-29234Y51654D01*
Y48989D01*
X-28567Y48322D01*
X-27234D01*
X-26568Y48989D01*
X-25235Y52321D02*
Y48322D01*
Y49655D01*
X-22569Y52321D01*
X-24568Y50322D01*
X-22569Y48322D01*
X-21236D02*
X-18570Y50988D01*
X-17237Y52321D02*
Y48322D01*
X-15238D01*
X-14572Y48989D01*
Y51654D01*
X-15238Y52321D01*
X-17237D01*
X-13239Y48322D02*
X-11906D01*
X-12572D01*
Y52321D01*
X-13239Y51654D01*
X-9906D02*
X-9240Y52321D01*
X-7907D01*
X-7241Y51654D01*
Y50988D01*
X-7907Y50322D01*
X-8574D01*
X-7907D01*
X-7241Y49655D01*
Y48989D01*
X-7907Y48322D01*
X-9240D01*
X-9906Y48989D01*
X-30566Y91432D02*
X-31233Y92099D01*
X-32566D01*
X-33232Y91432D01*
Y90766D01*
X-32566Y90099D01*
X-31233D01*
X-30566Y89433D01*
Y88766D01*
X-31233Y88100D01*
X-32566D01*
X-33232Y88766D01*
X-26568Y91432D02*
X-27234Y92099D01*
X-28567D01*
X-29234Y91432D01*
Y88766D01*
X-28567Y88100D01*
X-27234D01*
X-26568Y88766D01*
X-25235Y92099D02*
Y88100D01*
X-22569D01*
X-21236D02*
X-18570Y90766D01*
X-17237Y92099D02*
Y88100D01*
X-15238D01*
X-14572Y88766D01*
Y91432D01*
X-15238Y92099D01*
X-17237D01*
X-13239Y88100D02*
X-11906D01*
X-12572D01*
Y92099D01*
X-13239Y91432D01*
X-7241Y92099D02*
X-9906D01*
Y90099D01*
X-8574Y90766D01*
X-7907D01*
X-7241Y90099D01*
Y88766D01*
X-7907Y88100D01*
X-9240D01*
X-9906Y88766D01*
X-15238Y61599D02*
X-15904Y62265D01*
X-17237D01*
X-17904Y61599D01*
Y58933D01*
X-17237Y58267D01*
X-15904D01*
X-15238Y58933D01*
Y60266D01*
X-16571D01*
X-13905Y58267D02*
Y62265D01*
X-11239Y58267D01*
Y62265D01*
X-9906D02*
Y58267D01*
X-7907D01*
X-7241Y58933D01*
Y61599D01*
X-7907Y62265D01*
X-9906D01*
X-36564Y38378D02*
Y42377D01*
X-35232Y41044D01*
X-33899Y42377D01*
Y38378D01*
X-32566Y42377D02*
X-31233D01*
X-31899D01*
Y38378D01*
X-32566D01*
X-31233D01*
X-26568Y41710D02*
X-27234Y42377D01*
X-28567D01*
X-29234Y41710D01*
Y41044D01*
X-28567Y40377D01*
X-27234D01*
X-26568Y39711D01*
Y39044D01*
X-27234Y38378D01*
X-28567D01*
X-29234Y39044D01*
X-23235Y42377D02*
X-24568D01*
X-25235Y41710D01*
Y39044D01*
X-24568Y38378D01*
X-23235D01*
X-22569Y39044D01*
Y41710D01*
X-23235Y42377D01*
X-21236Y38378D02*
X-18570Y41044D01*
X-17237Y42377D02*
Y38378D01*
X-15238D01*
X-14572Y39044D01*
Y41710D01*
X-15238Y42377D01*
X-17237D01*
X-13239Y38378D02*
X-11906D01*
X-12572D01*
Y42377D01*
X-13239Y41710D01*
X-7241Y38378D02*
X-9906D01*
X-7241Y41044D01*
Y41710D01*
X-7907Y42377D01*
X-9240D01*
X-9906Y41710D01*
X-30566Y81488D02*
X-31233Y82154D01*
X-32566D01*
X-33232Y81488D01*
Y80821D01*
X-32566Y80155D01*
X-31233D01*
X-30566Y79488D01*
Y78822D01*
X-31233Y78155D01*
X-32566D01*
X-33232Y78822D01*
X-29234Y82154D02*
Y78155D01*
X-27234D01*
X-26568Y78822D01*
Y81488D01*
X-27234Y82154D01*
X-29234D01*
X-25235Y78155D02*
Y80821D01*
X-23902Y82154D01*
X-22569Y80821D01*
Y78155D01*
Y80155D01*
X-25235D01*
X-21236Y78155D02*
X-18570Y80821D01*
X-17237Y82154D02*
Y78155D01*
X-15238D01*
X-14572Y78822D01*
Y81488D01*
X-15238Y82154D01*
X-17237D01*
X-13239Y78155D02*
X-11906D01*
X-12572D01*
Y82154D01*
X-13239Y81488D01*
X-7907Y78155D02*
Y82154D01*
X-9906Y80155D01*
X-7241D01*
X-21903Y68211D02*
Y70877D01*
X-20570Y72210D01*
X-19237Y70877D01*
Y68211D01*
Y70210D01*
X-21903D01*
X-17904Y72210D02*
Y69544D01*
X-16571Y68211D01*
X-15238Y69544D01*
Y72210D01*
X-13905D02*
Y68211D01*
X-11906D01*
X-11239Y68878D01*
Y71543D01*
X-11906Y72210D01*
X-13905D01*
X-9906D02*
Y68211D01*
X-7907D01*
X-7241Y68878D01*
Y71543D01*
X-7907Y72210D01*
X-9906D01*
X-29900Y-28043D02*
Y-24044D01*
X-27901D01*
X-27234Y-24711D01*
Y-26043D01*
X-27901Y-26710D01*
X-29900D01*
X-25901Y-24044D02*
Y-28043D01*
X-24568Y-26710D01*
X-23235Y-28043D01*
Y-24044D01*
X-21903Y-28043D02*
Y-24044D01*
X-20570Y-25377D01*
X-19237Y-24044D01*
Y-28043D01*
X-17904D02*
X-15238Y-25377D01*
X-13905Y-24044D02*
Y-28043D01*
X-11906D01*
X-11239Y-27376D01*
Y-24711D01*
X-11906Y-24044D01*
X-13905D01*
X-7241D02*
X-8574Y-24711D01*
X-9906Y-26043D01*
Y-27376D01*
X-9240Y-28043D01*
X-7907D01*
X-7241Y-27376D01*
Y-26710D01*
X-7907Y-26043D01*
X-9906D01*
X-23235Y-14568D02*
X-23902Y-13901D01*
X-25235D01*
X-25901Y-14568D01*
Y-17234D01*
X-25235Y-17900D01*
X-23902D01*
X-23235Y-17234D01*
X-19237Y-14568D02*
X-19903Y-13901D01*
X-21236D01*
X-21903Y-14568D01*
Y-15234D01*
X-21236Y-15901D01*
X-19903D01*
X-19237Y-16567D01*
Y-17234D01*
X-19903Y-17900D01*
X-21236D01*
X-21903Y-17234D01*
X-17904Y-17900D02*
X-15238Y-15234D01*
X-13905Y-13901D02*
Y-17900D01*
X-11906D01*
X-11239Y-17234D01*
Y-14568D01*
X-11906Y-13901D01*
X-13905D01*
X-9906D02*
X-7241D01*
Y-14568D01*
X-9906Y-17234D01*
Y-17900D01*
X-13905Y2599D02*
Y-1400D01*
X-11906D01*
X-11239Y-734D01*
Y1932D01*
X-11906Y2599D01*
X-13905D01*
X-9906Y1932D02*
X-9240Y2599D01*
X-7907D01*
X-7241Y1932D01*
Y1266D01*
X-7907Y599D01*
X-7241Y-67D01*
Y-734D01*
X-7907Y-1400D01*
X-9240D01*
X-9906Y-734D01*
Y-67D01*
X-9240Y599D01*
X-9906Y1266D01*
Y1932D01*
X-9240Y599D02*
X-7907D01*
X-29900Y8544D02*
Y12543D01*
X-27901D01*
X-27234Y11877D01*
Y10544D01*
X-27901Y9877D01*
X-29900D01*
X-25901Y12543D02*
Y8544D01*
X-24568Y9877D01*
X-23235Y8544D01*
Y12543D01*
X-21903Y8544D02*
Y12543D01*
X-20570Y11210D01*
X-19237Y12543D01*
Y8544D01*
X-17904D02*
X-15238Y11210D01*
X-13905Y12543D02*
Y8544D01*
X-11906D01*
X-11239Y9211D01*
Y11877D01*
X-11906Y12543D01*
X-13905D01*
X-9906Y9211D02*
X-9240Y8544D01*
X-7907D01*
X-7241Y9211D01*
Y11877D01*
X-7907Y12543D01*
X-9240D01*
X-9906Y11877D01*
Y11210D01*
X-9240Y10544D01*
X-7241D01*
X-29900Y18489D02*
Y22488D01*
X-27901D01*
X-27234Y21821D01*
Y20488D01*
X-27901Y19822D01*
X-29900D01*
X-25901Y22488D02*
Y18489D01*
X-24568Y19822D01*
X-23235Y18489D01*
Y22488D01*
X-21903Y18489D02*
Y22488D01*
X-20570Y21155D01*
X-19237Y22488D01*
Y18489D01*
X-17904D02*
X-15238Y21155D01*
X-13905Y22488D02*
Y18489D01*
X-11906D01*
X-11239Y19155D01*
Y21821D01*
X-11906Y22488D01*
X-13905D01*
X-9906Y19155D02*
X-9240Y18489D01*
X-7907D01*
X-7241Y19155D01*
Y21821D01*
X-7907Y22488D01*
X-9240D01*
X-9906Y21821D01*
Y21155D01*
X-9240Y20488D01*
X-7241D01*
X-51227Y28433D02*
Y32432D01*
X-49227D01*
X-48561Y31766D01*
Y30433D01*
X-49227Y29766D01*
X-51227D01*
X-47228Y32432D02*
Y28433D01*
X-45895Y29766D01*
X-44562Y28433D01*
Y32432D01*
X-43229Y28433D02*
Y32432D01*
X-41896Y31099D01*
X-40563Y32432D01*
Y28433D01*
X-39230D02*
X-36564Y31099D01*
X-35232Y28433D02*
Y32432D01*
X-33899Y31099D01*
X-32566Y32432D01*
Y28433D01*
X-29234Y32432D02*
X-30566D01*
X-31233Y31766D01*
Y29100D01*
X-30566Y28433D01*
X-29234D01*
X-28567Y29100D01*
Y31766D01*
X-29234Y32432D01*
X-24568Y31766D02*
X-25235Y32432D01*
X-26568D01*
X-27234Y31766D01*
Y31099D01*
X-26568Y30433D01*
X-25235D01*
X-24568Y29766D01*
Y29100D01*
X-25235Y28433D01*
X-26568D01*
X-27234Y29100D01*
X-23235Y32432D02*
X-21903D01*
X-22569D01*
Y28433D01*
X-23235D01*
X-21903D01*
X-19903D02*
X-17237Y31099D01*
X-15904Y32432D02*
Y28433D01*
X-13905D01*
X-13239Y29100D01*
Y31766D01*
X-13905Y32432D01*
X-15904D01*
X-11906Y28433D02*
X-10573D01*
X-11239D01*
Y32432D01*
X-11906Y31766D01*
X-8574Y28433D02*
X-7241D01*
X-7907D01*
Y32432D01*
X-8574Y31766D01*
X-182900Y-59800D02*
Y-57134D01*
X-181567Y-55801D01*
X-180234Y-57134D01*
Y-59800D01*
Y-57801D01*
X-182900D01*
X-176235Y-59800D02*
X-178901D01*
X-176235Y-57134D01*
Y-56468D01*
X-176902Y-55801D01*
X-178235D01*
X-178901Y-56468D01*
X-182900Y-49600D02*
Y-46934D01*
X-181567Y-45601D01*
X-180234Y-46934D01*
Y-49600D01*
Y-47601D01*
X-182900D01*
X-178901Y-49600D02*
X-177568D01*
X-178235D01*
Y-45601D01*
X-178901Y-46268D01*
X-182900Y-39400D02*
Y-36734D01*
X-181567Y-35401D01*
X-180234Y-36734D01*
Y-39400D01*
Y-37401D01*
X-182900D01*
X-178901Y-36068D02*
X-178235Y-35401D01*
X-176902D01*
X-176235Y-36068D01*
Y-38734D01*
X-176902Y-39400D01*
X-178235D01*
X-178901Y-38734D01*
Y-36068D01*
X-182900Y-70000D02*
Y-67334D01*
X-181567Y-66001D01*
X-180234Y-67334D01*
Y-70000D01*
Y-68001D01*
X-182900D01*
X-178901Y-66668D02*
X-178235Y-66001D01*
X-176902D01*
X-176235Y-66668D01*
Y-67334D01*
X-176902Y-68001D01*
X-177568D01*
X-176902D01*
X-176235Y-68667D01*
Y-69334D01*
X-176902Y-70000D01*
X-178235D01*
X-178901Y-69334D01*
X-182900Y-80200D02*
Y-77534D01*
X-181567Y-76201D01*
X-180234Y-77534D01*
Y-80200D01*
Y-78201D01*
X-182900D01*
X-176902Y-80200D02*
Y-76201D01*
X-178901Y-78201D01*
X-176235D01*
X-182900Y-90400D02*
Y-87734D01*
X-181567Y-86401D01*
X-180234Y-87734D01*
Y-90400D01*
Y-88401D01*
X-182900D01*
X-176235Y-86401D02*
X-178901D01*
Y-88401D01*
X-177568Y-87734D01*
X-176902D01*
X-176235Y-88401D01*
Y-89734D01*
X-176902Y-90400D01*
X-178235D01*
X-178901Y-89734D01*
X-25901Y-88900D02*
Y-84901D01*
X-23902D01*
X-23235Y-85568D01*
Y-86901D01*
X-23902Y-87567D01*
X-25901D01*
X-24568D02*
X-23235Y-88900D01*
X-21903Y-84901D02*
X-19237Y-88900D01*
Y-84901D02*
X-21903Y-88900D01*
X-17904D02*
X-15238Y-86234D01*
X-13905Y-84901D02*
Y-88900D01*
X-11906D01*
X-11239Y-88234D01*
Y-85568D01*
X-11906Y-84901D01*
X-13905D01*
X-9906Y-85568D02*
X-9240Y-84901D01*
X-7907D01*
X-7241Y-85568D01*
Y-88234D01*
X-7907Y-88900D01*
X-9240D01*
X-9906Y-88234D01*
Y-85568D01*
X-24568Y-74758D02*
X-21903D01*
X-23235D01*
Y-78757D01*
X-20570Y-74758D02*
X-17904Y-78757D01*
Y-74758D02*
X-20570Y-78757D01*
X-16571D02*
X-13905Y-76091D01*
X-12572Y-74758D02*
Y-78757D01*
X-10573D01*
X-9906Y-78091D01*
Y-75425D01*
X-10573Y-74758D01*
X-12572D01*
X-8574Y-78757D02*
X-7241D01*
X-7907D01*
Y-74758D01*
X-8574Y-75425D01*
X-13905Y-64616D02*
Y-68614D01*
X-11906D01*
X-11239Y-67948D01*
Y-65282D01*
X-11906Y-64616D01*
X-13905D01*
X-7241Y-68614D02*
X-9906D01*
X-7241Y-65948D01*
Y-65282D01*
X-7907Y-64616D01*
X-9240D01*
X-9906Y-65282D01*
X-29900Y-58472D02*
Y-54473D01*
X-27901D01*
X-27234Y-55139D01*
Y-56472D01*
X-27901Y-57139D01*
X-29900D01*
X-25901Y-54473D02*
Y-58472D01*
X-24568Y-57139D01*
X-23235Y-58472D01*
Y-54473D01*
X-21903Y-58472D02*
Y-54473D01*
X-20570Y-55806D01*
X-19237Y-54473D01*
Y-58472D01*
X-17904D02*
X-15238Y-55806D01*
X-13905Y-54473D02*
Y-58472D01*
X-11906D01*
X-11239Y-57805D01*
Y-55139D01*
X-11906Y-54473D01*
X-13905D01*
X-9906Y-55139D02*
X-9240Y-54473D01*
X-7907D01*
X-7241Y-55139D01*
Y-55806D01*
X-7907Y-56472D01*
X-8574D01*
X-7907D01*
X-7241Y-57139D01*
Y-57805D01*
X-7907Y-58472D01*
X-9240D01*
X-9906Y-57805D01*
X-13905Y-44330D02*
Y-48329D01*
X-11906D01*
X-11239Y-47662D01*
Y-44996D01*
X-11906Y-44330D01*
X-13905D01*
X-7907Y-48329D02*
Y-44330D01*
X-9906Y-46329D01*
X-7241D01*
X-29900Y-38186D02*
Y-34187D01*
X-27901D01*
X-27234Y-34854D01*
Y-36186D01*
X-27901Y-36853D01*
X-29900D01*
X-25901Y-34187D02*
Y-38186D01*
X-24568Y-36853D01*
X-23235Y-38186D01*
Y-34187D01*
X-21903Y-38186D02*
Y-34187D01*
X-20570Y-35520D01*
X-19237Y-34187D01*
Y-38186D01*
X-17904D02*
X-15238Y-35520D01*
X-13905Y-34187D02*
Y-38186D01*
X-11906D01*
X-11239Y-37519D01*
Y-34854D01*
X-11906Y-34187D01*
X-13905D01*
X-7241D02*
X-9906D01*
Y-36186D01*
X-8574Y-35520D01*
X-7907D01*
X-7241Y-36186D01*
Y-37519D01*
X-7907Y-38186D01*
X-9240D01*
X-9906Y-37519D01*
X-182900Y-13901D02*
Y-16567D01*
X-181567Y-17900D01*
X-180234Y-16567D01*
Y-13901D01*
X-178901D02*
X-177568D01*
X-178235D01*
Y-17900D01*
X-178901D01*
X-177568D01*
X-175569D02*
Y-13901D01*
X-172903Y-17900D01*
Y-13901D01*
X-180234Y-4496D02*
X-180901Y-3830D01*
X-182234D01*
X-182900Y-4496D01*
Y-7162D01*
X-182234Y-7829D01*
X-180901D01*
X-180234Y-7162D01*
Y-5829D01*
X-181567D01*
X-178901Y-7829D02*
Y-3830D01*
X-176235Y-7829D01*
Y-3830D01*
X-174903D02*
Y-7829D01*
X-172903D01*
X-172237Y-7162D01*
Y-4496D01*
X-172903Y-3830D01*
X-174903D01*
X-180234Y5575D02*
X-180901Y6242D01*
X-182234D01*
X-182900Y5575D01*
Y2909D01*
X-182234Y2243D01*
X-180901D01*
X-180234Y2909D01*
Y4242D01*
X-181567D01*
X-178901Y2243D02*
Y6242D01*
X-176235Y2243D01*
Y6242D01*
X-174903D02*
Y2243D01*
X-172903D01*
X-172237Y2909D01*
Y5575D01*
X-172903Y6242D01*
X-174903D01*
X-180234Y16313D02*
X-182900D01*
Y14314D01*
X-181567Y14980D01*
X-180901D01*
X-180234Y14314D01*
Y12981D01*
X-180901Y12314D01*
X-182234D01*
X-182900Y12981D01*
X-178901Y16313D02*
Y13647D01*
X-177568Y12314D01*
X-176235Y13647D01*
Y16313D01*
X-182900Y25718D02*
X-182234Y26384D01*
X-180901D01*
X-180234Y25718D01*
Y25052D01*
X-180901Y24385D01*
X-181567D01*
X-180901D01*
X-180234Y23719D01*
Y23052D01*
X-180901Y22386D01*
X-182234D01*
X-182900Y23052D01*
X-178901Y26384D02*
Y23719D01*
X-177568Y22386D01*
X-176235Y23719D01*
Y26384D01*
X-174903Y25718D02*
X-174236Y26384D01*
X-172903D01*
X-172237Y25718D01*
Y25052D01*
X-172903Y24385D01*
X-173570D01*
X-172903D01*
X-172237Y23719D01*
Y23052D01*
X-172903Y22386D01*
X-174236D01*
X-174903Y23052D01*
X-182900Y32457D02*
Y36456D01*
X-180234Y32457D01*
Y36456D01*
X-178901Y32457D02*
Y36456D01*
X-176902D01*
X-176235Y35789D01*
Y34457D01*
X-176902Y33790D01*
X-178901D01*
X-177568D02*
X-176235Y32457D01*
X-172237Y35789D02*
X-172903Y36456D01*
X-174236D01*
X-174903Y35789D01*
Y35123D01*
X-174236Y34457D01*
X-172903D01*
X-172237Y33790D01*
Y33124D01*
X-172903Y32457D01*
X-174236D01*
X-174903Y33124D01*
X-170904Y36456D02*
X-168238D01*
X-169571D01*
Y32457D01*
X-182900Y46527D02*
X-181567D01*
X-182234D01*
Y42529D01*
X-182900D01*
X-181567D01*
X-177568Y46527D02*
X-178901D01*
X-179568Y45861D01*
Y43195D01*
X-178901Y42529D01*
X-177568D01*
X-176902Y43195D01*
Y45861D01*
X-177568Y46527D01*
X-175569Y42529D02*
Y46527D01*
X-173570D01*
X-172903Y45861D01*
Y44528D01*
X-173570Y43861D01*
X-175569D01*
X-174236D02*
X-172903Y42529D01*
X-168904Y46527D02*
X-171570D01*
Y42529D01*
X-168904D01*
X-171570Y44528D02*
X-170237D01*
X-164906Y46527D02*
X-167572D01*
Y44528D01*
X-166239D01*
X-167572D01*
Y42529D01*
X-90332Y-3501D02*
Y-6833D01*
X-89666Y-7499D01*
X-88333D01*
X-87666Y-6833D01*
Y-3501D01*
X-83668Y-7499D02*
X-86334D01*
X-83668Y-4834D01*
Y-4167D01*
X-84334Y-3501D01*
X-85667D01*
X-86334Y-4167D01*
X-163666Y-17501D02*
Y-20833D01*
X-162999Y-21499D01*
X-161667D01*
X-161000Y-20833D01*
Y-17501D01*
X-159667Y-21499D02*
X-158334D01*
X-159001D01*
Y-17501D01*
X-159667Y-18167D01*
X-160167Y109333D02*
X-160833Y109999D01*
X-162166D01*
X-162832Y109333D01*
Y108667D01*
X-162166Y108000D01*
X-160833D01*
X-160167Y107334D01*
Y106667D01*
X-160833Y106001D01*
X-162166D01*
X-162832Y106667D01*
X-156168Y106001D02*
X-158834D01*
X-156168Y108667D01*
Y109333D01*
X-156834Y109999D01*
X-158167D01*
X-158834Y109333D01*
X-84000D02*
X-84666Y109999D01*
X-85999D01*
X-86666Y109333D01*
Y108667D01*
X-85999Y108000D01*
X-84666D01*
X-84000Y107334D01*
Y106667D01*
X-84666Y106001D01*
X-85999D01*
X-86666Y106667D01*
X-82667Y106001D02*
X-81334D01*
X-82001D01*
Y109999D01*
X-82667Y109333D01*
X-76499Y26498D02*
X-72501D01*
Y24499D01*
X-73167Y23833D01*
X-74500D01*
X-75166Y24499D01*
Y26498D01*
Y25166D02*
X-76499Y23833D01*
Y22500D02*
Y21167D01*
Y21833D01*
X-72501D01*
X-73167Y22500D01*
X-76499Y17168D02*
X-72501D01*
X-74500Y19167D01*
Y16502D01*
X-118999Y-22502D02*
X-115001D01*
Y-24501D01*
X-115667Y-25167D01*
X-117000D01*
X-117666Y-24501D01*
Y-22502D01*
Y-23834D02*
X-118999Y-25167D01*
Y-26500D02*
Y-27833D01*
Y-27167D01*
X-115001D01*
X-115667Y-26500D01*
Y-29833D02*
X-115001Y-30499D01*
Y-31832D01*
X-115667Y-32498D01*
X-116333D01*
X-117000Y-31832D01*
Y-31166D01*
Y-31832D01*
X-117666Y-32498D01*
X-118333D01*
X-118999Y-31832D01*
Y-30499D01*
X-118333Y-29833D01*
X-146498Y-10999D02*
Y-7001D01*
X-144499D01*
X-143833Y-7667D01*
Y-9000D01*
X-144499Y-9667D01*
X-146498D01*
X-145166D02*
X-143833Y-10999D01*
X-142500D02*
X-141167D01*
X-141833D01*
Y-7001D01*
X-142500Y-7667D01*
X-136502Y-10999D02*
X-139167D01*
X-136502Y-8333D01*
Y-7667D01*
X-137168Y-7001D01*
X-138501D01*
X-139167Y-7667D01*
X-100715Y-59768D02*
Y-55769D01*
X-98715D01*
X-98049Y-56436D01*
Y-57769D01*
X-98715Y-58435D01*
X-100715D01*
X-99382D02*
X-98049Y-59768D01*
X-96716D02*
X-95383D01*
X-96049D01*
Y-55769D01*
X-96716Y-56436D01*
X-93384Y-59768D02*
X-92051D01*
X-92717D01*
Y-55769D01*
X-93384Y-56436D01*
X-115318Y106001D02*
Y109999D01*
X-113319D01*
X-112652Y109333D01*
Y108000D01*
X-113319Y107334D01*
X-115318D01*
X-113985D02*
X-112652Y106001D01*
X-111319D02*
X-109986D01*
X-110653D01*
Y109999D01*
X-111319Y109333D01*
X-107987D02*
X-107320Y109999D01*
X-105988D01*
X-105321Y109333D01*
Y106667D01*
X-105988Y106001D01*
X-107320D01*
X-107987Y106667D01*
Y109333D01*
X-105999Y83332D02*
X-102001D01*
Y81333D01*
X-102667Y80666D01*
X-104000D01*
X-104666Y81333D01*
Y83332D01*
Y81999D02*
X-105999Y80666D01*
X-105333Y79334D02*
X-105999Y78667D01*
Y77334D01*
X-105333Y76668D01*
X-102667D01*
X-102001Y77334D01*
Y78667D01*
X-102667Y79334D01*
X-103333D01*
X-104000Y78667D01*
Y76668D01*
X-177832Y65001D02*
Y68999D01*
X-175833D01*
X-175166Y68333D01*
Y67000D01*
X-175833Y66334D01*
X-177832D01*
X-176499D02*
X-175166Y65001D01*
X-173834Y68333D02*
X-173167Y68999D01*
X-171834D01*
X-171168Y68333D01*
Y67666D01*
X-171834Y67000D01*
X-171168Y66334D01*
Y65667D01*
X-171834Y65001D01*
X-173167D01*
X-173834Y65667D01*
Y66334D01*
X-173167Y67000D01*
X-173834Y67666D01*
Y68333D01*
X-173167Y67000D02*
X-171834D01*
X-116256Y33668D02*
X-120255D01*
Y35667D01*
X-119589Y36334D01*
X-118256D01*
X-117589Y35667D01*
Y33668D01*
Y35001D02*
X-116256Y36334D01*
X-120255Y37666D02*
Y40332D01*
X-119589D01*
X-116923Y37666D01*
X-116256D01*
X-84499Y40332D02*
X-80501D01*
Y38333D01*
X-81167Y37666D01*
X-82500D01*
X-83166Y38333D01*
Y40332D01*
Y38999D02*
X-84499Y37666D01*
X-80501Y33668D02*
X-81167Y35001D01*
X-82500Y36334D01*
X-83833D01*
X-84499Y35667D01*
Y34334D01*
X-83833Y33668D01*
X-83166D01*
X-82500Y34334D01*
Y36334D01*
X-51911Y-52921D02*
Y-48922D01*
X-49911D01*
X-49245Y-49589D01*
Y-50922D01*
X-49911Y-51588D01*
X-51911D01*
X-50578D02*
X-49245Y-52921D01*
X-45246Y-48922D02*
X-47912D01*
Y-50922D01*
X-46579Y-50255D01*
X-45913D01*
X-45246Y-50922D01*
Y-52255D01*
X-45913Y-52921D01*
X-47245D01*
X-47912Y-52255D01*
X-66332Y-36499D02*
Y-32501D01*
X-64333D01*
X-63666Y-33167D01*
Y-34500D01*
X-64333Y-35166D01*
X-66332D01*
X-64999D02*
X-63666Y-36499D01*
X-60334D02*
Y-32501D01*
X-62334Y-34500D01*
X-59668D01*
X-82726Y-52921D02*
Y-48922D01*
X-80727D01*
X-80060Y-49589D01*
Y-50922D01*
X-80727Y-51588D01*
X-82726D01*
X-81393D02*
X-80060Y-52921D01*
X-78727Y-49589D02*
X-78061Y-48922D01*
X-76728D01*
X-76061Y-49589D01*
Y-50255D01*
X-76728Y-50922D01*
X-77394D01*
X-76728D01*
X-76061Y-51588D01*
Y-52255D01*
X-76728Y-52921D01*
X-78061D01*
X-78727Y-52255D01*
X-66332Y-46999D02*
Y-43001D01*
X-64333D01*
X-63666Y-43667D01*
Y-45000D01*
X-64333Y-45666D01*
X-66332D01*
X-64999D02*
X-63666Y-46999D01*
X-59668D02*
X-62334D01*
X-59668Y-44334D01*
Y-43667D01*
X-60334Y-43001D01*
X-61667D01*
X-62334Y-43667D01*
X-161666Y71001D02*
Y74999D01*
X-159667D01*
X-159000Y74333D01*
Y73000D01*
X-159667Y72334D01*
X-161666D01*
X-160333D02*
X-159000Y71001D01*
X-157667D02*
X-156334D01*
X-157001D01*
Y74999D01*
X-157667Y74333D01*
X-47831Y-26501D02*
Y-30499D01*
X-45165D01*
X-41166Y-26501D02*
X-43832D01*
Y-30499D01*
X-41166D01*
X-43832Y-28500D02*
X-42499D01*
X-39834Y-26501D02*
Y-30499D01*
X-37834D01*
X-37168Y-29833D01*
Y-27167D01*
X-37834Y-26501D01*
X-39834D01*
X-33836Y-30499D02*
Y-26501D01*
X-35835Y-28500D01*
X-33169D01*
X-69331Y-9501D02*
Y-13499D01*
X-66665D01*
X-62666Y-9501D02*
X-65332D01*
Y-13499D01*
X-62666D01*
X-65332Y-11500D02*
X-63999D01*
X-61334Y-9501D02*
Y-13499D01*
X-59334D01*
X-58668Y-12833D01*
Y-10167D01*
X-59334Y-9501D01*
X-61334D01*
X-57335Y-10167D02*
X-56668Y-9501D01*
X-55335D01*
X-54669Y-10167D01*
Y-10834D01*
X-55335Y-11500D01*
X-56002D01*
X-55335D01*
X-54669Y-12167D01*
Y-12833D01*
X-55335Y-13499D01*
X-56668D01*
X-57335Y-12833D01*
X-95831Y-25501D02*
Y-29499D01*
X-93165D01*
X-89166Y-25501D02*
X-91832D01*
Y-29499D01*
X-89166D01*
X-91832Y-27500D02*
X-90499D01*
X-87833Y-25501D02*
Y-29499D01*
X-85834D01*
X-85168Y-28833D01*
Y-26167D01*
X-85834Y-25501D01*
X-87833D01*
X-81169Y-29499D02*
X-83835D01*
X-81169Y-26834D01*
Y-26167D01*
X-81836Y-25501D01*
X-83168D01*
X-83835Y-26167D01*
X-69331Y-66501D02*
Y-70499D01*
X-66665D01*
X-62666Y-66501D02*
X-65332D01*
Y-70499D01*
X-62666D01*
X-65332Y-68500D02*
X-63999D01*
X-61334Y-66501D02*
Y-70499D01*
X-59334D01*
X-58668Y-69833D01*
Y-67167D01*
X-59334Y-66501D01*
X-61334D01*
X-57335Y-70499D02*
X-56002D01*
X-56668D01*
Y-66501D01*
X-57335Y-67167D01*
X-122382Y60064D02*
X-123049Y60731D01*
X-124381D01*
X-125048Y60064D01*
Y57398D01*
X-124381Y56732D01*
X-123049D01*
X-122382Y57398D01*
X-121049Y56732D02*
Y60731D01*
X-118383Y56732D01*
Y60731D01*
X-117051Y56732D02*
X-115718D01*
X-116384D01*
Y60731D01*
X-117051Y60064D01*
X-96833Y2833D02*
X-97499Y2167D01*
Y834D01*
X-96833Y168D01*
X-94167D01*
X-93501Y834D01*
Y2167D01*
X-94167Y2833D01*
X-97499Y4166D02*
Y6832D01*
X-96833D01*
X-94167Y4166D01*
X-93501D01*
X-128833Y10834D02*
X-129499Y10167D01*
Y8834D01*
X-128833Y8168D01*
X-126167D01*
X-125501Y8834D01*
Y10167D01*
X-126167Y10834D01*
X-129499Y14832D02*
X-128833Y13499D01*
X-127500Y12167D01*
X-126167D01*
X-125501Y12833D01*
Y14166D01*
X-126167Y14832D01*
X-126833D01*
X-127500Y14166D01*
Y12167D01*
X-115666Y26833D02*
X-116333Y27499D01*
X-117666D01*
X-118332Y26833D01*
Y24167D01*
X-117666Y23501D01*
X-116333D01*
X-115666Y24167D01*
X-111668Y27499D02*
X-114333D01*
Y25500D01*
X-113001Y26166D01*
X-112334D01*
X-111668Y25500D01*
Y24167D01*
X-112334Y23501D01*
X-113667D01*
X-114333Y24167D01*
X-129604Y-7667D02*
X-130271Y-7001D01*
X-131604D01*
X-132270Y-7667D01*
Y-10333D01*
X-131604Y-10999D01*
X-130271D01*
X-129604Y-10333D01*
X-126272Y-10999D02*
Y-7001D01*
X-128271Y-9000D01*
X-125606D01*
X-154222Y-57167D02*
X-154888Y-56501D01*
X-156221D01*
X-156887Y-57167D01*
Y-59833D01*
X-156221Y-60499D01*
X-154888D01*
X-154222Y-59833D01*
X-152889Y-57167D02*
X-152222Y-56501D01*
X-150889D01*
X-150223Y-57167D01*
Y-57834D01*
X-150889Y-58500D01*
X-151556D01*
X-150889D01*
X-150223Y-59166D01*
Y-59833D01*
X-150889Y-60499D01*
X-152222D01*
X-152889Y-59833D01*
X-177333Y91334D02*
X-177999Y90667D01*
Y89334D01*
X-177333Y88668D01*
X-174667D01*
X-174001Y89334D01*
Y90667D01*
X-174667Y91334D01*
X-174001Y95332D02*
Y92667D01*
X-176666Y95332D01*
X-177333D01*
X-177999Y94666D01*
Y93333D01*
X-177333Y92667D01*
X-39652Y109310D02*
X-40319Y109976D01*
X-41651D01*
X-42318Y109310D01*
Y106644D01*
X-41651Y105978D01*
X-40319D01*
X-39652Y106644D01*
X-38319Y105978D02*
X-36986D01*
X-37653D01*
Y109976D01*
X-38319Y109310D01*
D14*
X-155500Y-17835D02*
X-152168Y-21167D01*
X-155500D02*
X-152168Y-17835D01*
X-155500Y-19501D02*
X-152168D01*
X-153834Y-21167D02*
Y-17835D01*
M02*
