G04*
G04 #@! TF.GenerationSoftware,Altium Limited,Altium Designer,24.3.1 (35)*
G04*
G04 Layer_Physical_Order=1*
G04 Layer_Color=255*
%FSLAX25Y25*%
%MOIN*%
G70*
G04*
G04 #@! TF.SameCoordinates,DE864B26-D939-457F-A8F5-E13979E0EDEB*
G04*
G04*
G04 #@! TF.FilePolarity,Positive*
G04*
G01*
G75*
%ADD14C,0.01000*%
%ADD15R,0.04291X0.05787*%
%ADD16R,0.08268X0.05512*%
%ADD17R,0.05512X0.04331*%
%ADD18R,0.04331X0.05512*%
%ADD19R,0.04331X0.05709*%
%ADD20R,0.05709X0.04331*%
%ADD21R,0.02202X0.03622*%
%ADD22R,0.03622X0.02202*%
%ADD23R,0.03622X0.02202*%
G04:AMPARAMS|DCode=24|XSize=67.32mil|YSize=48.42mil|CornerRadius=6.05mil|HoleSize=0mil|Usage=FLASHONLY|Rotation=90.000|XOffset=0mil|YOffset=0mil|HoleType=Round|Shape=RoundedRectangle|*
%AMROUNDEDRECTD24*
21,1,0.06732,0.03632,0,0,90.0*
21,1,0.05522,0.04842,0,0,90.0*
1,1,0.01211,0.01816,0.02761*
1,1,0.01211,0.01816,-0.02761*
1,1,0.01211,-0.01816,-0.02761*
1,1,0.01211,-0.01816,0.02761*
%
%ADD24ROUNDEDRECTD24*%
%ADD25R,0.05500X0.00800*%
%ADD46C,0.02000*%
%ADD47C,0.01100*%
%ADD48C,0.03000*%
%ADD49C,0.05394*%
%ADD50R,0.05394X0.05394*%
%ADD51C,0.06024*%
%ADD52R,0.06024X0.06024*%
%ADD53R,0.05394X0.05394*%
%ADD54R,0.07087X0.07087*%
%ADD55C,0.07087*%
%ADD56C,0.12598*%
%ADD57C,0.03500*%
%ADD58C,0.05000*%
G36*
X-191782Y117766D02*
X-191489Y117708D01*
X2455D01*
X2512Y117697D01*
X3370D01*
Y117690D01*
X4519Y117577D01*
X5624Y117242D01*
X6642Y116698D01*
X7534Y115965D01*
X8266Y115073D01*
X8811Y114055D01*
X9146Y112950D01*
X9259Y111801D01*
X9266D01*
X9266Y-90106D01*
X9265D01*
X9128Y-91493D01*
X8724Y-92826D01*
X8067Y-94055D01*
X7183Y-95132D01*
X6106Y-96016D01*
X4877Y-96673D01*
X3543Y-97078D01*
X2156Y-97214D01*
Y-97215D01*
X-36721D01*
X-37014Y-97273D01*
X-37262Y-97439D01*
X-37262Y-97439D01*
X-44912Y-105089D01*
X-174200D01*
X-181881Y-97408D01*
X-182130Y-97242D01*
X-182422Y-97184D01*
X-192292D01*
Y-97183D01*
X-193679Y-97046D01*
X-195012Y-96641D01*
X-196241Y-95985D01*
X-197319Y-95101D01*
X-198203Y-94024D01*
X-198859Y-92795D01*
X-199264Y-91461D01*
X-199400Y-90074D01*
X-199400Y-90074D01*
X-199400D01*
X-199402Y-89574D01*
X-199402Y110603D01*
X-199400D01*
X-199264Y111990D01*
X-198859Y113323D01*
X-198203Y114552D01*
X-197319Y115629D01*
X-196241Y116513D01*
X-195012Y117170D01*
X-193679Y117575D01*
X-192292Y117711D01*
X-192292Y117711D01*
Y117711D01*
X-191827Y117797D01*
X-191782Y117766D01*
D02*
G37*
%LPC*%
G36*
X-190174Y115852D02*
X-191507Y115720D01*
X-192789Y115332D01*
X-193970Y114700D01*
X-195005Y113851D01*
X-195855Y112815D01*
X-196486Y111634D01*
X-196875Y110353D01*
X-197006Y109020D01*
X-196875Y107687D01*
X-196486Y106405D01*
X-195855Y105224D01*
X-195005Y104189D01*
X-193970Y103339D01*
X-192789Y102708D01*
X-191507Y102319D01*
X-190174Y102188D01*
X-188841Y102319D01*
X-187560Y102708D01*
X-186378Y103339D01*
X-185343Y104189D01*
X-184494Y105224D01*
X-183862Y106405D01*
X-183473Y107687D01*
X-183342Y109020D01*
X-183473Y110353D01*
X-183862Y111634D01*
X-184494Y112815D01*
X-185343Y113851D01*
X-186378Y114700D01*
X-187560Y115332D01*
X-188841Y115720D01*
X-190174Y115852D01*
D02*
G37*
G36*
X-104750Y101766D02*
X-104829Y101734D01*
X-104937Y101689D01*
X-105126Y101614D01*
X-105257Y101488D01*
X-105375Y101386D01*
X-105491Y101300D01*
X-105603Y101227D01*
X-105713Y101168D01*
X-105819Y101121D01*
X-105923Y101086D01*
X-106025Y101061D01*
X-106126Y101047D01*
X-106253Y101041D01*
X-106297Y101020D01*
X-108311D01*
X-108359Y101041D01*
X-108535Y101046D01*
X-108670Y101057D01*
X-108776Y101075D01*
X-108849Y101094D01*
X-108872Y101104D01*
X-108933Y101216D01*
X-108993Y101360D01*
X-109003Y101383D01*
X-109031Y101394D01*
X-109045Y101421D01*
X-109219Y101472D01*
X-109385Y101541D01*
X-109413Y101530D01*
X-109443Y101538D01*
X-109601Y101452D01*
X-109768Y101383D01*
X-109780Y101355D01*
X-109806Y101340D01*
X-109813Y101316D01*
X-109813Y101316D01*
X-109829Y101264D01*
X-109829D01*
X-109831Y101258D01*
X-109857Y101167D01*
X-109918Y101020D01*
X-111988D01*
X-112378Y100942D01*
X-112709Y100721D01*
X-112838Y100592D01*
X-113059Y100261D01*
X-113137Y99871D01*
X-113059Y99481D01*
X-112838Y99150D01*
X-112507Y98929D01*
X-112117Y98851D01*
X-111727Y98929D01*
X-111650Y98980D01*
X-109918D01*
X-109857Y98833D01*
X-109806Y98660D01*
X-109780Y98645D01*
X-109768Y98617D01*
X-109601Y98548D01*
X-109443Y98462D01*
X-109413Y98470D01*
X-109385Y98459D01*
X-109219Y98528D01*
X-109045Y98579D01*
X-109031Y98606D01*
X-109003Y98617D01*
X-108933Y98784D01*
X-108872Y98896D01*
X-108849Y98906D01*
X-108776Y98925D01*
X-108670Y98943D01*
X-108535Y98954D01*
X-108359Y98959D01*
X-108311Y98980D01*
X-106297D01*
X-106253Y98959D01*
X-106126Y98953D01*
X-106025Y98939D01*
X-105923Y98914D01*
X-105819Y98879D01*
X-105713Y98832D01*
X-105603Y98773D01*
X-105491Y98700D01*
X-105375Y98614D01*
X-105257Y98512D01*
X-105126Y98386D01*
X-104937Y98311D01*
X-104750Y98234D01*
X-104745Y98236D01*
X-104740Y98234D01*
X-104554Y98315D01*
X-104367Y98392D01*
X-104365Y98397D01*
X-104360Y98399D01*
X-104329Y98479D01*
X-104286Y98588D01*
X-104209Y98775D01*
Y98980D01*
X-103500D01*
X-103110Y99058D01*
X-102779Y99279D01*
X-102558Y99610D01*
X-102480Y100000D01*
X-102558Y100390D01*
X-102779Y100721D01*
X-103110Y100942D01*
X-103500Y101020D01*
X-104209D01*
Y101225D01*
X-104286Y101412D01*
X-104360Y101601D01*
X-104365Y101603D01*
X-104367Y101608D01*
X-104554Y101685D01*
X-104740Y101766D01*
X-104745Y101764D01*
X-104750Y101766D01*
D02*
G37*
G36*
X0Y110832D02*
X-1333Y110701D01*
X-2615Y110312D01*
X-3796Y109681D01*
X-4831Y108831D01*
X-5681Y107796D01*
X-6312Y106614D01*
X-6701Y105333D01*
X-6832Y104000D01*
X-6701Y102667D01*
X-6312Y101385D01*
X-5681Y100204D01*
X-4831Y99169D01*
X-3796Y98319D01*
X-2615Y97688D01*
X-1333Y97299D01*
X0Y97168D01*
X1333Y97299D01*
X2615Y97688D01*
X3796Y98319D01*
X4831Y99169D01*
X5681Y100204D01*
X6312Y101385D01*
X6701Y102667D01*
X6832Y104000D01*
X6701Y105333D01*
X6312Y106614D01*
X5681Y107796D01*
X4831Y108831D01*
X3796Y109681D01*
X2615Y110312D01*
X1333Y110701D01*
X0Y110832D01*
D02*
G37*
G36*
X-168617Y101137D02*
X-169007Y101059D01*
X-169338Y100838D01*
X-169559Y100507D01*
X-169637Y100117D01*
Y99409D01*
X-169842D01*
X-170029Y99331D01*
X-170218Y99257D01*
X-170220Y99252D01*
X-170225Y99250D01*
X-170302Y99063D01*
X-170383Y98877D01*
X-170381Y98872D01*
X-170383Y98867D01*
X-170354Y98797D01*
Y98797D01*
X-170351Y98788D01*
X-170306Y98680D01*
X-170232Y98492D01*
X-170105Y98360D01*
X-170004Y98242D01*
X-169917Y98127D01*
X-169844Y98014D01*
X-169785Y97904D01*
X-169738Y97798D01*
X-169703Y97694D01*
X-169678Y97593D01*
X-169664Y97492D01*
X-169658Y97364D01*
X-169649Y97346D01*
X-169658Y97326D01*
X-169663Y97153D01*
X-169675Y97020D01*
X-169692Y96917D01*
X-169711Y96845D01*
X-169719Y96825D01*
X-169833Y96764D01*
X-170000Y96694D01*
X-170011Y96667D01*
X-170038Y96652D01*
X-170089Y96479D01*
X-170158Y96312D01*
X-170147Y96284D01*
X-170156Y96255D01*
X-170069Y96096D01*
X-170000Y95929D01*
X-169972Y95918D01*
X-169958Y95891D01*
X-169933Y95884D01*
X-169933Y95884D01*
X-169882Y95869D01*
X-169882Y95869D01*
X-169876Y95867D01*
X-169784Y95840D01*
X-169637Y95779D01*
Y94158D01*
X-169559Y93768D01*
X-169338Y93437D01*
X-169007Y93216D01*
X-168617Y93139D01*
X-168227Y93216D01*
X-167896Y93437D01*
X-167675Y93768D01*
X-167598Y94158D01*
Y95779D01*
X-167450Y95840D01*
X-167277Y95891D01*
X-167262Y95918D01*
X-167235Y95929D01*
X-167165Y96096D01*
X-167079Y96255D01*
X-167087Y96284D01*
X-167076Y96312D01*
X-167145Y96479D01*
X-167197Y96652D01*
X-167223Y96667D01*
X-167235Y96694D01*
X-167402Y96764D01*
X-167515Y96825D01*
X-167524Y96845D01*
X-167543Y96917D01*
X-167560Y97020D01*
X-167572Y97153D01*
X-167576Y97326D01*
X-167585Y97346D01*
X-167577Y97364D01*
X-167571Y97492D01*
X-167556Y97593D01*
X-167532Y97694D01*
X-167496Y97798D01*
X-167449Y97904D01*
X-167390Y98014D01*
X-167318Y98126D01*
X-167231Y98242D01*
X-167130Y98360D01*
X-167003Y98492D01*
X-166929Y98680D01*
X-166851Y98867D01*
X-166853Y98872D01*
X-166851Y98877D01*
X-166932Y99063D01*
X-167009Y99250D01*
X-167014Y99252D01*
X-167016Y99257D01*
X-167096Y99288D01*
X-167205Y99331D01*
X-167392Y99409D01*
X-167598D01*
Y100117D01*
X-167675Y100507D01*
X-167896Y100838D01*
X-168227Y101059D01*
X-168617Y101137D01*
D02*
G37*
G36*
X-20000Y110541D02*
X-97500D01*
X-97883Y110383D01*
X-98041Y110000D01*
Y90529D01*
X-98000Y90430D01*
X-98000Y90322D01*
X-97999Y90321D01*
X-97924Y90246D01*
X-97883Y90146D01*
X-97783Y90105D01*
X-97707Y90029D01*
X-97687Y90021D01*
X-97687Y90021D01*
X-97579Y90021D01*
X-97479Y89979D01*
X-77928D01*
X-77545Y90138D01*
X-77387Y90521D01*
Y95959D01*
X-42825D01*
X-42373Y95843D01*
X-42373Y95459D01*
Y91611D01*
X-42393Y91513D01*
Y91054D01*
X-42402Y91031D01*
X-42414Y90031D01*
X-42413Y90028D01*
X-42414Y90025D01*
X-42393Y89973D01*
Y87537D01*
X-44403Y85527D01*
X-44451Y85510D01*
X-44834Y85153D01*
X-44982Y85034D01*
X-45112Y84943D01*
X-45154Y84918D01*
X-45455D01*
X-45496Y84935D01*
X-45538Y84918D01*
X-45539D01*
X-45583Y84929D01*
X-45599Y84918D01*
X-52838D01*
Y82762D01*
X-52850Y82757D01*
X-52923Y82737D01*
X-53029Y82720D01*
X-53164Y82708D01*
X-53340Y82703D01*
X-53388Y82682D01*
X-78847D01*
X-78895Y82703D01*
X-79071Y82708D01*
X-79205Y82720D01*
X-79311Y82737D01*
X-79385Y82757D01*
X-79397Y82762D01*
Y84918D01*
X-88665D01*
Y82762D01*
X-88676Y82757D01*
X-88750Y82737D01*
X-88856Y82720D01*
X-88991Y82708D01*
X-89166Y82703D01*
X-89215Y82682D01*
X-95240D01*
X-99599Y87041D01*
X-99930Y87262D01*
X-100320Y87339D01*
X-108311D01*
X-108359Y87361D01*
X-108535Y87365D01*
X-108670Y87377D01*
X-108776Y87395D01*
X-108849Y87414D01*
X-108861Y87419D01*
Y88985D01*
X-111018D01*
X-111023Y88997D01*
X-111042Y89071D01*
X-111060Y89176D01*
X-111072Y89311D01*
X-111076Y89487D01*
X-111098Y89535D01*
Y90553D01*
X-111076Y90601D01*
X-111072Y90774D01*
X-111060Y90907D01*
X-111043Y91010D01*
X-111023Y91082D01*
X-111015Y91102D01*
X-111012Y91103D01*
X-108861D01*
Y96434D01*
X-115373D01*
Y91103D01*
X-113222D01*
X-113219Y91102D01*
X-113211Y91082D01*
X-113192Y91010D01*
X-113174Y90907D01*
X-113163Y90774D01*
X-113158Y90601D01*
X-113137Y90553D01*
Y89535D01*
X-113158Y89487D01*
X-113163Y89311D01*
X-113175Y89176D01*
X-113192Y89071D01*
X-113212Y88997D01*
X-113216Y88985D01*
X-115373D01*
Y83654D01*
X-108861D01*
Y85221D01*
X-108849Y85225D01*
X-108776Y85245D01*
X-108670Y85263D01*
X-108535Y85274D01*
X-108359Y85279D01*
X-108311Y85300D01*
X-100742D01*
X-96383Y80941D01*
X-96052Y80720D01*
X-95662Y80643D01*
X-89215D01*
X-89166Y80621D01*
X-88991Y80617D01*
X-88856Y80605D01*
X-88750Y80588D01*
X-88676Y80568D01*
X-88665Y80563D01*
Y78406D01*
X-79397D01*
Y80563D01*
X-79385Y80568D01*
X-79311Y80588D01*
X-79205Y80605D01*
X-79071Y80617D01*
X-78895Y80621D01*
X-78847Y80643D01*
X-53388D01*
X-53340Y80621D01*
X-53164Y80617D01*
X-53029Y80605D01*
X-52923Y80588D01*
X-52850Y80568D01*
X-52838Y80563D01*
Y78406D01*
X-43570D01*
Y82889D01*
X-43560Y82906D01*
X-43570Y82949D01*
Y82951D01*
X-43553Y82992D01*
X-43570Y83034D01*
Y83334D01*
X-43545Y83376D01*
X-43459Y83500D01*
X-43173Y83837D01*
X-42986Y84030D01*
X-42966Y84080D01*
X-40652Y86394D01*
X-40431Y86725D01*
X-40354Y87115D01*
Y89962D01*
X-40332Y90010D01*
X-40328Y90184D01*
X-40316Y90316D01*
X-40299Y90420D01*
X-40279Y90491D01*
X-40271Y90511D01*
X-40268Y90513D01*
X-35861D01*
X-35861Y95843D01*
X-35409Y95959D01*
X-33541D01*
Y80224D01*
X-42224Y71541D01*
X-104000D01*
X-104000Y71541D01*
X-104383Y71383D01*
X-113883Y61883D01*
X-114041Y61500D01*
X-114041Y61500D01*
Y61000D01*
X-114041Y61000D01*
Y42041D01*
X-117500D01*
X-117500Y42041D01*
X-117883Y41883D01*
X-117883Y41883D01*
X-131224Y28541D01*
X-158607Y28541D01*
X-158776Y29041D01*
X-158360Y29360D01*
X-157879Y29987D01*
X-157577Y30717D01*
X-157474Y31500D01*
X-157577Y32283D01*
X-157879Y33013D01*
X-158360Y33640D01*
X-158987Y34121D01*
X-159717Y34423D01*
X-160500Y34526D01*
X-161283Y34423D01*
X-162013Y34121D01*
X-162640Y33640D01*
X-163120Y33013D01*
X-163423Y32283D01*
X-163526Y31500D01*
X-163423Y30717D01*
X-163120Y29987D01*
X-162640Y29360D01*
X-162224Y29041D01*
X-162393Y28541D01*
X-165459D01*
Y56143D01*
X-164997Y56334D01*
X-164292Y55629D01*
X-164282Y55603D01*
X-164123Y55434D01*
X-163994Y55278D01*
X-163882Y55122D01*
X-163788Y54967D01*
X-163710Y54813D01*
X-163647Y54659D01*
X-163600Y54505D01*
X-163566Y54349D01*
X-163547Y54192D01*
X-163541Y54007D01*
X-163521Y53964D01*
X-163423Y53217D01*
X-163120Y52487D01*
X-162640Y51860D01*
X-162013Y51380D01*
X-161283Y51077D01*
X-160500Y50974D01*
X-159717Y51077D01*
X-158987Y51380D01*
X-158360Y51860D01*
X-157879Y52487D01*
X-157577Y53217D01*
X-157474Y54000D01*
X-157577Y54783D01*
X-157879Y55513D01*
X-158360Y56140D01*
X-158987Y56621D01*
X-159717Y56923D01*
X-160464Y57021D01*
X-160507Y57041D01*
X-160692Y57047D01*
X-160849Y57066D01*
X-161005Y57100D01*
X-161159Y57147D01*
X-161313Y57210D01*
X-161467Y57288D01*
X-161622Y57382D01*
X-161778Y57494D01*
X-161934Y57623D01*
X-162103Y57782D01*
X-162129Y57792D01*
X-165459Y61122D01*
Y71232D01*
X-165361D01*
Y76563D01*
X-171873D01*
Y75981D01*
X-171887Y75955D01*
X-171901Y75828D01*
X-171917Y75783D01*
X-171944Y75742D01*
X-171998Y75692D01*
X-172096Y75633D01*
X-172246Y75572D01*
X-172450Y75517D01*
X-172705Y75475D01*
X-173010Y75448D01*
X-173375Y75439D01*
X-173401Y75427D01*
X-173602D01*
X-174188Y75311D01*
X-174591Y75041D01*
X-179990D01*
X-180361Y75351D01*
X-180361Y75541D01*
Y80682D01*
X-186873D01*
Y79411D01*
X-186885Y79406D01*
X-186959Y79387D01*
X-187065Y79369D01*
X-187199Y79358D01*
X-187375Y79353D01*
X-187423Y79332D01*
X-188213D01*
X-188261Y79353D01*
X-188434Y79357D01*
X-188567Y79369D01*
X-188670Y79387D01*
X-188741Y79406D01*
X-188761Y79414D01*
X-188763Y79417D01*
Y80977D01*
X-195472D01*
Y75647D01*
X-188763D01*
Y77207D01*
X-188761Y77210D01*
X-188741Y77218D01*
X-188670Y77237D01*
X-188567Y77255D01*
X-188434Y77266D01*
X-188261Y77271D01*
X-188213Y77292D01*
X-187423D01*
X-187375Y77271D01*
X-187199Y77266D01*
X-187065Y77255D01*
X-186959Y77237D01*
X-186885Y77218D01*
X-186873Y77213D01*
Y75351D01*
X-183322D01*
X-183069Y74851D01*
X-183232Y74580D01*
X-186873D01*
Y69249D01*
X-183605D01*
X-183557Y69223D01*
X-183430Y69209D01*
X-183384Y69193D01*
X-183343Y69166D01*
X-183293Y69112D01*
X-183234Y69016D01*
X-183174Y68867D01*
X-183119Y68666D01*
X-183077Y68413D01*
X-183051Y68110D01*
X-183041Y67754D01*
Y65992D01*
X-183050Y65642D01*
X-183074Y65365D01*
X-183089Y65267D01*
X-183106Y65186D01*
X-183122Y65131D01*
X-183131Y65108D01*
X-183134Y65105D01*
X-183143Y65093D01*
X-183145Y65088D01*
X-183619Y64378D01*
X-183794Y63500D01*
X-183619Y62622D01*
X-183145Y61912D01*
X-183143Y61907D01*
X-183134Y61895D01*
X-183131Y61892D01*
X-183122Y61869D01*
X-183106Y61814D01*
X-183089Y61733D01*
X-183074Y61639D01*
X-183043Y61187D01*
X-183041Y61011D01*
Y30122D01*
X-184622Y28541D01*
X-196500D01*
X-196883Y28383D01*
X-197041Y28000D01*
Y21500D01*
X-196883Y21117D01*
X-196500Y20959D01*
X-191138D01*
X-191009Y20905D01*
X-190174Y20795D01*
X-189340Y20905D01*
X-189210Y20959D01*
X-165224D01*
X-150383Y6117D01*
X-150000Y5959D01*
X-150000Y5959D01*
X-142041D01*
Y5353D01*
X-142041Y5353D01*
X-142041Y5353D01*
Y-14244D01*
X-142114D01*
Y-20756D01*
X-141935D01*
X-141883Y-20883D01*
X-141500Y-21041D01*
X-133710D01*
X-133674Y-21130D01*
X-133620Y-21334D01*
X-133577Y-21589D01*
X-133551Y-21893D01*
X-133541Y-22258D01*
X-133529Y-22284D01*
Y-22328D01*
X-133417Y-22891D01*
X-133415Y-22918D01*
X-133695Y-23391D01*
X-137767D01*
Y-23770D01*
X-138267Y-23874D01*
X-138290Y-23822D01*
X-138367Y-23635D01*
X-138372Y-23633D01*
X-138374Y-23628D01*
X-138563Y-23554D01*
X-138750Y-23476D01*
X-138755Y-23478D01*
X-138760Y-23476D01*
X-138838Y-23510D01*
X-138945Y-23557D01*
X-139133Y-23635D01*
X-139278Y-23780D01*
X-139779Y-23279D01*
X-140110Y-23058D01*
X-140500Y-22980D01*
X-140890Y-23058D01*
X-141221Y-23279D01*
X-141442Y-23610D01*
X-141520Y-24000D01*
Y-24399D01*
X-141442Y-24789D01*
X-141221Y-25120D01*
X-140893Y-25348D01*
X-141024Y-25740D01*
X-141024Y-25740D01*
X-141023Y-25741D01*
X-141022Y-25745D01*
X-141024Y-25750D01*
X-140946Y-25937D01*
X-141394Y-26164D01*
X-143980Y-23578D01*
Y-21306D01*
X-143959Y-21258D01*
X-143954Y-21082D01*
X-143943Y-20947D01*
X-143925Y-20842D01*
X-143906Y-20768D01*
X-143901Y-20756D01*
X-142886D01*
Y-14244D01*
X-144901D01*
X-144906Y-14232D01*
X-144925Y-14158D01*
X-144943Y-14053D01*
X-144954Y-13918D01*
X-144959Y-13742D01*
X-144980Y-13694D01*
Y-4797D01*
X-144959Y-4753D01*
X-144953Y-4626D01*
X-144939Y-4525D01*
X-144914Y-4423D01*
X-144879Y-4319D01*
X-144832Y-4213D01*
X-144773Y-4103D01*
X-144701Y-3991D01*
X-144614Y-3875D01*
X-144512Y-3757D01*
X-144390Y-3630D01*
X-144378Y-3622D01*
X-143880Y-2878D01*
X-143706Y-2000D01*
X-143880Y-1122D01*
X-144378Y-378D01*
X-145122Y119D01*
X-146000Y294D01*
X-146878Y119D01*
X-147622Y-378D01*
X-148119Y-1122D01*
X-148294Y-2000D01*
X-148119Y-2878D01*
X-147622Y-3622D01*
X-147610Y-3630D01*
X-147488Y-3757D01*
X-147386Y-3875D01*
X-147300Y-3991D01*
X-147227Y-4103D01*
X-147168Y-4213D01*
X-147121Y-4319D01*
X-147086Y-4423D01*
X-147061Y-4525D01*
X-147047Y-4626D01*
X-147041Y-4753D01*
X-147020Y-4797D01*
Y-13694D01*
X-147041Y-13742D01*
X-147046Y-13918D01*
X-147057Y-14053D01*
X-147075Y-14158D01*
X-147094Y-14232D01*
X-147099Y-14244D01*
X-148216D01*
Y-20756D01*
X-146099D01*
X-146094Y-20768D01*
X-146075Y-20842D01*
X-146057Y-20947D01*
X-146046Y-21082D01*
X-146041Y-21258D01*
X-146020Y-21306D01*
Y-23508D01*
X-146520Y-23715D01*
X-149617Y-20617D01*
X-150000Y-20459D01*
X-150000Y-20459D01*
X-156000D01*
X-156383Y-20617D01*
X-156541Y-21000D01*
Y-24959D01*
X-157221D01*
X-157294Y-24915D01*
X-157419Y-24828D01*
X-157557Y-24720D01*
X-157653Y-24694D01*
X-158122Y-24381D01*
X-159000Y-24206D01*
X-159878Y-24381D01*
X-160622Y-24878D01*
X-160676Y-24959D01*
X-163000D01*
X-163383Y-25117D01*
X-163541Y-25500D01*
Y-29000D01*
X-163383Y-29383D01*
X-163000Y-29541D01*
X-158636D01*
X-158445Y-30003D01*
X-164221Y-35779D01*
X-164442Y-36110D01*
X-164520Y-36500D01*
Y-51854D01*
X-164442Y-52245D01*
X-164221Y-52575D01*
X-152220Y-64577D01*
X-152202Y-64624D01*
X-151848Y-65006D01*
X-151730Y-65153D01*
X-151641Y-65281D01*
X-151610Y-65335D01*
Y-65600D01*
X-151639Y-65670D01*
X-151622Y-65711D01*
X-151633Y-65755D01*
X-151616Y-65781D01*
X-151624Y-65795D01*
X-151611Y-65839D01*
X-151627Y-65882D01*
X-151610Y-65917D01*
Y-67278D01*
X-151780Y-67573D01*
X-152096Y-68024D01*
X-153016Y-69109D01*
X-153609Y-69722D01*
X-153611Y-69727D01*
X-156442Y-72558D01*
X-156884Y-73220D01*
X-157039Y-74000D01*
Y-81685D01*
X-157041Y-81689D01*
X-157071Y-83205D01*
X-157122Y-83894D01*
X-157154Y-84129D01*
X-157166Y-84188D01*
X-157346D01*
Y-84629D01*
X-157375Y-84699D01*
X-157346Y-84770D01*
Y-92275D01*
X-149259D01*
Y-84188D01*
X-151916D01*
X-151942Y-84174D01*
X-152163Y-84150D01*
X-152295Y-84103D01*
X-152411Y-84025D01*
X-152526Y-83901D01*
X-152640Y-83713D01*
X-152746Y-83453D01*
X-152835Y-83120D01*
X-152903Y-82715D01*
X-152944Y-82241D01*
X-152959Y-81686D01*
X-152961Y-81682D01*
Y-74845D01*
X-150374Y-72258D01*
X-150370Y-72256D01*
X-149958Y-71862D01*
X-149564Y-71520D01*
X-149178Y-71221D01*
X-148803Y-70965D01*
X-148440Y-70752D01*
X-148087Y-70580D01*
X-147746Y-70449D01*
X-147417Y-70358D01*
X-147100Y-70304D01*
X-146760Y-70284D01*
X-146702Y-70256D01*
X-146280D01*
Y-69797D01*
X-146251Y-69717D01*
X-146252Y-69715D01*
X-146251Y-69713D01*
X-146280Y-69654D01*
Y-63744D01*
X-149563D01*
X-149600Y-63722D01*
X-149643Y-63732D01*
X-149684Y-63715D01*
X-149755Y-63744D01*
X-150020D01*
X-150074Y-63713D01*
X-150196Y-63628D01*
X-150530Y-63345D01*
X-150722Y-63160D01*
X-150773Y-63140D01*
X-162480Y-51432D01*
Y-36922D01*
X-156829Y-31271D01*
X-155269D01*
X-155043Y-31771D01*
X-155424Y-32204D01*
X-155547Y-32328D01*
X-155568Y-32380D01*
X-157221Y-34033D01*
X-157442Y-34364D01*
X-157520Y-34754D01*
Y-36000D01*
X-157442Y-36390D01*
X-157221Y-36721D01*
X-154905Y-39037D01*
X-154887Y-39086D01*
X-154808Y-39169D01*
X-154742Y-39249D01*
X-154586Y-39467D01*
X-154518Y-39574D01*
X-154187Y-40218D01*
X-154107Y-40400D01*
X-154107Y-40400D01*
X-154107Y-40401D01*
X-153808Y-40687D01*
X-153808Y-40687D01*
X-153808Y-40688D01*
X-153394Y-40679D01*
X-153394Y-40679D01*
X-153394Y-40679D01*
X-153335Y-40618D01*
X-153250Y-40530D01*
X-153202Y-40479D01*
X-153000Y-40520D01*
X-152000D01*
X-151610Y-40442D01*
X-151279Y-40221D01*
X-151058Y-39890D01*
X-150980Y-39500D01*
X-151058Y-39110D01*
X-151279Y-38779D01*
X-151610Y-38558D01*
X-151842Y-38512D01*
X-152219Y-38103D01*
X-152223Y-37905D01*
X-152220Y-37706D01*
X-152227Y-37699D01*
X-152227Y-37689D01*
X-152371Y-37551D01*
X-152509Y-37409D01*
X-152519Y-37409D01*
X-152526Y-37402D01*
X-152593Y-37404D01*
Y-37404D01*
X-152612Y-37404D01*
X-152725Y-37406D01*
X-152924Y-37404D01*
X-153056Y-37457D01*
X-153154Y-37484D01*
X-153240Y-37499D01*
X-153315Y-37501D01*
X-153383Y-37495D01*
X-153448Y-37480D01*
X-153513Y-37454D01*
X-153582Y-37416D01*
X-153656Y-37363D01*
X-153755Y-37274D01*
X-153801Y-37257D01*
X-155411Y-35647D01*
Y-35107D01*
X-154266Y-33962D01*
X-154236Y-33954D01*
X-154217Y-33922D01*
X-154182Y-33908D01*
X-153951Y-33684D01*
X-153537Y-33324D01*
X-153369Y-33197D01*
X-153359Y-33191D01*
X-151717D01*
X-151327Y-33113D01*
X-150996Y-32892D01*
X-150775Y-32561D01*
X-150698Y-32171D01*
X-150775Y-31781D01*
X-150895Y-31601D01*
X-150698Y-31128D01*
X-150674Y-31101D01*
X-148467D01*
Y-30628D01*
X-148005Y-30437D01*
X-147020Y-31422D01*
Y-54500D01*
X-146942Y-54890D01*
X-146721Y-55221D01*
X-143020Y-58922D01*
Y-63194D01*
X-143041Y-63242D01*
X-143046Y-63418D01*
X-143057Y-63553D01*
X-143075Y-63658D01*
X-143094Y-63732D01*
X-143099Y-63744D01*
X-144720D01*
Y-70256D01*
X-144246D01*
X-144229Y-70266D01*
X-144186Y-70256D01*
X-144144Y-70273D01*
X-144103Y-70256D01*
X-142741D01*
X-142401Y-70451D01*
X-141953Y-70764D01*
X-140881Y-71672D01*
X-140278Y-72255D01*
X-140273Y-72256D01*
X-135656Y-76873D01*
Y-82876D01*
X-135658Y-82881D01*
X-135668Y-83225D01*
X-135694Y-83534D01*
X-135738Y-83823D01*
X-135798Y-84091D01*
X-135873Y-84340D01*
X-135965Y-84569D01*
X-136070Y-84780D01*
X-136191Y-84974D01*
X-136326Y-85151D01*
X-136495Y-85333D01*
X-136500Y-85347D01*
X-136501Y-85348D01*
X-137149Y-86192D01*
X-137556Y-87176D01*
X-137695Y-88231D01*
X-137556Y-89287D01*
X-137149Y-90270D01*
X-136501Y-91115D01*
X-135656Y-91763D01*
X-134673Y-92171D01*
X-133617Y-92309D01*
X-132562Y-92171D01*
X-131578Y-91763D01*
X-130734Y-91115D01*
X-130085Y-90270D01*
X-129678Y-89287D01*
X-129539Y-88231D01*
X-129678Y-87176D01*
X-130085Y-86192D01*
X-130734Y-85348D01*
X-130735Y-85347D01*
X-130740Y-85333D01*
X-130908Y-85151D01*
X-131044Y-84974D01*
X-131164Y-84780D01*
X-131270Y-84569D01*
X-131361Y-84340D01*
X-131437Y-84092D01*
X-131497Y-83823D01*
X-131540Y-83534D01*
X-131567Y-83225D01*
X-131576Y-82881D01*
X-131578Y-82876D01*
Y-76028D01*
X-131733Y-75248D01*
X-132175Y-74586D01*
X-137383Y-69379D01*
X-137384Y-69375D01*
X-138476Y-68200D01*
X-138878Y-67699D01*
X-139195Y-67245D01*
X-139390Y-66904D01*
Y-65543D01*
X-139373Y-65501D01*
X-139390Y-65460D01*
X-139379Y-65416D01*
X-139390Y-65399D01*
Y-63744D01*
X-140901D01*
X-140906Y-63732D01*
X-140925Y-63658D01*
X-140943Y-63553D01*
X-140954Y-63418D01*
X-140959Y-63242D01*
X-140980Y-63194D01*
Y-58500D01*
X-141058Y-58110D01*
X-141279Y-57779D01*
X-144980Y-54078D01*
Y-52746D01*
X-144480Y-52647D01*
X-144383Y-52883D01*
X-144383D01*
X-118883Y-78383D01*
X-118541Y-78524D01*
Y-100000D01*
X-118383Y-100383D01*
X-118383Y-100383D01*
X-117383Y-101383D01*
X-117000Y-101541D01*
X-117000Y-101541D01*
X-97500D01*
X-97117Y-101383D01*
X-96959Y-101000D01*
Y-58500D01*
X-97117Y-58117D01*
X-97500Y-57959D01*
X-126276D01*
X-140459Y-43776D01*
Y-30690D01*
X-139959Y-30483D01*
X-139520Y-30922D01*
X-139189Y-31143D01*
X-138799Y-31221D01*
X-138246D01*
X-137767Y-31271D01*
Y-33071D01*
X-134970D01*
X-134907Y-33113D01*
X-134517Y-33191D01*
X-129306D01*
X-129258Y-33212D01*
X-129082Y-33217D01*
X-128947Y-33229D01*
X-128842Y-33246D01*
X-128768Y-33266D01*
X-128756Y-33270D01*
Y-34665D01*
X-122244D01*
Y-33099D01*
X-122232Y-33094D01*
X-122158Y-33075D01*
X-122053Y-33057D01*
X-121918Y-33046D01*
X-121742Y-33041D01*
X-121694Y-33020D01*
X-105000D01*
X-104610Y-32942D01*
X-104279Y-32721D01*
X-82578Y-11020D01*
X-70500D01*
X-70110Y-10942D01*
X-69779Y-10721D01*
X-62279Y-3221D01*
X-62058Y-2890D01*
X-61980Y-2500D01*
Y24500D01*
X-62058Y24890D01*
X-62279Y25221D01*
X-68779Y31721D01*
X-69110Y31942D01*
X-69500Y32020D01*
X-72227D01*
X-72273Y32041D01*
X-72450Y32047D01*
X-72601Y32064D01*
X-72744Y32091D01*
X-72881Y32129D01*
X-73012Y32177D01*
X-73140Y32236D01*
X-73263Y32306D01*
X-73384Y32388D01*
X-73502Y32483D01*
X-73631Y32603D01*
X-73679Y32621D01*
X-75779Y34721D01*
X-76110Y34942D01*
X-76500Y35020D01*
X-81385D01*
X-81577Y35482D01*
X-72078Y44980D01*
X-39000D01*
X-38610Y45058D01*
X-38279Y45279D01*
X-4578Y78980D01*
X-4346D01*
X-4306Y78960D01*
X-4140Y78949D01*
X-3997Y78920D01*
X-3837Y78868D01*
X-3660Y78791D01*
X-3467Y78687D01*
X-3260Y78554D01*
X-3046Y78396D01*
X-2561Y77978D01*
X-2305Y77726D01*
X-2269Y77712D01*
X-1612Y77208D01*
X-835Y76885D01*
X0Y76776D01*
X835Y76885D01*
X1612Y77208D01*
X2280Y77720D01*
X2792Y78388D01*
X3115Y79165D01*
X3224Y80000D01*
X3115Y80835D01*
X2792Y81612D01*
X2280Y82280D01*
X1612Y82792D01*
X835Y83115D01*
X0Y83224D01*
X-835Y83115D01*
X-1612Y82792D01*
X-2259Y82296D01*
X-2297Y82281D01*
X-2813Y81794D01*
X-3040Y81607D01*
X-3260Y81446D01*
X-3467Y81313D01*
X-3660Y81209D01*
X-3837Y81132D01*
X-3997Y81080D01*
X-4140Y81051D01*
X-4306Y81040D01*
X-4346Y81020D01*
X-5000D01*
X-5390Y80942D01*
X-5721Y80721D01*
X-39422Y47020D01*
X-72500D01*
X-72890Y46942D01*
X-73221Y46721D01*
X-84321Y35621D01*
X-84369Y35603D01*
X-84498Y35483D01*
X-84616Y35388D01*
X-84737Y35306D01*
X-84860Y35236D01*
X-84988Y35177D01*
X-85119Y35129D01*
X-85256Y35091D01*
X-85400Y35064D01*
X-85550Y35047D01*
X-85726Y35041D01*
X-85742Y35034D01*
X-85758Y35039D01*
X-85794Y35020D01*
X-87233D01*
X-87281Y35041D01*
X-87454Y35046D01*
X-87587Y35057D01*
X-87690Y35074D01*
X-87762Y35094D01*
X-87782Y35102D01*
X-87783Y35105D01*
Y38256D01*
X-87783D01*
X-87935Y38623D01*
X-87279Y39279D01*
X-87058Y39610D01*
X-86980Y40000D01*
Y43753D01*
X-86959Y43801D01*
X-86954Y43974D01*
X-86943Y44107D01*
X-86926Y44210D01*
X-86906Y44282D01*
X-86898Y44302D01*
X-86895Y44303D01*
X-84303D01*
Y50697D01*
X-90697D01*
Y44303D01*
X-89105D01*
X-89102Y44302D01*
X-89094Y44282D01*
X-89074Y44210D01*
X-89057Y44107D01*
X-89046Y43974D01*
X-89041Y43801D01*
X-89020Y43753D01*
Y40422D01*
X-90228Y39213D01*
X-90279Y39194D01*
X-90478Y39001D01*
X-90850Y38681D01*
X-91010Y38562D01*
X-91161Y38463D01*
X-91298Y38387D01*
X-91419Y38332D01*
X-91521Y38297D01*
X-91605Y38280D01*
X-91711Y38272D01*
X-91742Y38256D01*
X-93114D01*
Y33855D01*
X-93614Y33806D01*
X-93678Y34125D01*
X-93886Y34436D01*
Y38256D01*
X-99217D01*
Y31744D01*
X-96620D01*
Y31172D01*
X-96504Y30586D01*
X-96172Y30090D01*
X-95000Y28919D01*
X-94677Y28702D01*
X-94828Y28202D01*
X-97452Y28202D01*
X-97516Y28675D01*
Y28952D01*
X-98748D01*
X-98751Y28964D01*
X-98765Y29057D01*
X-98773Y29176D01*
X-98777Y29330D01*
X-98821Y29429D01*
X-98876Y29708D01*
X-99097Y30039D01*
X-99779Y30721D01*
X-100110Y30942D01*
X-100500Y31020D01*
X-101950D01*
X-102125Y31244D01*
X-101881Y31744D01*
X-101284D01*
Y38256D01*
X-103094D01*
X-103099Y38268D01*
X-103118Y38342D01*
X-103136Y38447D01*
X-103147Y38582D01*
X-103152Y38758D01*
X-103173Y38806D01*
Y40385D01*
X-99852Y43706D01*
X-99809Y43720D01*
X-99684Y43829D01*
X-99562Y43910D01*
X-99413Y43987D01*
X-99233Y44057D01*
X-99023Y44120D01*
X-98783Y44172D01*
X-98520Y44212D01*
X-97881Y44259D01*
X-97522Y44262D01*
X-97486Y44277D01*
X-96665Y44385D01*
X-95888Y44708D01*
X-95220Y45220D01*
X-94708Y45888D01*
X-94385Y46665D01*
X-94279Y47474D01*
X-94262Y47512D01*
X-94242Y48220D01*
X-94213Y48513D01*
X-94172Y48783D01*
X-94120Y49023D01*
X-94057Y49233D01*
X-93987Y49413D01*
X-93910Y49562D01*
X-93829Y49684D01*
X-93720Y49809D01*
X-93706Y49852D01*
X-86578Y56980D01*
X-38000D01*
X-37610Y57058D01*
X-37279Y57279D01*
X-5578Y88980D01*
X-3747D01*
X-3699Y88959D01*
X-3523Y88954D01*
X-3388Y88943D01*
X-3283Y88925D01*
X-3209Y88906D01*
X-3197Y88901D01*
Y86803D01*
X3197D01*
Y93197D01*
X-3197D01*
Y91099D01*
X-3209Y91094D01*
X-3283Y91075D01*
X-3388Y91057D01*
X-3523Y91046D01*
X-3699Y91041D01*
X-3747Y91020D01*
X-6000D01*
X-6390Y90942D01*
X-6721Y90721D01*
X-38422Y59020D01*
X-87000D01*
X-87390Y58942D01*
X-87721Y58721D01*
X-95148Y51294D01*
X-95191Y51280D01*
X-95316Y51171D01*
X-95438Y51090D01*
X-95587Y51013D01*
X-95767Y50943D01*
X-95977Y50880D01*
X-96217Y50828D01*
X-96480Y50788D01*
X-97119Y50741D01*
X-97478Y50738D01*
X-97514Y50723D01*
X-98335Y50615D01*
X-99112Y50292D01*
X-99780Y49780D01*
X-100292Y49112D01*
X-100615Y48335D01*
X-100721Y47526D01*
X-100738Y47488D01*
X-100758Y46780D01*
X-100786Y46487D01*
X-100828Y46217D01*
X-100880Y45977D01*
X-100943Y45767D01*
X-101013Y45587D01*
X-101090Y45438D01*
X-101171Y45316D01*
X-101280Y45191D01*
X-101294Y45148D01*
X-104914Y41528D01*
X-105135Y41197D01*
X-105212Y40807D01*
Y38806D01*
X-105234Y38758D01*
X-105238Y38582D01*
X-105250Y38447D01*
X-105268Y38342D01*
X-105287Y38268D01*
X-105292Y38256D01*
X-106614D01*
X-106959Y38613D01*
Y42860D01*
X-105946Y44684D01*
X-105888Y44708D01*
X-105220Y45220D01*
X-104708Y45888D01*
X-104385Y46665D01*
X-104276Y47500D01*
X-104385Y48335D01*
X-104459Y48512D01*
Y60276D01*
X-100776Y63959D01*
X-38500D01*
X-38500Y63959D01*
X-38117Y64117D01*
X-27117Y75117D01*
X-26959Y75500D01*
X-26959Y75500D01*
Y80000D01*
Y88795D01*
X-20638Y95959D01*
X-20000D01*
X-19617Y96117D01*
X-19459Y96500D01*
Y110000D01*
X-19617Y110383D01*
X-20000Y110541D01*
D02*
G37*
G36*
X-165361Y89934D02*
X-171873D01*
Y84603D01*
X-169716D01*
X-169712Y84591D01*
X-169692Y84518D01*
X-169675Y84412D01*
X-169663Y84277D01*
X-169658Y84101D01*
X-169637Y84053D01*
Y83216D01*
X-169658Y83167D01*
X-169663Y82991D01*
X-169675Y82857D01*
X-169692Y82751D01*
X-169712Y82677D01*
X-169716Y82665D01*
X-171873D01*
Y81099D01*
X-171885Y81094D01*
X-171959Y81075D01*
X-172064Y81057D01*
X-172199Y81046D01*
X-172375Y81041D01*
X-172423Y81020D01*
X-173324D01*
X-173714Y80942D01*
X-173925Y80801D01*
X-174020Y80772D01*
X-174028Y80758D01*
X-174042Y80753D01*
X-174126Y80676D01*
X-174186Y80631D01*
X-174240Y80600D01*
X-174288Y80579D01*
X-174331Y80567D01*
X-174373Y80560D01*
X-174417Y80560D01*
X-174468Y80566D01*
X-174528Y80581D01*
X-174610Y80611D01*
X-174622Y80619D01*
X-174660Y80627D01*
X-174662Y80629D01*
X-174667Y80628D01*
X-175500Y80794D01*
X-176378Y80619D01*
X-177122Y80122D01*
X-177620Y79378D01*
X-177794Y78500D01*
X-177620Y77622D01*
X-177122Y76878D01*
X-176378Y76381D01*
X-175500Y76206D01*
X-174622Y76381D01*
X-173878Y76878D01*
X-173380Y77622D01*
X-173300Y78029D01*
X-173249Y78093D01*
X-173252Y78119D01*
X-173237Y78141D01*
X-173214Y78264D01*
X-173187Y78366D01*
X-173153Y78468D01*
X-173110Y78570D01*
X-173058Y78672D01*
X-172998Y78775D01*
X-172932Y78872D01*
X-172844Y78980D01*
X-172423D01*
X-172375Y78959D01*
X-172199Y78954D01*
X-172064Y78943D01*
X-171959Y78925D01*
X-171885Y78906D01*
X-171873Y78901D01*
Y77335D01*
X-165361D01*
Y80562D01*
X-165347Y80568D01*
X-165274Y80588D01*
X-165169Y80605D01*
X-165034Y80617D01*
X-164859Y80621D01*
X-164811Y80643D01*
X-164715D01*
X-164666Y80621D01*
X-164491Y80617D01*
X-164356Y80605D01*
X-164250Y80588D01*
X-164176Y80568D01*
X-164164Y80563D01*
Y78406D01*
X-154897D01*
Y80563D01*
X-154885Y80568D01*
X-154811Y80588D01*
X-154705Y80605D01*
X-154571Y80617D01*
X-154395Y80621D01*
X-154347Y80643D01*
X-128888D01*
X-128840Y80621D01*
X-128664Y80617D01*
X-128529Y80605D01*
X-128423Y80588D01*
X-128350Y80568D01*
X-128338Y80563D01*
Y78406D01*
X-119070D01*
Y84918D01*
X-128338D01*
Y82762D01*
X-128350Y82757D01*
X-128423Y82737D01*
X-128529Y82720D01*
X-128664Y82708D01*
X-128840Y82703D01*
X-128888Y82682D01*
X-154347D01*
X-154395Y82703D01*
X-154571Y82708D01*
X-154705Y82720D01*
X-154811Y82737D01*
X-154885Y82757D01*
X-154897Y82762D01*
Y84918D01*
X-164164D01*
Y82762D01*
X-164176Y82757D01*
X-164250Y82737D01*
X-164356Y82720D01*
X-164491Y82708D01*
X-164667Y82703D01*
X-164715Y82682D01*
X-164821D01*
X-164873Y82704D01*
X-164875Y82703D01*
X-164877Y82704D01*
X-165837Y82698D01*
X-165849Y82693D01*
X-165861Y82697D01*
X-165891Y82696D01*
X-165920Y82682D01*
X-165926D01*
X-165954Y82688D01*
X-165965Y82687D01*
X-165972Y82682D01*
X-166955D01*
X-167038Y82665D01*
X-167518D01*
X-167523Y82677D01*
X-167543Y82751D01*
X-167560Y82857D01*
X-167572Y82991D01*
X-167576Y83167D01*
X-167598Y83216D01*
Y84053D01*
X-167576Y84101D01*
X-167572Y84277D01*
X-167560Y84412D01*
X-167543Y84518D01*
X-167523Y84591D01*
X-167518Y84603D01*
X-165361D01*
Y89934D01*
D02*
G37*
G36*
X-108861Y82883D02*
X-115373D01*
Y79116D01*
X-115399Y79028D01*
X-115377Y78986D01*
X-115383Y78939D01*
X-115373Y78927D01*
Y78720D01*
X-115445Y78617D01*
X-115753Y78258D01*
X-115957Y78047D01*
X-115977Y77996D01*
X-120743Y73231D01*
X-120964Y72900D01*
X-121041Y72510D01*
Y61901D01*
X-134743Y48199D01*
X-134789Y48182D01*
X-134883Y48097D01*
X-134965Y48035D01*
X-135055Y47981D01*
X-135153Y47932D01*
X-135261Y47890D01*
X-135380Y47855D01*
X-135511Y47827D01*
X-135654Y47806D01*
X-135810Y47794D01*
X-135985Y47791D01*
X-136000Y47794D01*
X-136878Y47620D01*
X-137622Y47122D01*
X-138119Y46378D01*
X-138294Y45500D01*
X-138119Y44622D01*
X-137622Y43878D01*
X-136878Y43380D01*
X-136000Y43206D01*
X-135122Y43380D01*
X-134378Y43878D01*
X-133880Y44622D01*
X-133706Y45500D01*
X-133709Y45515D01*
X-133706Y45690D01*
X-133694Y45846D01*
X-133673Y45989D01*
X-133645Y46120D01*
X-133610Y46239D01*
X-133568Y46347D01*
X-133519Y46446D01*
X-133465Y46535D01*
X-133403Y46617D01*
X-133318Y46711D01*
X-133301Y46757D01*
X-119301Y60757D01*
X-119080Y61088D01*
X-119002Y61478D01*
Y72088D01*
X-114206Y76884D01*
X-114204Y76884D01*
X-114199Y76890D01*
X-114142Y76947D01*
X-114092Y76967D01*
X-113914Y77139D01*
X-113756Y77277D01*
X-113615Y77388D01*
X-113493Y77472D01*
X-113392Y77529D01*
X-113339Y77552D01*
X-112985D01*
X-112908Y77543D01*
X-112896Y77552D01*
X-108861D01*
Y82883D01*
D02*
G37*
G36*
X0Y73224D02*
X-835Y73115D01*
X-1612Y72792D01*
X-2280Y72280D01*
X-2792Y71612D01*
X-3115Y70835D01*
X-3224Y70000D01*
X-3115Y69165D01*
X-2792Y68388D01*
X-2280Y67720D01*
X-1612Y67208D01*
X-835Y66885D01*
X0Y66776D01*
X835Y66885D01*
X1612Y67208D01*
X2280Y67720D01*
X2792Y68388D01*
X3115Y69165D01*
X3224Y70000D01*
X3115Y70835D01*
X2792Y71612D01*
X2280Y72280D01*
X1612Y72792D01*
X835Y73115D01*
X0Y73224D01*
D02*
G37*
G36*
X-191428Y72245D02*
X-192117D01*
X-192507Y72167D01*
X-192838Y71946D01*
X-193059Y71615D01*
X-193137Y71225D01*
X-193059Y70835D01*
X-192838Y70504D01*
X-192507Y70283D01*
X-192117Y70206D01*
X-191851D01*
X-191138Y69493D01*
X-191142Y69470D01*
X-191213Y69303D01*
X-191301Y69145D01*
X-191292Y69116D01*
X-191304Y69088D01*
X-191236Y68921D01*
X-191187Y68747D01*
X-191160Y68733D01*
X-191149Y68704D01*
X-190982Y68634D01*
X-190867Y68570D01*
X-190857Y68546D01*
X-190838Y68472D01*
X-190820Y68367D01*
X-190808Y68233D01*
X-190804Y68058D01*
X-190782Y68010D01*
Y66333D01*
X-190705Y65943D01*
X-190484Y65612D01*
X-189674Y64802D01*
X-189657Y64756D01*
X-189571Y64662D01*
X-189511Y64580D01*
X-189457Y64492D01*
X-189411Y64396D01*
X-189371Y64290D01*
X-189338Y64173D01*
X-189313Y64045D01*
X-189296Y63905D01*
X-189288Y63752D01*
X-189290Y63573D01*
X-189214Y63385D01*
X-189142Y63196D01*
X-189137Y63193D01*
X-189135Y63188D01*
X-188949Y63109D01*
X-188764Y63026D01*
X-188759Y63028D01*
X-188754Y63026D01*
X-188675Y63058D01*
X-188566Y63102D01*
X-188377Y63174D01*
X-188207Y63335D01*
X-187863Y62991D01*
X-187721Y62779D01*
X-187390Y62558D01*
X-187000Y62480D01*
X-186610Y62558D01*
X-186279Y62779D01*
X-186058Y63110D01*
X-185980Y63500D01*
Y63570D01*
X-186058Y63961D01*
X-186279Y64291D01*
X-186600Y64612D01*
X-186596Y64856D01*
X-186513Y65042D01*
X-186427Y65225D01*
X-186429Y65230D01*
X-186427Y65234D01*
X-186499Y65424D01*
X-186568Y65615D01*
X-186573Y65617D01*
X-186574Y65621D01*
X-186652Y65656D01*
X-186760Y65704D01*
X-186943Y65790D01*
X-187128Y65799D01*
X-187286Y65815D01*
X-187432Y65839D01*
X-187566Y65870D01*
X-187687Y65908D01*
X-187798Y65953D01*
X-187898Y66003D01*
X-187988Y66059D01*
X-188070Y66121D01*
X-188164Y66206D01*
X-188211Y66223D01*
X-188743Y66756D01*
Y68020D01*
X-188722Y68072D01*
X-188723Y68075D01*
X-188722Y68079D01*
X-188734Y69078D01*
X-188743Y69101D01*
Y69560D01*
X-188821Y69950D01*
X-189042Y70281D01*
X-190707Y71946D01*
X-191038Y72167D01*
X-191428Y72245D01*
D02*
G37*
G36*
X-186977Y57217D02*
X-193371D01*
Y50823D01*
X-186977D01*
Y57217D01*
D02*
G37*
G36*
X0Y53224D02*
X-835Y53115D01*
X-1612Y52792D01*
X-2280Y52280D01*
X-2792Y51612D01*
X-3115Y50835D01*
X-3224Y50000D01*
X-3115Y49165D01*
X-2792Y48388D01*
X-2280Y47720D01*
X-1612Y47207D01*
X-835Y46885D01*
X0Y46776D01*
X835Y46885D01*
X1612Y47207D01*
X2280Y47720D01*
X2792Y48388D01*
X3115Y49165D01*
X3224Y50000D01*
X3115Y50835D01*
X2792Y51612D01*
X2280Y52280D01*
X1612Y52792D01*
X835Y53115D01*
X0Y53224D01*
D02*
G37*
G36*
X-160500Y49526D02*
X-161283Y49423D01*
X-162013Y49121D01*
X-162640Y48640D01*
X-163120Y48013D01*
X-163423Y47283D01*
X-163526Y46500D01*
X-163423Y45717D01*
X-163120Y44987D01*
X-162640Y44360D01*
X-162013Y43880D01*
X-161283Y43577D01*
X-160500Y43474D01*
X-159717Y43577D01*
X-158987Y43880D01*
X-158360Y44360D01*
X-157879Y44987D01*
X-157577Y45717D01*
X-157474Y46500D01*
X-157577Y47283D01*
X-157879Y48013D01*
X-158360Y48640D01*
X-158987Y49121D01*
X-159717Y49423D01*
X-160500Y49526D01*
D02*
G37*
G36*
X-190174Y47244D02*
X-191009Y47134D01*
X-191786Y46812D01*
X-192454Y46300D01*
X-192967Y45632D01*
X-193289Y44854D01*
X-193399Y44020D01*
X-193289Y43185D01*
X-192967Y42408D01*
X-192454Y41740D01*
X-191786Y41227D01*
X-191009Y40905D01*
X-190174Y40795D01*
X-189340Y40905D01*
X-188562Y41227D01*
X-187894Y41740D01*
X-187382Y42408D01*
X-187060Y43185D01*
X-186950Y44020D01*
X-187060Y44854D01*
X-187382Y45632D01*
X-187894Y46300D01*
X-188562Y46812D01*
X-189340Y47134D01*
X-190174Y47244D01*
D02*
G37*
G36*
X0Y43224D02*
X-835Y43115D01*
X-1612Y42792D01*
X-2280Y42280D01*
X-2792Y41612D01*
X-3115Y40835D01*
X-3224Y40000D01*
X-3115Y39165D01*
X-2792Y38388D01*
X-2280Y37720D01*
X-1612Y37207D01*
X-835Y36885D01*
X0Y36776D01*
X835Y36885D01*
X1612Y37207D01*
X2280Y37720D01*
X2792Y38388D01*
X3115Y39165D01*
X3224Y40000D01*
X3115Y40835D01*
X2792Y41612D01*
X2280Y42280D01*
X1612Y42792D01*
X835Y43115D01*
X0Y43224D01*
D02*
G37*
G36*
X-160500Y42026D02*
X-161283Y41923D01*
X-162013Y41620D01*
X-162640Y41140D01*
X-163120Y40513D01*
X-163423Y39783D01*
X-163526Y39000D01*
X-163423Y38217D01*
X-163120Y37487D01*
X-162640Y36860D01*
X-162013Y36380D01*
X-161283Y36077D01*
X-160500Y35974D01*
X-159717Y36077D01*
X-158987Y36380D01*
X-158360Y36860D01*
X-157879Y37487D01*
X-157577Y38217D01*
X-157474Y39000D01*
X-157577Y39783D01*
X-157879Y40513D01*
X-158360Y41140D01*
X-158987Y41620D01*
X-159717Y41923D01*
X-160500Y42026D01*
D02*
G37*
G36*
X-190174Y37244D02*
X-191009Y37134D01*
X-191786Y36812D01*
X-192454Y36300D01*
X-192967Y35632D01*
X-193289Y34854D01*
X-193399Y34020D01*
X-193289Y33185D01*
X-192967Y32408D01*
X-192454Y31740D01*
X-191786Y31227D01*
X-191009Y30905D01*
X-190174Y30795D01*
X-189340Y30905D01*
X-188562Y31227D01*
X-187894Y31740D01*
X-187382Y32408D01*
X-187060Y33185D01*
X-186950Y34020D01*
X-187060Y34854D01*
X-187382Y35632D01*
X-187894Y36300D01*
X-188562Y36812D01*
X-189340Y37134D01*
X-190174Y37244D01*
D02*
G37*
G36*
X0Y33224D02*
X-835Y33115D01*
X-1612Y32792D01*
X-2280Y32280D01*
X-2792Y31612D01*
X-3115Y30835D01*
X-3224Y30000D01*
X-3115Y29165D01*
X-2792Y28388D01*
X-2280Y27720D01*
X-1612Y27207D01*
X-835Y26885D01*
X0Y26776D01*
X835Y26885D01*
X1612Y27207D01*
X2280Y27720D01*
X2792Y28388D01*
X3115Y29165D01*
X3224Y30000D01*
X3115Y30835D01*
X2792Y31612D01*
X2280Y32280D01*
X1612Y32792D01*
X835Y33115D01*
X0Y33224D01*
D02*
G37*
G36*
X-190174Y17244D02*
X-191009Y17134D01*
X-191786Y16812D01*
X-192454Y16300D01*
X-192967Y15632D01*
X-193289Y14854D01*
X-193399Y14020D01*
X-193289Y13185D01*
X-192967Y12408D01*
X-192454Y11740D01*
X-191786Y11227D01*
X-191009Y10905D01*
X-190174Y10795D01*
X-189340Y10905D01*
X-188562Y11227D01*
X-187894Y11740D01*
X-187382Y12408D01*
X-187060Y13185D01*
X-186950Y14020D01*
X-187060Y14854D01*
X-187382Y15632D01*
X-187894Y16300D01*
X-188562Y16812D01*
X-189340Y17134D01*
X-190174Y17244D01*
D02*
G37*
G36*
X0Y13224D02*
X-835Y13115D01*
X-1612Y12792D01*
X-2280Y12280D01*
X-2792Y11612D01*
X-3115Y10835D01*
X-3224Y10000D01*
X-3115Y9165D01*
X-2792Y8388D01*
X-2280Y7720D01*
X-1612Y7208D01*
X-835Y6885D01*
X0Y6776D01*
X835Y6885D01*
X1612Y7208D01*
X2280Y7720D01*
X2792Y8388D01*
X3115Y9165D01*
X3224Y10000D01*
X3115Y10835D01*
X2792Y11612D01*
X2280Y12280D01*
X1612Y12792D01*
X835Y13115D01*
X0Y13224D01*
D02*
G37*
G36*
Y3224D02*
X-835Y3115D01*
X-1612Y2792D01*
X-2280Y2280D01*
X-2792Y1612D01*
X-3115Y835D01*
X-3224Y0D01*
X-3115Y-835D01*
X-2792Y-1612D01*
X-2280Y-2280D01*
X-1612Y-2792D01*
X-835Y-3115D01*
X0Y-3224D01*
X835Y-3115D01*
X1612Y-2792D01*
X2280Y-2280D01*
X2792Y-1612D01*
X3115Y-835D01*
X3224Y0D01*
X3115Y835D01*
X2792Y1612D01*
X2280Y2280D01*
X1612Y2792D01*
X835Y3115D01*
X0Y3224D01*
D02*
G37*
G36*
X3197Y-12787D02*
X-3197D01*
Y-19181D01*
X3197D01*
Y-12787D01*
D02*
G37*
G36*
X-190174Y-12756D02*
X-191009Y-12866D01*
X-191786Y-13188D01*
X-192454Y-13700D01*
X-192967Y-14368D01*
X-193289Y-15146D01*
X-193399Y-15980D01*
X-193289Y-16815D01*
X-192967Y-17593D01*
X-192454Y-18260D01*
X-191786Y-18773D01*
X-191009Y-19095D01*
X-190174Y-19205D01*
X-189340Y-19095D01*
X-188562Y-18773D01*
X-187894Y-18260D01*
X-187382Y-17593D01*
X-187060Y-16815D01*
X-186950Y-15980D01*
X-187060Y-15146D01*
X-187382Y-14368D01*
X-187894Y-13700D01*
X-188562Y-13188D01*
X-189340Y-12866D01*
X-190174Y-12756D01*
D02*
G37*
G36*
X-52500Y-11480D02*
X-60732D01*
X-61123Y-11558D01*
X-61453Y-11779D01*
X-64711Y-15036D01*
X-64759Y-15054D01*
X-65142Y-15411D01*
X-65290Y-15530D01*
X-65420Y-15621D01*
X-65520Y-15679D01*
X-65584Y-15707D01*
X-65587Y-15707D01*
X-65650Y-15692D01*
X-65804Y-15629D01*
X-65846Y-15646D01*
X-65890Y-15635D01*
X-66033Y-15723D01*
X-66187Y-15787D01*
X-66204Y-15829D01*
X-66243Y-15853D01*
X-66281Y-16015D01*
X-66345Y-16170D01*
X-66328Y-16212D01*
X-66338Y-16256D01*
X-66251Y-16398D01*
X-66198Y-16524D01*
X-67264Y-17590D01*
X-67485Y-17921D01*
X-67563Y-18311D01*
Y-19000D01*
X-67485Y-19390D01*
X-67264Y-19721D01*
X-66934Y-19942D01*
X-66543Y-20020D01*
X-66153Y-19942D01*
X-65822Y-19721D01*
X-65601Y-19390D01*
X-65524Y-19000D01*
Y-18733D01*
X-64757Y-17966D01*
X-64630Y-18019D01*
X-64488Y-18106D01*
X-64444Y-18096D01*
X-64402Y-18113D01*
X-64248Y-18049D01*
X-64085Y-18011D01*
X-64061Y-17972D01*
X-64019Y-17955D01*
X-63955Y-17800D01*
X-63868Y-17658D01*
X-63878Y-17614D01*
X-63861Y-17572D01*
X-63925Y-17418D01*
X-63940Y-17355D01*
X-63939Y-17352D01*
X-63911Y-17288D01*
X-63853Y-17188D01*
X-63767Y-17064D01*
X-63481Y-16727D01*
X-63294Y-16534D01*
X-63274Y-16484D01*
X-62622Y-15832D01*
X-62122Y-16039D01*
Y-20307D01*
X-62145Y-20344D01*
X-62134Y-20387D01*
X-62151Y-20428D01*
X-62122Y-20499D01*
Y-20764D01*
X-62153Y-20818D01*
X-62238Y-20940D01*
X-62521Y-21274D01*
X-62707Y-21466D01*
X-62726Y-21517D01*
X-63159Y-21949D01*
X-63390Y-21995D01*
X-63721Y-22216D01*
X-64615Y-23110D01*
X-64836Y-23440D01*
X-64896Y-23744D01*
X-68520D01*
Y-30256D01*
X-63189D01*
Y-25777D01*
X-63173Y-25760D01*
X-62952Y-25430D01*
X-62917Y-25257D01*
X-62417Y-25306D01*
Y-30256D01*
X-60851D01*
X-60846Y-30268D01*
X-60827Y-30342D01*
X-60809Y-30447D01*
X-60798Y-30582D01*
X-60793Y-30758D01*
X-60772Y-30806D01*
Y-40248D01*
X-60694Y-40638D01*
X-60473Y-40969D01*
X-42221Y-59221D01*
X-41890Y-59442D01*
X-41500Y-59520D01*
X-12516D01*
X-12126Y-59442D01*
X-11795Y-59221D01*
X-2352Y-49779D01*
X-2309Y-49764D01*
X-2184Y-49655D01*
X-2062Y-49574D01*
X-1913Y-49497D01*
X-1733Y-49427D01*
X-1523Y-49365D01*
X-1283Y-49312D01*
X-1020Y-49272D01*
X-381Y-49225D01*
X-22Y-49222D01*
X14Y-49207D01*
X835Y-49099D01*
X1612Y-48777D01*
X2280Y-48264D01*
X2792Y-47596D01*
X3115Y-46819D01*
X3224Y-45984D01*
X3115Y-45150D01*
X2792Y-44372D01*
X2280Y-43704D01*
X1612Y-43192D01*
X835Y-42870D01*
X0Y-42760D01*
X-835Y-42870D01*
X-1612Y-43192D01*
X-2280Y-43704D01*
X-2792Y-44372D01*
X-3115Y-45150D01*
X-3221Y-45959D01*
X-3238Y-45996D01*
X-3258Y-46705D01*
X-3286Y-46997D01*
X-3328Y-47267D01*
X-3380Y-47507D01*
X-3443Y-47717D01*
X-3513Y-47897D01*
X-3590Y-48047D01*
X-3671Y-48168D01*
X-3780Y-48294D01*
X-3794Y-48337D01*
X-12938Y-57480D01*
X-41078D01*
X-58732Y-39826D01*
Y-30806D01*
X-58711Y-30758D01*
X-58706Y-30582D01*
X-58695Y-30447D01*
X-58677Y-30342D01*
X-58658Y-30268D01*
X-58653Y-30256D01*
X-57087D01*
Y-23744D01*
X-61166D01*
X-61415Y-23266D01*
X-61242Y-22946D01*
X-60860Y-22592D01*
X-60713Y-22474D01*
X-60585Y-22385D01*
X-60531Y-22354D01*
X-60266D01*
X-60196Y-22384D01*
X-60155Y-22366D01*
X-60111Y-22377D01*
X-60075Y-22354D01*
X-56791D01*
Y-15646D01*
X-61729D01*
X-61936Y-15146D01*
X-60310Y-13520D01*
X-52922D01*
X-51264Y-15178D01*
Y-16341D01*
X-51285Y-16385D01*
X-51291Y-16512D01*
X-51305Y-16613D01*
X-51330Y-16715D01*
X-51365Y-16819D01*
X-51412Y-16925D01*
X-51471Y-17035D01*
X-51544Y-17147D01*
X-51630Y-17263D01*
X-51732Y-17381D01*
X-51859Y-17512D01*
X-51933Y-17701D01*
X-52010Y-17888D01*
X-52008Y-17893D01*
X-52010Y-17898D01*
X-51929Y-18083D01*
X-51852Y-18271D01*
X-51847Y-18273D01*
X-51845Y-18277D01*
X-51774Y-18305D01*
X-51774D01*
X-51765Y-18309D01*
X-51656Y-18352D01*
X-51469Y-18429D01*
X-51264D01*
Y-19138D01*
X-51186Y-19528D01*
X-50965Y-19859D01*
X-50634Y-20080D01*
X-50244Y-20157D01*
X-49854Y-20080D01*
X-49523Y-19859D01*
X-49302Y-19528D01*
X-49224Y-19138D01*
Y-18429D01*
X-49019D01*
X-48832Y-18352D01*
X-48643Y-18277D01*
X-48641Y-18273D01*
X-48636Y-18271D01*
X-48559Y-18083D01*
X-48478Y-17898D01*
X-48480Y-17893D01*
X-48478Y-17888D01*
X-48507Y-17818D01*
Y-17818D01*
X-48511Y-17809D01*
X-48555Y-17701D01*
X-48630Y-17512D01*
X-48756Y-17381D01*
X-48858Y-17263D01*
X-48945Y-17147D01*
X-49017Y-17035D01*
X-49076Y-16925D01*
X-49123Y-16819D01*
X-49158Y-16715D01*
X-49183Y-16613D01*
X-49198Y-16512D01*
X-49204Y-16385D01*
X-49224Y-16341D01*
Y-14756D01*
X-49302Y-14366D01*
X-49523Y-14035D01*
X-51779Y-11779D01*
X-52110Y-11558D01*
X-52500Y-11480D01*
D02*
G37*
G36*
X-76894Y-26906D02*
X-77284Y-26984D01*
X-77615Y-27205D01*
X-78116Y-27706D01*
X-78261Y-27561D01*
X-78448Y-27483D01*
X-78634Y-27402D01*
X-78639Y-27404D01*
X-78644Y-27402D01*
X-78831Y-27480D01*
X-79019Y-27554D01*
X-79022Y-27559D01*
X-79026Y-27561D01*
X-79059Y-27640D01*
X-79104Y-27748D01*
X-79185Y-27934D01*
X-79188Y-28117D01*
X-79200Y-28272D01*
X-79220Y-28415D01*
X-79248Y-28546D01*
X-79284Y-28665D01*
X-79326Y-28773D01*
X-79374Y-28872D01*
X-79396Y-28907D01*
X-86206D01*
X-86596Y-28984D01*
X-86927Y-29205D01*
X-90115Y-32393D01*
X-90336Y-32724D01*
X-90391Y-33002D01*
X-90435Y-33100D01*
X-90439Y-33275D01*
X-90451Y-33410D01*
X-90468Y-33515D01*
X-90488Y-33588D01*
X-90497Y-33611D01*
X-90606Y-33671D01*
X-90773Y-33740D01*
X-90784Y-33768D01*
X-90811Y-33783D01*
X-90862Y-33956D01*
X-90931Y-34122D01*
X-90920Y-34151D01*
X-90928Y-34180D01*
X-90842Y-34339D01*
X-90773Y-34505D01*
X-90744Y-34517D01*
X-90730Y-34544D01*
X-90557Y-34595D01*
X-90413Y-34654D01*
Y-36264D01*
X-90336Y-36654D01*
X-90115Y-36985D01*
X-89784Y-37206D01*
X-89394Y-37283D01*
X-89003Y-37206D01*
X-88673Y-36985D01*
X-88173Y-36485D01*
X-87952Y-36154D01*
X-87874Y-35764D01*
X-87952Y-35374D01*
X-88137Y-35097D01*
X-88152Y-35015D01*
X-88144Y-34917D01*
X-88058Y-34544D01*
X-88043Y-34517D01*
X-88015Y-34505D01*
X-87946Y-34338D01*
X-87859Y-34180D01*
X-87868Y-34151D01*
X-87856Y-34122D01*
X-87925Y-33956D01*
X-87976Y-33783D01*
X-88021Y-33638D01*
X-88044Y-33247D01*
X-88024Y-33187D01*
X-85783Y-30946D01*
X-78894D01*
X-78504Y-30868D01*
X-78173Y-30647D01*
X-78151Y-30625D01*
X-78104Y-30608D01*
X-78010Y-30523D01*
X-77929Y-30462D01*
X-77839Y-30407D01*
X-77741Y-30358D01*
X-77633Y-30316D01*
X-77513Y-30281D01*
X-77382Y-30253D01*
X-77239Y-30232D01*
X-77084Y-30220D01*
X-76902Y-30217D01*
X-76716Y-30136D01*
X-76529Y-30059D01*
X-76526Y-30054D01*
X-76522Y-30052D01*
X-76448Y-29864D01*
X-76370Y-29676D01*
X-76372Y-29671D01*
X-76370Y-29667D01*
X-76404Y-29588D01*
X-76451Y-29481D01*
X-76529Y-29293D01*
X-76674Y-29148D01*
X-76173Y-28647D01*
X-75952Y-28316D01*
X-75874Y-27926D01*
X-75952Y-27536D01*
X-76173Y-27205D01*
X-76503Y-26984D01*
X-76894Y-26906D01*
D02*
G37*
G36*
X0Y-22760D02*
X-835Y-22870D01*
X-1612Y-23192D01*
X-2280Y-23704D01*
X-2792Y-24372D01*
X-3115Y-25150D01*
X-3224Y-25984D01*
X-3115Y-26819D01*
X-2792Y-27597D01*
X-2280Y-28264D01*
X-1612Y-28777D01*
X-835Y-29099D01*
X0Y-29209D01*
X835Y-29099D01*
X1612Y-28777D01*
X2280Y-28264D01*
X2792Y-27597D01*
X3115Y-26819D01*
X3224Y-25984D01*
X3115Y-25150D01*
X2792Y-24372D01*
X2280Y-23704D01*
X1612Y-23192D01*
X835Y-22870D01*
X0Y-22760D01*
D02*
G37*
G36*
X-69984Y-33690D02*
X-70862Y-33865D01*
X-71606Y-34362D01*
X-71620Y-34383D01*
X-71624Y-34384D01*
X-71754Y-34512D01*
X-71870Y-34613D01*
X-71985Y-34700D01*
X-72096Y-34773D01*
X-72204Y-34832D01*
X-72309Y-34879D01*
X-72413Y-34914D01*
X-72514Y-34939D01*
X-72614Y-34953D01*
X-72742Y-34959D01*
X-72786Y-34980D01*
X-77705D01*
X-77753Y-34959D01*
X-77929Y-34954D01*
X-78064Y-34943D01*
X-78169Y-34925D01*
X-78243Y-34906D01*
X-78255Y-34901D01*
Y-34287D01*
X-84767D01*
Y-39618D01*
X-78255D01*
Y-37099D01*
X-78243Y-37094D01*
X-78169Y-37075D01*
X-78064Y-37057D01*
X-77929Y-37046D01*
X-77753Y-37041D01*
X-77705Y-37020D01*
X-72777D01*
X-72732Y-37041D01*
X-72605Y-37047D01*
X-72504Y-37061D01*
X-72401Y-37086D01*
X-72297Y-37121D01*
X-72190Y-37168D01*
X-72079Y-37227D01*
X-71965Y-37299D01*
X-71848Y-37386D01*
X-71728Y-37487D01*
X-71613Y-37596D01*
X-71606Y-37606D01*
X-70862Y-38104D01*
X-69984Y-38278D01*
X-69106Y-38104D01*
X-68362Y-37606D01*
X-67865Y-36862D01*
X-67690Y-35984D01*
X-67865Y-35106D01*
X-68362Y-34362D01*
X-69106Y-33865D01*
X-69984Y-33690D01*
D02*
G37*
G36*
X0Y-32760D02*
X-835Y-32870D01*
X-1612Y-33192D01*
X-2280Y-33704D01*
X-2792Y-34372D01*
X-3115Y-35150D01*
X-3224Y-35984D01*
X-3115Y-36819D01*
X-2792Y-37596D01*
X-2280Y-38264D01*
X-1612Y-38777D01*
X-835Y-39099D01*
X0Y-39209D01*
X835Y-39099D01*
X1612Y-38777D01*
X2280Y-38264D01*
X2792Y-37596D01*
X3115Y-36819D01*
X3224Y-35984D01*
X3115Y-35150D01*
X2792Y-34372D01*
X2280Y-33704D01*
X1612Y-33192D01*
X835Y-32870D01*
X0Y-32760D01*
D02*
G37*
G36*
Y23224D02*
X-835Y23115D01*
X-1612Y22792D01*
X-2280Y22280D01*
X-2792Y21612D01*
X-3115Y20834D01*
X-3224Y20000D01*
X-3176Y19630D01*
X-3203Y19529D01*
X-3161Y19191D01*
X-3139Y18891D01*
X-3135Y18616D01*
X-3149Y18369D01*
X-3180Y18149D01*
X-3225Y17955D01*
X-3283Y17788D01*
X-3351Y17646D01*
X-3431Y17525D01*
X-3545Y17393D01*
X-3552Y17373D01*
X-3570Y17363D01*
X-3577Y17332D01*
X-46232Y-25322D01*
X-46453Y-25653D01*
X-46531Y-26043D01*
Y-33737D01*
X-46552Y-33785D01*
X-46556Y-33958D01*
X-46568Y-34091D01*
X-46585Y-34194D01*
X-46605Y-34266D01*
X-46613Y-34286D01*
X-46616Y-34287D01*
X-48767D01*
Y-39618D01*
X-43817D01*
X-43767Y-40118D01*
X-43940Y-40152D01*
X-44271Y-40374D01*
X-44287Y-40390D01*
X-48767D01*
Y-45720D01*
X-42255D01*
Y-42114D01*
X-42137D01*
X-41747Y-42037D01*
X-41416Y-41815D01*
X-39533Y-39932D01*
X-39485Y-39914D01*
X-39101Y-39557D01*
X-38953Y-39438D01*
X-38823Y-39347D01*
X-38781Y-39323D01*
X-38480D01*
X-38439Y-39340D01*
X-38397Y-39323D01*
X-38396D01*
X-38353Y-39333D01*
X-38336Y-39323D01*
X-33657D01*
Y-33992D01*
X-40365D01*
Y-37294D01*
X-40376Y-37310D01*
X-40365Y-37354D01*
Y-37355D01*
X-40383Y-37397D01*
X-40365Y-37438D01*
Y-37738D01*
X-40390Y-37781D01*
X-40476Y-37904D01*
X-40762Y-38241D01*
X-40949Y-38435D01*
X-40969Y-38485D01*
X-41755Y-39271D01*
X-42255Y-39064D01*
Y-34287D01*
X-44406D01*
X-44409Y-34286D01*
X-44417Y-34266D01*
X-44436Y-34194D01*
X-44454Y-34091D01*
X-44465Y-33958D01*
X-44470Y-33785D01*
X-44491Y-33737D01*
Y-26466D01*
X-2015Y16010D01*
X-1972Y16025D01*
X-1857Y16125D01*
X-1738Y16206D01*
X-1584Y16290D01*
X-1396Y16374D01*
X-1174Y16455D01*
X-929Y16529D01*
X48Y16736D01*
X427Y16790D01*
X517Y16844D01*
X835Y16885D01*
X1612Y17208D01*
X2280Y17720D01*
X2792Y18388D01*
X3115Y19165D01*
X3224Y20000D01*
X3115Y20834D01*
X2792Y21612D01*
X2280Y22280D01*
X1612Y22792D01*
X835Y23115D01*
X0Y23224D01*
D02*
G37*
G36*
X-186662Y-35303D02*
X-193686D01*
Y-42327D01*
X-186662D01*
Y-35303D01*
D02*
G37*
G36*
X-78255Y-40390D02*
X-84767D01*
Y-42251D01*
X-84779Y-42256D01*
X-84852Y-42276D01*
X-84958Y-42293D01*
X-85093Y-42305D01*
X-85269Y-42309D01*
X-85317Y-42331D01*
X-85489D01*
X-85537Y-42309D01*
X-85713Y-42305D01*
X-85848Y-42293D01*
X-85954Y-42276D01*
X-86027Y-42256D01*
X-86039Y-42251D01*
Y-40685D01*
X-92748D01*
Y-46016D01*
X-86039D01*
Y-44450D01*
X-86027Y-44445D01*
X-85954Y-44425D01*
X-85848Y-44408D01*
X-85713Y-44396D01*
X-85537Y-44391D01*
X-85489Y-44370D01*
X-85317D01*
X-85269Y-44391D01*
X-85093Y-44396D01*
X-84958Y-44408D01*
X-84852Y-44425D01*
X-84779Y-44445D01*
X-84767Y-44450D01*
Y-45720D01*
X-78255D01*
Y-40390D01*
D02*
G37*
G36*
X-190174Y-45273D02*
X-191091Y-45393D01*
X-191945Y-45747D01*
X-192679Y-46310D01*
X-193242Y-47044D01*
X-193596Y-47898D01*
X-193716Y-48815D01*
X-193596Y-49732D01*
X-193242Y-50586D01*
X-192679Y-51320D01*
X-191945Y-51882D01*
X-191091Y-52236D01*
X-190174Y-52357D01*
X-189257Y-52236D01*
X-188403Y-51882D01*
X-187670Y-51320D01*
X-187107Y-50586D01*
X-186753Y-49732D01*
X-186632Y-48815D01*
X-186753Y-47898D01*
X-187107Y-47044D01*
X-187670Y-46310D01*
X-188403Y-45747D01*
X-189257Y-45393D01*
X-190174Y-45273D01*
D02*
G37*
G36*
X-37011Y-42724D02*
X-37401Y-42802D01*
X-37732Y-43023D01*
X-37953Y-43354D01*
X-38030Y-43744D01*
X-37953Y-44134D01*
X-37913Y-44194D01*
Y-45352D01*
X-38061Y-45413D01*
X-38234Y-45464D01*
X-38248Y-45491D01*
X-38276Y-45503D01*
X-38346Y-45669D01*
X-38432Y-45828D01*
X-38423Y-45857D01*
X-38435Y-45885D01*
X-38366Y-46052D01*
X-38315Y-46226D01*
X-38288Y-46240D01*
X-38276Y-46268D01*
X-38110Y-46337D01*
X-37997Y-46398D01*
X-37988Y-46421D01*
X-37968Y-46495D01*
X-37951Y-46601D01*
X-37939Y-46736D01*
X-37935Y-46911D01*
X-37913Y-46960D01*
Y-49629D01*
X-37934Y-49673D01*
X-37940Y-49801D01*
X-37955Y-49902D01*
X-37979Y-50003D01*
X-38015Y-50107D01*
X-38061Y-50213D01*
X-38121Y-50323D01*
X-38193Y-50435D01*
X-38280Y-50551D01*
X-38381Y-50669D01*
X-38508Y-50801D01*
X-38582Y-50989D01*
X-38660Y-51176D01*
X-38658Y-51181D01*
X-38660Y-51186D01*
X-38579Y-51372D01*
X-38501Y-51559D01*
X-38497Y-51561D01*
X-38495Y-51566D01*
X-38424Y-51594D01*
X-38424D01*
X-38415Y-51597D01*
X-38306Y-51640D01*
X-38119Y-51718D01*
X-37913D01*
Y-52426D01*
X-37836Y-52816D01*
X-37615Y-53147D01*
X-37284Y-53368D01*
X-36894Y-53446D01*
X-36503Y-53368D01*
X-36173Y-53147D01*
X-35952Y-52816D01*
X-35874Y-52426D01*
Y-51718D01*
X-35669D01*
X-35482Y-51640D01*
X-35293Y-51566D01*
X-35291Y-51561D01*
X-35286Y-51559D01*
X-35208Y-51372D01*
X-35128Y-51186D01*
X-35129Y-51181D01*
X-35127Y-51176D01*
X-35157Y-51106D01*
Y-51106D01*
X-35160Y-51097D01*
X-35205Y-50989D01*
X-35279Y-50801D01*
X-35406Y-50669D01*
X-35507Y-50551D01*
X-35594Y-50435D01*
X-35667Y-50323D01*
X-35726Y-50213D01*
X-35773Y-50107D01*
X-35808Y-50003D01*
X-35833Y-49902D01*
X-35847Y-49801D01*
X-35853Y-49673D01*
X-35874Y-49629D01*
Y-46960D01*
X-35853Y-46911D01*
X-35848Y-46736D01*
X-35836Y-46601D01*
X-35819Y-46495D01*
X-35799Y-46421D01*
X-35790Y-46398D01*
X-35678Y-46337D01*
X-35511Y-46268D01*
X-35499Y-46240D01*
X-35473Y-46226D01*
X-35422Y-46052D01*
X-35353Y-45885D01*
X-35364Y-45857D01*
X-35355Y-45828D01*
X-35442Y-45669D01*
X-35511Y-45503D01*
X-35539Y-45491D01*
X-35554Y-45464D01*
X-35727Y-45413D01*
X-35874Y-45352D01*
Y-43861D01*
X-35952Y-43471D01*
X-36173Y-43140D01*
X-36290Y-43023D01*
X-36621Y-42802D01*
X-37011Y-42724D01*
D02*
G37*
G36*
X-190174Y-55273D02*
X-191091Y-55393D01*
X-191945Y-55747D01*
X-192679Y-56310D01*
X-193242Y-57044D01*
X-193596Y-57898D01*
X-193716Y-58815D01*
X-193596Y-59732D01*
X-193242Y-60586D01*
X-192679Y-61320D01*
X-191945Y-61883D01*
X-191091Y-62236D01*
X-190174Y-62357D01*
X-189257Y-62236D01*
X-188403Y-61883D01*
X-187670Y-61320D01*
X-187107Y-60586D01*
X-186753Y-59732D01*
X-186632Y-58815D01*
X-186753Y-57898D01*
X-187107Y-57044D01*
X-187670Y-56310D01*
X-188403Y-55747D01*
X-189257Y-55393D01*
X-190174Y-55273D01*
D02*
G37*
G36*
X-63189Y-49244D02*
X-68520D01*
Y-55756D01*
X-67249D01*
X-67244Y-55768D01*
X-67224Y-55842D01*
X-67207Y-55947D01*
X-67195Y-56082D01*
X-67191Y-56258D01*
X-67169Y-56306D01*
Y-57095D01*
X-67191Y-57143D01*
X-67195Y-57317D01*
X-67207Y-57449D01*
X-67224Y-57553D01*
X-67243Y-57624D01*
X-67251Y-57644D01*
X-67255Y-57646D01*
X-68815D01*
Y-64354D01*
X-63484D01*
Y-57646D01*
X-65045D01*
X-65048Y-57644D01*
X-65056Y-57624D01*
X-65075Y-57553D01*
X-65092Y-57449D01*
X-65104Y-57317D01*
X-65109Y-57143D01*
X-65130Y-57095D01*
Y-56306D01*
X-65109Y-56258D01*
X-65104Y-56082D01*
X-65092Y-55947D01*
X-65075Y-55842D01*
X-65055Y-55768D01*
X-65050Y-55756D01*
X-63189D01*
Y-49244D01*
D02*
G37*
G36*
X-57087D02*
X-62417D01*
Y-55756D01*
X-57087D01*
Y-53605D01*
X-57085Y-53602D01*
X-57065Y-53594D01*
X-56994Y-53575D01*
X-56890Y-53557D01*
X-56758Y-53546D01*
X-56584Y-53541D01*
X-56536Y-53520D01*
X-54922D01*
X-43221Y-65221D01*
X-42890Y-65442D01*
X-42500Y-65520D01*
X-8516D01*
X-8126Y-65442D01*
X-7795Y-65221D01*
X-2352Y-59779D01*
X-2309Y-59764D01*
X-2184Y-59655D01*
X-2062Y-59574D01*
X-1913Y-59497D01*
X-1733Y-59427D01*
X-1523Y-59364D01*
X-1283Y-59312D01*
X-1020Y-59272D01*
X-381Y-59225D01*
X-22Y-59222D01*
X14Y-59207D01*
X835Y-59099D01*
X1612Y-58777D01*
X2280Y-58264D01*
X2792Y-57596D01*
X3115Y-56819D01*
X3224Y-55984D01*
X3115Y-55150D01*
X2792Y-54372D01*
X2280Y-53704D01*
X1612Y-53192D01*
X835Y-52870D01*
X0Y-52760D01*
X-835Y-52870D01*
X-1612Y-53192D01*
X-2280Y-53704D01*
X-2792Y-54372D01*
X-3115Y-55150D01*
X-3221Y-55959D01*
X-3238Y-55996D01*
X-3258Y-56705D01*
X-3286Y-56997D01*
X-3328Y-57267D01*
X-3380Y-57507D01*
X-3443Y-57717D01*
X-3513Y-57897D01*
X-3590Y-58047D01*
X-3671Y-58168D01*
X-3780Y-58293D01*
X-3794Y-58337D01*
X-8938Y-63480D01*
X-42078D01*
X-53779Y-51779D01*
X-54110Y-51558D01*
X-54500Y-51480D01*
X-56536D01*
X-56584Y-51459D01*
X-56758Y-51454D01*
X-56890Y-51443D01*
X-56994Y-51425D01*
X-57065Y-51406D01*
X-57085Y-51398D01*
X-57087Y-51395D01*
Y-49244D01*
D02*
G37*
G36*
X-59063Y-59980D02*
X-59453Y-60058D01*
X-59784Y-60279D01*
X-60005Y-60610D01*
X-60083Y-61000D01*
Y-61689D01*
X-60005Y-62079D01*
X-59784Y-62410D01*
X-58119Y-64075D01*
X-57788Y-64296D01*
X-57398Y-64374D01*
X-57131D01*
X-56284Y-65221D01*
X-55953Y-65442D01*
X-55563Y-65520D01*
X-52797D01*
X-52753Y-65541D01*
X-52626Y-65547D01*
X-52525Y-65561D01*
X-52423Y-65586D01*
X-52319Y-65621D01*
X-52213Y-65668D01*
X-52103Y-65727D01*
X-51991Y-65799D01*
X-51875Y-65886D01*
X-51757Y-65988D01*
X-51626Y-66114D01*
X-51437Y-66189D01*
X-51250Y-66266D01*
X-51245Y-66264D01*
X-51240Y-66266D01*
X-51054Y-66185D01*
X-50867Y-66108D01*
X-50865Y-66103D01*
X-50860Y-66101D01*
X-50829Y-66021D01*
X-50786Y-65912D01*
X-50709Y-65725D01*
Y-65520D01*
X-50000D01*
X-49610Y-65442D01*
X-49279Y-65221D01*
X-49058Y-64890D01*
X-48980Y-64500D01*
X-49058Y-64110D01*
X-49279Y-63779D01*
X-49610Y-63558D01*
X-50000Y-63480D01*
X-50709D01*
Y-63275D01*
X-50786Y-63088D01*
X-50860Y-62899D01*
X-50865Y-62897D01*
X-50867Y-62892D01*
X-51054Y-62815D01*
X-51240Y-62734D01*
X-51245Y-62736D01*
X-51250Y-62734D01*
X-51320Y-62763D01*
X-51320D01*
X-51329Y-62767D01*
X-51437Y-62811D01*
X-51626Y-62886D01*
X-51757Y-63012D01*
X-51875Y-63114D01*
X-51991Y-63200D01*
X-52103Y-63273D01*
X-52213Y-63332D01*
X-52319Y-63379D01*
X-52423Y-63414D01*
X-52525Y-63439D01*
X-52626Y-63453D01*
X-52753Y-63459D01*
X-52797Y-63480D01*
X-55141D01*
X-55988Y-62633D01*
X-56318Y-62412D01*
X-56709Y-62335D01*
X-56975D01*
X-58043Y-61267D01*
Y-61000D01*
X-58121Y-60610D01*
X-58342Y-60279D01*
X-58673Y-60058D01*
X-59063Y-59980D01*
D02*
G37*
G36*
X0Y-62760D02*
X-835Y-62870D01*
X-1612Y-63192D01*
X-2280Y-63704D01*
X-2792Y-64372D01*
X-3115Y-65150D01*
X-3224Y-65984D01*
X-3115Y-66819D01*
X-2792Y-67597D01*
X-2280Y-68264D01*
X-1612Y-68777D01*
X-835Y-69099D01*
X0Y-69209D01*
X835Y-69099D01*
X1612Y-68777D01*
X2280Y-68264D01*
X2792Y-67597D01*
X3115Y-66819D01*
X3224Y-65984D01*
X3115Y-65150D01*
X2792Y-64372D01*
X2280Y-63704D01*
X1612Y-63192D01*
X835Y-62870D01*
X0Y-62760D01*
D02*
G37*
G36*
X-190174Y-65273D02*
X-191091Y-65394D01*
X-191945Y-65747D01*
X-192679Y-66310D01*
X-193242Y-67044D01*
X-193596Y-67898D01*
X-193716Y-68815D01*
X-193596Y-69732D01*
X-193242Y-70586D01*
X-192679Y-71320D01*
X-191945Y-71882D01*
X-191091Y-72236D01*
X-190174Y-72357D01*
X-189257Y-72236D01*
X-188403Y-71882D01*
X-187670Y-71320D01*
X-187107Y-70586D01*
X-186753Y-69732D01*
X-186632Y-68815D01*
X-186753Y-67898D01*
X-187107Y-67044D01*
X-187670Y-66310D01*
X-188403Y-65747D01*
X-189257Y-65394D01*
X-190174Y-65273D01*
D02*
G37*
G36*
X0Y-72760D02*
X-835Y-72870D01*
X-1612Y-73192D01*
X-2280Y-73704D01*
X-2792Y-74372D01*
X-3115Y-75150D01*
X-3224Y-75984D01*
X-3115Y-76819D01*
X-2792Y-77596D01*
X-2280Y-78264D01*
X-1612Y-78777D01*
X-835Y-79099D01*
X0Y-79209D01*
X835Y-79099D01*
X1612Y-78777D01*
X2280Y-78264D01*
X2792Y-77596D01*
X3115Y-76819D01*
X3224Y-75984D01*
X3115Y-75150D01*
X2792Y-74372D01*
X2280Y-73704D01*
X1612Y-73192D01*
X835Y-72870D01*
X0Y-72760D01*
D02*
G37*
G36*
X-190174Y-75273D02*
X-191091Y-75393D01*
X-191945Y-75747D01*
X-192679Y-76310D01*
X-193242Y-77044D01*
X-193596Y-77898D01*
X-193716Y-78815D01*
X-193596Y-79732D01*
X-193242Y-80586D01*
X-192679Y-81320D01*
X-191945Y-81883D01*
X-191091Y-82236D01*
X-190174Y-82357D01*
X-189257Y-82236D01*
X-188403Y-81883D01*
X-187670Y-81320D01*
X-187107Y-80586D01*
X-186753Y-79732D01*
X-186632Y-78815D01*
X-186753Y-77898D01*
X-187107Y-77044D01*
X-187670Y-76310D01*
X-188403Y-75747D01*
X-189257Y-75393D01*
X-190174Y-75273D01*
D02*
G37*
G36*
X0Y-82760D02*
X-835Y-82870D01*
X-1612Y-83192D01*
X-2280Y-83704D01*
X-2792Y-84372D01*
X-3115Y-85150D01*
X-3224Y-85984D01*
X-3115Y-86819D01*
X-2792Y-87596D01*
X-2280Y-88264D01*
X-1612Y-88777D01*
X-835Y-89099D01*
X0Y-89209D01*
X835Y-89099D01*
X1612Y-88777D01*
X2280Y-88264D01*
X2792Y-87596D01*
X3115Y-86819D01*
X3224Y-85984D01*
X3115Y-85150D01*
X2792Y-84372D01*
X2280Y-83704D01*
X1612Y-83192D01*
X835Y-82870D01*
X0Y-82760D01*
D02*
G37*
G36*
X-190174Y-85273D02*
X-191091Y-85394D01*
X-191945Y-85747D01*
X-192679Y-86310D01*
X-193242Y-87044D01*
X-193596Y-87898D01*
X-193716Y-88815D01*
X-193596Y-89732D01*
X-193242Y-90586D01*
X-192679Y-91320D01*
X-191945Y-91882D01*
X-191091Y-92236D01*
X-190174Y-92357D01*
X-189257Y-92236D01*
X-188403Y-91882D01*
X-187670Y-91320D01*
X-187107Y-90586D01*
X-186753Y-89732D01*
X-186632Y-88815D01*
X-186753Y-87898D01*
X-187107Y-87044D01*
X-187670Y-86310D01*
X-188403Y-85747D01*
X-189257Y-85394D01*
X-190174Y-85273D01*
D02*
G37*
G36*
X-74500Y-57959D02*
X-95000D01*
X-95383Y-58117D01*
X-95541Y-58500D01*
Y-101000D01*
X-95383Y-101383D01*
X-95000Y-101541D01*
X-74500D01*
X-74117Y-101383D01*
X-73959Y-101000D01*
Y-58500D01*
X-74117Y-58117D01*
X-74500Y-57959D01*
D02*
G37*
G36*
X-60023Y-89211D02*
X-61356Y-89342D01*
X-62637Y-89731D01*
X-63818Y-90363D01*
X-64854Y-91212D01*
X-65703Y-92248D01*
X-66335Y-93429D01*
X-66724Y-94710D01*
X-66855Y-96043D01*
X-66724Y-97376D01*
X-66335Y-98658D01*
X-65703Y-99839D01*
X-64854Y-100874D01*
X-63818Y-101724D01*
X-62637Y-102355D01*
X-61356Y-102744D01*
X-60023Y-102875D01*
X-58690Y-102744D01*
X-57408Y-102355D01*
X-56227Y-101724D01*
X-55192Y-100874D01*
X-54342Y-99839D01*
X-53711Y-98658D01*
X-53322Y-97376D01*
X-53191Y-96043D01*
X-53322Y-94710D01*
X-53711Y-93429D01*
X-54342Y-92248D01*
X-55192Y-91212D01*
X-56227Y-90363D01*
X-57408Y-89731D01*
X-58690Y-89342D01*
X-60023Y-89211D01*
D02*
G37*
%LPD*%
G36*
X-109375Y100905D02*
X-109345Y100820D01*
X-109294Y100745D01*
X-109223Y100680D01*
X-109132Y100625D01*
X-109021Y100580D01*
X-108889Y100545D01*
X-108738Y100520D01*
X-108566Y100505D01*
X-108373Y100500D01*
Y99500D01*
X-108566Y99495D01*
X-108738Y99480D01*
X-108889Y99455D01*
X-109021Y99420D01*
X-109132Y99375D01*
X-109223Y99320D01*
X-109294Y99255D01*
X-109345Y99180D01*
X-109375Y99095D01*
X-109385Y99000D01*
Y101000D01*
X-109375Y100905D01*
D02*
G37*
G36*
X-104750Y98775D02*
X-104892Y98913D01*
X-105036Y99036D01*
X-105181Y99145D01*
X-105327Y99239D01*
X-105474Y99319D01*
X-105623Y99384D01*
X-105772Y99435D01*
X-105923Y99471D01*
X-106074Y99493D01*
X-106227Y99500D01*
Y100500D01*
X-106074Y100507D01*
X-105923Y100529D01*
X-105772Y100565D01*
X-105623Y100616D01*
X-105474Y100681D01*
X-105327Y100761D01*
X-105181Y100855D01*
X-105036Y100964D01*
X-104892Y101087D01*
X-104750Y101225D01*
Y98775D01*
D02*
G37*
G36*
X-167530Y98725D02*
X-167653Y98581D01*
X-167762Y98436D01*
X-167856Y98290D01*
X-167936Y98143D01*
X-168001Y97995D01*
X-168052Y97845D01*
X-168088Y97695D01*
X-168110Y97543D01*
X-168117Y97390D01*
X-169117D01*
X-169124Y97543D01*
X-169146Y97695D01*
X-169183Y97845D01*
X-169233Y97995D01*
X-169299Y98143D01*
X-169378Y98290D01*
X-169473Y98436D01*
X-169581Y98581D01*
X-169704Y98725D01*
X-169842Y98867D01*
X-167392D01*
X-167530Y98725D01*
D02*
G37*
G36*
X-168112Y97122D02*
X-168097Y96952D01*
X-168072Y96802D01*
X-168037Y96672D01*
X-167992Y96562D01*
X-167937Y96472D01*
X-167872Y96402D01*
X-167797Y96352D01*
X-167712Y96322D01*
X-167617Y96312D01*
X-169617D01*
X-169522Y96322D01*
X-169437Y96352D01*
X-169362Y96402D01*
X-169297Y96472D01*
X-169242Y96562D01*
X-169197Y96672D01*
X-169162Y96802D01*
X-169137Y96952D01*
X-169122Y97122D01*
X-169117Y97312D01*
X-168117D01*
X-168112Y97122D01*
D02*
G37*
G36*
X-111212Y91605D02*
X-111297Y91575D01*
X-111372Y91525D01*
X-111437Y91455D01*
X-111492Y91365D01*
X-111537Y91255D01*
X-111572Y91125D01*
X-111597Y90975D01*
X-111612Y90805D01*
X-111617Y90615D01*
X-112617D01*
X-112622Y90805D01*
X-112637Y90975D01*
X-112662Y91125D01*
X-112697Y91255D01*
X-112742Y91365D01*
X-112797Y91455D01*
X-112862Y91525D01*
X-112937Y91575D01*
X-113022Y91605D01*
X-113117Y91615D01*
X-111117D01*
X-111212Y91605D01*
D02*
G37*
G36*
X-40468Y91015D02*
X-40553Y90985D01*
X-40628Y90935D01*
X-40693Y90865D01*
X-40748Y90775D01*
X-40793Y90665D01*
X-40828Y90535D01*
X-40853Y90385D01*
X-40868Y90215D01*
X-40873Y90025D01*
X-41873D01*
X-41861Y91025D01*
X-40373D01*
X-40468Y91015D01*
D02*
G37*
G36*
X-2673Y89000D02*
X-2683Y89095D01*
X-2713Y89180D01*
X-2764Y89255D01*
X-2835Y89320D01*
X-2926Y89375D01*
X-3037Y89420D01*
X-3169Y89455D01*
X-3320Y89480D01*
X-3493Y89495D01*
X-3685Y89500D01*
Y90500D01*
X-3493Y90505D01*
X-3320Y90520D01*
X-3169Y90545D01*
X-3037Y90580D01*
X-2926Y90625D01*
X-2835Y90680D01*
X-2764Y90745D01*
X-2713Y90820D01*
X-2683Y90905D01*
X-2673Y91000D01*
Y89000D01*
D02*
G37*
G36*
X-111612Y89281D02*
X-111597Y89109D01*
X-111572Y88957D01*
X-111537Y88826D01*
X-111492Y88714D01*
X-111437Y88623D01*
X-111372Y88552D01*
X-111297Y88502D01*
X-111212Y88471D01*
X-111117Y88461D01*
X-113117D01*
X-113022Y88471D01*
X-112937Y88502D01*
X-112862Y88552D01*
X-112797Y88623D01*
X-112742Y88714D01*
X-112697Y88826D01*
X-112662Y88957D01*
X-112637Y89109D01*
X-112622Y89281D01*
X-112617Y89473D01*
X-111617D01*
X-111612Y89281D01*
D02*
G37*
G36*
X-109375Y87225D02*
X-109345Y87140D01*
X-109294Y87065D01*
X-109223Y87000D01*
X-109132Y86945D01*
X-109021Y86900D01*
X-108889Y86865D01*
X-108738Y86840D01*
X-108566Y86825D01*
X-108373Y86820D01*
Y85820D01*
X-108566Y85815D01*
X-108738Y85800D01*
X-108889Y85775D01*
X-109021Y85740D01*
X-109132Y85695D01*
X-109223Y85640D01*
X-109294Y85575D01*
X-109345Y85500D01*
X-109375Y85415D01*
X-109385Y85320D01*
Y87320D01*
X-109375Y87225D01*
D02*
G37*
G36*
X-43375Y84406D02*
X-43574Y84200D01*
X-43888Y83831D01*
X-44002Y83668D01*
X-44088Y83519D01*
X-44146Y83385D01*
X-44175Y83265D01*
X-44176Y83160D01*
X-44149Y83069D01*
X-44094Y82992D01*
X-45496Y84394D01*
X-45419Y84339D01*
X-45328Y84312D01*
X-45223Y84313D01*
X-45103Y84342D01*
X-44969Y84400D01*
X-44820Y84486D01*
X-44657Y84601D01*
X-44480Y84743D01*
X-44082Y85113D01*
X-43375Y84406D01*
D02*
G37*
G36*
X-52314Y80662D02*
X-52324Y80757D01*
X-52354Y80842D01*
X-52405Y80917D01*
X-52476Y80982D01*
X-52567Y81037D01*
X-52678Y81082D01*
X-52810Y81117D01*
X-52961Y81142D01*
X-53133Y81157D01*
X-53326Y81162D01*
Y82162D01*
X-53133Y82167D01*
X-52961Y82182D01*
X-52810Y82207D01*
X-52678Y82242D01*
X-52567Y82287D01*
X-52476Y82342D01*
X-52405Y82407D01*
X-52354Y82482D01*
X-52324Y82567D01*
X-52314Y82662D01*
Y80662D01*
D02*
G37*
G36*
X-79911Y82567D02*
X-79880Y82482D01*
X-79830Y82407D01*
X-79759Y82342D01*
X-79668Y82287D01*
X-79556Y82242D01*
X-79425Y82207D01*
X-79273Y82182D01*
X-79101Y82167D01*
X-78909Y82162D01*
Y81162D01*
X-79101Y81157D01*
X-79273Y81142D01*
X-79425Y81117D01*
X-79556Y81082D01*
X-79668Y81037D01*
X-79759Y80982D01*
X-79830Y80917D01*
X-79880Y80842D01*
X-79911Y80757D01*
X-79921Y80662D01*
Y82662D01*
X-79911Y82567D01*
D02*
G37*
G36*
X-88140Y80662D02*
X-88151Y80757D01*
X-88181Y80842D01*
X-88231Y80917D01*
X-88302Y80982D01*
X-88393Y81037D01*
X-88505Y81082D01*
X-88636Y81117D01*
X-88788Y81142D01*
X-88960Y81157D01*
X-89152Y81162D01*
Y82162D01*
X-88960Y82167D01*
X-88788Y82182D01*
X-88636Y82207D01*
X-88505Y82242D01*
X-88393Y82287D01*
X-88302Y82342D01*
X-88231Y82407D01*
X-88181Y82482D01*
X-88151Y82567D01*
X-88140Y82662D01*
Y80662D01*
D02*
G37*
G36*
X-1926Y78112D02*
X-2194Y78376D01*
X-2708Y78820D01*
X-2954Y79000D01*
X-3192Y79153D01*
X-3422Y79278D01*
X-3645Y79375D01*
X-3860Y79444D01*
X-4068Y79486D01*
X-4268Y79500D01*
Y80500D01*
X-4068Y80514D01*
X-3860Y80555D01*
X-3645Y80625D01*
X-3422Y80722D01*
X-3192Y80847D01*
X-2954Y81000D01*
X-2708Y81180D01*
X-2455Y81388D01*
X-1926Y81888D01*
Y78112D01*
D02*
G37*
G36*
X-186349Y77312D02*
X-186359Y77407D01*
X-186390Y77492D01*
X-186440Y77567D01*
X-186511Y77632D01*
X-186602Y77687D01*
X-186713Y77732D01*
X-186845Y77767D01*
X-186997Y77792D01*
X-187169Y77807D01*
X-187361Y77812D01*
Y78812D01*
X-187169Y78817D01*
X-186997Y78832D01*
X-186845Y78857D01*
X-186713Y78892D01*
X-186602Y78937D01*
X-186511Y78992D01*
X-186440Y79057D01*
X-186390Y79132D01*
X-186359Y79217D01*
X-186349Y79312D01*
Y77312D01*
D02*
G37*
G36*
X-189265Y79217D02*
X-189235Y79132D01*
X-189185Y79057D01*
X-189115Y78992D01*
X-189025Y78937D01*
X-188915Y78892D01*
X-188785Y78857D01*
X-188635Y78832D01*
X-188465Y78817D01*
X-188275Y78812D01*
Y77812D01*
X-188465Y77807D01*
X-188635Y77792D01*
X-188785Y77767D01*
X-188915Y77732D01*
X-189025Y77687D01*
X-189115Y77632D01*
X-189185Y77567D01*
X-189235Y77492D01*
X-189265Y77407D01*
X-189275Y77312D01*
Y79312D01*
X-189265Y79217D01*
D02*
G37*
G36*
X-162293Y57217D02*
X-162108Y57065D01*
X-161921Y56931D01*
X-161731Y56814D01*
X-161537Y56717D01*
X-161341Y56637D01*
X-161142Y56575D01*
X-160939Y56532D01*
X-160733Y56507D01*
X-160525Y56500D01*
X-163000Y54025D01*
X-163007Y54233D01*
X-163032Y54439D01*
X-163075Y54641D01*
X-163137Y54841D01*
X-163217Y55037D01*
X-163314Y55231D01*
X-163431Y55421D01*
X-163565Y55608D01*
X-163717Y55792D01*
X-163888Y55974D01*
X-162474Y57388D01*
X-162293Y57217D01*
D02*
G37*
G36*
X-94128Y50165D02*
X-94260Y50013D01*
X-94378Y49837D01*
X-94481Y49635D01*
X-94570Y49409D01*
X-94644Y49158D01*
X-94705Y48882D01*
X-94751Y48581D01*
X-94783Y48254D01*
X-94803Y47527D01*
X-97473Y50197D01*
X-97097Y50200D01*
X-96420Y50249D01*
X-96118Y50295D01*
X-95842Y50356D01*
X-95591Y50430D01*
X-95364Y50519D01*
X-95163Y50622D01*
X-94987Y50740D01*
X-94836Y50872D01*
X-94128Y50165D01*
D02*
G37*
G36*
X-97527Y44803D02*
X-97903Y44800D01*
X-98580Y44751D01*
X-98882Y44705D01*
X-99158Y44644D01*
X-99409Y44570D01*
X-99635Y44481D01*
X-99837Y44378D01*
X-100013Y44260D01*
X-100164Y44128D01*
X-100872Y44835D01*
X-100740Y44987D01*
X-100622Y45163D01*
X-100519Y45364D01*
X-100430Y45591D01*
X-100356Y45842D01*
X-100295Y46118D01*
X-100249Y46420D01*
X-100217Y46746D01*
X-100197Y47473D01*
X-97527Y44803D01*
D02*
G37*
G36*
X-87095Y44805D02*
X-87180Y44775D01*
X-87255Y44725D01*
X-87320Y44655D01*
X-87375Y44565D01*
X-87420Y44455D01*
X-87455Y44325D01*
X-87480Y44175D01*
X-87495Y44005D01*
X-87500Y43815D01*
X-88500D01*
X-88505Y44005D01*
X-88520Y44175D01*
X-88545Y44325D01*
X-88580Y44455D01*
X-88625Y44565D01*
X-88680Y44655D01*
X-88745Y44725D01*
X-88820Y44775D01*
X-88905Y44805D01*
X-89000Y44815D01*
X-87000D01*
X-87095Y44805D01*
D02*
G37*
G36*
X-88842Y38451D02*
X-88971Y38314D01*
X-89072Y38192D01*
X-89144Y38084D01*
X-89187Y37991D01*
X-89201Y37912D01*
X-89187Y37847D01*
X-89144Y37797D01*
X-89072Y37761D01*
X-88971Y37739D01*
X-88842Y37732D01*
X-91670D01*
X-91527Y37743D01*
X-91377Y37775D01*
X-91219Y37828D01*
X-91054Y37903D01*
X-90881Y38000D01*
X-90700Y38118D01*
X-90512Y38258D01*
X-90113Y38601D01*
X-89903Y38805D01*
X-88842Y38451D01*
D02*
G37*
G36*
X-103688Y38552D02*
X-103673Y38380D01*
X-103648Y38228D01*
X-103613Y38096D01*
X-103568Y37985D01*
X-103513Y37894D01*
X-103448Y37823D01*
X-103373Y37772D01*
X-103288Y37742D01*
X-103193Y37732D01*
X-105193D01*
X-105098Y37742D01*
X-105013Y37772D01*
X-104938Y37823D01*
X-104873Y37894D01*
X-104818Y37985D01*
X-104773Y38096D01*
X-104738Y38228D01*
X-104713Y38380D01*
X-104698Y38552D01*
X-104693Y38744D01*
X-103693D01*
X-103688Y38552D01*
D02*
G37*
G36*
X-82710Y35073D02*
X-82800Y34953D01*
X-82856Y34846D01*
X-82878Y34755D01*
X-82866Y34677D01*
X-82820Y34613D01*
X-82739Y34564D01*
X-82625Y34528D01*
X-82476Y34507D01*
X-82293Y34500D01*
X-84500Y33500D01*
X-85707Y34500D01*
X-85510Y34507D01*
X-85319Y34528D01*
X-85133Y34564D01*
X-84954Y34613D01*
X-84780Y34677D01*
X-84613Y34755D01*
X-84451Y34846D01*
X-84295Y34953D01*
X-84144Y35073D01*
X-84000Y35207D01*
X-82586D01*
X-82710Y35073D01*
D02*
G37*
G36*
X-88285Y34905D02*
X-88256Y34820D01*
X-88205Y34745D01*
X-88135Y34680D01*
X-88046Y34625D01*
X-87936Y34580D01*
X-87805Y34545D01*
X-87656Y34520D01*
X-87485Y34505D01*
X-87296Y34500D01*
Y33500D01*
X-87485Y33495D01*
X-87656Y33480D01*
X-87805Y33455D01*
X-87936Y33420D01*
X-88046Y33375D01*
X-88135Y33320D01*
X-88205Y33255D01*
X-88256Y33180D01*
X-88285Y33095D01*
X-88296Y33000D01*
Y35000D01*
X-88285Y34905D01*
D02*
G37*
G36*
X-103293Y32260D02*
X-103336Y32237D01*
X-103375Y32199D01*
X-103408Y32145D01*
X-103436Y32076D01*
X-103459Y31992D01*
X-103477Y31892D01*
X-103490Y31776D01*
X-103500Y31500D01*
X-104500D01*
X-104503Y31646D01*
X-104523Y31892D01*
X-104541Y31992D01*
X-104564Y32076D01*
X-104592Y32145D01*
X-104625Y32199D01*
X-104664Y32237D01*
X-104707Y32260D01*
X-104756Y32268D01*
X-103244D01*
X-103293Y32260D01*
D02*
G37*
G36*
X-73856Y32073D02*
X-73705Y31953D01*
X-73549Y31846D01*
X-73387Y31755D01*
X-73220Y31677D01*
X-73046Y31613D01*
X-72866Y31564D01*
X-72681Y31528D01*
X-72490Y31507D01*
X-72293Y31500D01*
Y31500D01*
Y30500D01*
X-72490Y30493D01*
X-72681Y30472D01*
X-72866Y30436D01*
X-73046Y30387D01*
X-73220Y30323D01*
X-73387Y30245D01*
X-73549Y30154D01*
X-73705Y30047D01*
X-73856Y29927D01*
X-74000Y29793D01*
X-74914Y30293D01*
X-74914Y30293D01*
X-74914Y30293D01*
X-74787Y30434D01*
X-74688Y30576D01*
X-74617Y30717D01*
X-74575Y30859D01*
X-74561Y31000D01*
X-74575Y31141D01*
X-74613Y31269D01*
X-74617Y31283D01*
X-74688Y31424D01*
X-74787Y31566D01*
X-74914Y31707D01*
X-74914Y31707D01*
X-74914Y31707D01*
X-74000Y32207D01*
X-73856Y32073D01*
D02*
G37*
G36*
X-84250Y28775D02*
X-84302Y28818D01*
X-84370Y28856D01*
X-84454Y28890D01*
X-84553Y28919D01*
X-84669Y28944D01*
X-84801Y28964D01*
X-85112Y28991D01*
X-85486Y29000D01*
Y31000D01*
X-85291Y31002D01*
X-84801Y31036D01*
X-84669Y31056D01*
X-84553Y31081D01*
X-84454Y31110D01*
X-84370Y31144D01*
X-84302Y31182D01*
X-84250Y31225D01*
Y28775D01*
D02*
G37*
G36*
X-99314Y29150D02*
X-99303Y28999D01*
X-99284Y28866D01*
X-99257Y28750D01*
X-99223Y28652D01*
X-99182Y28572D01*
X-99133Y28510D01*
X-99076Y28465D01*
X-99012Y28437D01*
X-98940Y28428D01*
X-100006Y28440D01*
X-100065Y28449D01*
X-100118Y28475D01*
X-100165Y28519D01*
X-100206Y28580D01*
X-100240Y28659D01*
X-100268Y28756D01*
X-100290Y28870D01*
X-100305Y29002D01*
X-100315Y29151D01*
X-100318Y29318D01*
X-99318D01*
X-99314Y29150D01*
D02*
G37*
G36*
X-20000Y96500D02*
X-20882D01*
X-27500Y89000D01*
Y80000D01*
Y75500D01*
X-38500Y64500D01*
X-101000D01*
X-105000Y60500D01*
Y47500D01*
X-107500Y43000D01*
Y26500D01*
X-111000Y26500D01*
Y23500D01*
X-134000D01*
X-141500Y16000D01*
Y10000D01*
X-123417D01*
X-122159Y11258D01*
X-121955Y11059D01*
X-121457Y10630D01*
X-121329Y10544D01*
X-121220Y10486D01*
X-121130Y10457D01*
X-121060Y10456D01*
X-121008Y10483D01*
X-120975Y10539D01*
X-121153Y10000D01*
X-119370D01*
X-116870Y7500D01*
X-113000D01*
Y6500D01*
D01*
Y7500D01*
X-111050D01*
X-110699Y7094D01*
X-110740Y6950D01*
X-110906Y6756D01*
X-112110D01*
Y244D01*
X-106780D01*
Y6756D01*
X-107984D01*
X-108150Y6950D01*
X-108190Y7094D01*
X-107840Y7500D01*
X-106407D01*
X-105500Y8407D01*
Y12000D01*
X-101500D01*
Y9965D01*
X-101295D01*
X-101344Y9945D01*
X-101388Y9884D01*
X-101427Y9785D01*
X-101461Y9645D01*
X-101490Y9465D01*
X-101500Y9349D01*
Y7428D01*
X-101465Y7218D01*
X-101395Y6956D01*
X-101305Y6735D01*
X-101195Y6554D01*
X-101065Y6413D01*
X-100915Y6312D01*
X-100745Y6252D01*
X-100555Y6232D01*
X-101500D01*
Y3061D01*
X-101447Y3078D01*
X-100863Y2105D01*
X-100414Y3040D01*
X-100414Y2989D01*
X-100379Y2909D01*
X-100309Y2799D01*
X-100205Y2660D01*
X-99892Y2293D01*
X-99129Y1500D01*
X-94000D01*
X-92000Y-500D01*
X-94500Y-3000D01*
X-126000D01*
X-130500Y-7500D01*
Y-18000D01*
Y-20243D01*
X-130347Y-20244D01*
X-130471Y-20264D01*
X-130500Y-20280D01*
Y-20500D01*
Y-23317D01*
X-131267D01*
X-131650Y-23475D01*
X-131808Y-23858D01*
Y-24500D01*
X-136572D01*
X-136874Y-24000D01*
X-136862Y-23976D01*
X-136796Y-23933D01*
X-133695D01*
X-133630Y-23906D01*
X-133560Y-23915D01*
X-133445Y-23829D01*
X-133312Y-23774D01*
X-133285Y-23709D01*
X-133229Y-23667D01*
X-132949Y-23193D01*
X-132927Y-23032D01*
X-132876Y-22877D01*
X-132878Y-22851D01*
X-132893Y-22820D01*
X-132887Y-22786D01*
X-132994Y-22244D01*
X-133000D01*
X-133010Y-21879D01*
X-133017Y-21863D01*
X-133011Y-21846D01*
X-133038Y-21541D01*
X-133048Y-21522D01*
X-133043Y-21500D01*
X-133086Y-21245D01*
X-133100Y-21221D01*
X-133097Y-21194D01*
X-133151Y-20990D01*
X-133173Y-20962D01*
X-133173Y-20926D01*
X-133209Y-20837D01*
X-133286Y-20760D01*
X-133328Y-20659D01*
X-133426Y-20618D01*
X-133500Y-20542D01*
X-133609Y-20542D01*
X-133710Y-20500D01*
X-141500D01*
Y5354D01*
Y6500D01*
X-150000D01*
X-165000Y21500D01*
X-196500D01*
Y28000D01*
X-182500D01*
Y61014D01*
X-182502Y61209D01*
X-182536Y61699D01*
X-182556Y61831D01*
X-182581Y61947D01*
X-182610Y62046D01*
X-182644Y62130D01*
X-182682Y62198D01*
X-182725Y62250D01*
X-182500D01*
Y64750D01*
X-182725D01*
X-182682Y64802D01*
X-182644Y64870D01*
X-182610Y64954D01*
X-182581Y65053D01*
X-182556Y65169D01*
X-182536Y65301D01*
X-182509Y65612D01*
X-182500Y65986D01*
Y67761D01*
X-182510Y68141D01*
X-182540Y68481D01*
X-182590Y68781D01*
X-182660Y69041D01*
X-182750Y69261D01*
X-182860Y69441D01*
X-182990Y69581D01*
X-183140Y69681D01*
X-183310Y69741D01*
X-183500Y69761D01*
X-182500D01*
Y74500D01*
X-173361D01*
Y74898D01*
X-172979Y74908D01*
X-172637Y74938D01*
X-172335Y74988D01*
X-172073Y75058D01*
X-171852Y75148D01*
X-171671Y75258D01*
X-171530Y75388D01*
X-171430Y75538D01*
X-171369Y75708D01*
X-171349Y75898D01*
Y74500D01*
X-166059D01*
X-165960Y72815D01*
X-166000Y72775D01*
Y28000D01*
X-131000Y28000D01*
X-117500Y41500D01*
X-113500D01*
Y61000D01*
X-113500D01*
Y61500D01*
X-104000Y71000D01*
X-42000D01*
X-33000Y80000D01*
Y96500D01*
X-78000D01*
X-77928Y96428D01*
Y90521D01*
X-97479D01*
X-97500Y90529D01*
Y110000D01*
X-20000D01*
Y96500D01*
D02*
G37*
G36*
X-93332Y27416D02*
X-93302Y27350D01*
X-93252Y27292D01*
X-93182Y27241D01*
X-93092Y27198D01*
X-92982Y27163D01*
X-92852Y27136D01*
X-92702Y27117D01*
X-92532Y27105D01*
X-92342Y27101D01*
Y26101D01*
X-92532Y26097D01*
X-92852Y26066D01*
X-92982Y26039D01*
X-93092Y26004D01*
X-93182Y25961D01*
X-93252Y25911D01*
X-93302Y25853D01*
X-93332Y25786D01*
X-93342Y25712D01*
Y27490D01*
X-93332Y27416D01*
D02*
G37*
G36*
Y24276D02*
X-93302Y24218D01*
X-93252Y24167D01*
X-93182Y24123D01*
X-93092Y24085D01*
X-92982Y24055D01*
X-92852Y24031D01*
X-92702Y24014D01*
X-92532Y24003D01*
X-92342Y24000D01*
Y23000D01*
X-92532Y22996D01*
X-92702Y22983D01*
X-92852Y22961D01*
X-92982Y22930D01*
X-93092Y22891D01*
X-93182Y22843D01*
X-93252Y22786D01*
X-93302Y22720D01*
X-93332Y22646D01*
X-93342Y22563D01*
Y24340D01*
X-93332Y24276D01*
D02*
G37*
G36*
X-90693Y22500D02*
X-90703Y22595D01*
X-90733Y22680D01*
X-90784Y22755D01*
X-90854Y22820D01*
X-90946Y22875D01*
X-91057Y22920D01*
X-91188Y22955D01*
X-91340Y22980D01*
X-91512Y22995D01*
X-91704Y23000D01*
Y24000D01*
X-91512Y24005D01*
X-91340Y24020D01*
X-91188Y24045D01*
X-91057Y24080D01*
X-90946Y24125D01*
X-90854Y24180D01*
X-90784Y24245D01*
X-90733Y24320D01*
X-90703Y24405D01*
X-90693Y24500D01*
Y22500D01*
D02*
G37*
G36*
X-109490Y22216D02*
X-109460Y21874D01*
X-109410Y21572D01*
X-109340Y21311D01*
X-109250Y21089D01*
X-109140Y20908D01*
X-109010Y20767D01*
X-108860Y20667D01*
X-108690Y20606D01*
X-108500Y20586D01*
X-112500D01*
X-112310Y20606D01*
X-112140Y20667D01*
X-111990Y20767D01*
X-111860Y20908D01*
X-111750Y21089D01*
X-111660Y21311D01*
X-111590Y21572D01*
X-111540Y21874D01*
X-111510Y22216D01*
X-111500Y22598D01*
X-109500D01*
X-109490Y22216D01*
D02*
G37*
G36*
X-64020Y24078D02*
Y-2078D01*
X-70922Y-8980D01*
X-83000D01*
X-83390Y-9058D01*
X-83721Y-9279D01*
X-105422Y-30980D01*
X-121694D01*
X-121742Y-30959D01*
X-121918Y-30954D01*
X-122053Y-30943D01*
X-122158Y-30925D01*
X-122232Y-30906D01*
X-122244Y-30901D01*
Y-29335D01*
X-128756D01*
Y-31072D01*
X-128768Y-31077D01*
X-128842Y-31097D01*
X-128947Y-31114D01*
X-129082Y-31126D01*
X-129258Y-31130D01*
X-129306Y-31152D01*
X-130788D01*
X-131267Y-31101D01*
Y-29301D01*
X-134064D01*
X-134127Y-29259D01*
X-134517Y-29182D01*
X-138376D01*
X-140898Y-26660D01*
X-140678Y-26210D01*
X-140600Y-26244D01*
X-140492Y-26291D01*
X-140310Y-26294D01*
X-140154Y-26306D01*
X-140011Y-26327D01*
X-139880Y-26355D01*
X-139761Y-26390D01*
X-139653Y-26432D01*
X-139555Y-26481D01*
X-139465Y-26535D01*
X-139383Y-26597D01*
X-139289Y-26682D01*
X-139243Y-26699D01*
X-138960Y-26982D01*
X-138629Y-27203D01*
X-138239Y-27281D01*
X-134517D01*
X-134127Y-27203D01*
X-133796Y-26982D01*
X-133575Y-26651D01*
X-133498Y-26261D01*
X-133575Y-25871D01*
X-133695Y-25691D01*
X-133498Y-25218D01*
X-133474Y-25191D01*
X-131267D01*
Y-23858D01*
X-129925D01*
X-129298Y-24531D01*
X-129027Y-24866D01*
X-128818Y-25163D01*
X-128756Y-25271D01*
Y-26084D01*
X-128768Y-26104D01*
X-128756Y-26150D01*
X-128773Y-26194D01*
X-128756Y-26232D01*
Y-28563D01*
X-122244D01*
Y-23232D01*
X-124926D01*
X-124947Y-23220D01*
X-124993Y-23232D01*
X-125849D01*
X-125886Y-23216D01*
X-126135Y-23074D01*
X-126414Y-22881D01*
X-127094Y-22307D01*
X-127474Y-21940D01*
X-127502Y-21930D01*
X-128185Y-21247D01*
X-128681Y-20915D01*
X-129266Y-20799D01*
X-129352D01*
X-129640Y-20773D01*
X-129814Y-20265D01*
X-129805Y-20246D01*
X-129823Y-20203D01*
X-129812Y-20158D01*
X-129835Y-20122D01*
Y-14244D01*
X-129959D01*
Y-7724D01*
X-125776Y-3541D01*
X-94500D01*
X-94117Y-3383D01*
X-94117Y-3383D01*
X-91764Y-1029D01*
X-79526D01*
X-79499Y-1041D01*
X-79142Y-1050D01*
X-78865Y-1074D01*
X-78767Y-1089D01*
X-78686Y-1106D01*
X-78631Y-1122D01*
X-78608Y-1131D01*
X-78605Y-1134D01*
X-78593Y-1143D01*
X-78588Y-1145D01*
X-77878Y-1619D01*
X-77000Y-1794D01*
X-76122Y-1619D01*
X-75378Y-1122D01*
X-74881Y-378D01*
X-74706Y500D01*
X-74881Y1378D01*
X-75378Y2122D01*
X-76122Y2620D01*
X-77000Y2794D01*
X-77878Y2620D01*
X-78588Y2145D01*
X-78593Y2143D01*
X-78605Y2134D01*
X-78608Y2131D01*
X-78631Y2122D01*
X-78686Y2106D01*
X-78767Y2089D01*
X-78860Y2074D01*
X-79313Y2043D01*
X-79492Y2041D01*
X-79520Y2029D01*
X-93972D01*
X-94000Y2041D01*
X-94000Y2041D01*
X-98899D01*
X-99490Y2657D01*
X-99782Y2999D01*
X-99864Y3107D01*
X-99890Y3148D01*
Y6756D01*
X-100472D01*
X-100498Y6770D01*
X-100624Y6784D01*
X-100670Y6800D01*
X-100711Y6827D01*
X-100761Y6881D01*
X-100820Y6979D01*
X-100881Y7129D01*
X-100935Y7332D01*
X-100959Y7473D01*
Y8103D01*
X-100718Y8503D01*
X-100459Y8503D01*
X-97516D01*
Y8779D01*
X-97452Y9252D01*
X-97016Y9252D01*
X-94450D01*
X-94195Y9039D01*
X-94017Y8868D01*
X-93967Y8848D01*
X-90877Y5757D01*
X-90546Y5536D01*
X-90259Y5479D01*
X-90184Y5448D01*
X-90119Y5122D01*
X-89622Y4378D01*
X-88878Y3881D01*
X-88000Y3706D01*
X-87122Y3881D01*
X-86378Y4378D01*
X-85881Y5122D01*
X-85706Y6000D01*
X-85881Y6878D01*
X-86378Y7622D01*
X-87122Y8119D01*
X-88000Y8294D01*
X-88878Y8119D01*
X-89622Y7622D01*
X-90077Y7841D01*
X-92221Y9986D01*
X-92239Y10034D01*
X-92618Y10440D01*
X-92743Y10595D01*
X-92830Y10718D01*
Y10941D01*
X-92812Y10966D01*
X-92821Y11013D01*
X-92801Y11055D01*
X-92830Y11134D01*
Y12685D01*
X-92510Y12709D01*
X-92338Y12710D01*
X-92287Y12732D01*
X-90889D01*
X-90864Y12716D01*
X-90835Y12723D01*
X-90809Y12711D01*
X-90680Y12705D01*
X-90583Y12690D01*
X-90491Y12665D01*
X-90400Y12630D01*
X-90311Y12585D01*
X-90220Y12527D01*
X-90129Y12456D01*
X-90037Y12369D01*
X-89943Y12267D01*
X-89839Y12133D01*
X-89765Y12092D01*
X-89622Y11878D01*
X-88878Y11381D01*
X-88000Y11206D01*
X-87122Y11381D01*
X-86378Y11878D01*
X-85881Y12622D01*
X-85706Y13500D01*
X-85881Y14378D01*
X-86378Y15122D01*
X-87122Y15619D01*
X-88000Y15794D01*
X-88878Y15619D01*
X-89269Y15358D01*
X-89370Y15336D01*
X-89685Y15117D01*
X-89818Y15039D01*
X-89950Y14970D01*
X-90078Y14913D01*
X-90199Y14868D01*
X-90315Y14834D01*
X-90425Y14811D01*
X-90530Y14798D01*
X-90654Y14792D01*
X-90699Y14771D01*
X-92279D01*
X-92328Y14793D01*
X-92503Y14797D01*
X-92637Y14809D01*
X-92742Y14826D01*
X-92816Y14846D01*
X-92830Y14851D01*
Y18701D01*
Y22410D01*
X-92828Y22410D01*
X-92751Y22429D01*
X-92642Y22444D01*
X-92505Y22455D01*
X-92329Y22459D01*
X-92281Y22480D01*
X-91767D01*
X-91719Y22459D01*
X-91543Y22454D01*
X-91408Y22443D01*
X-91302Y22425D01*
X-91228Y22406D01*
X-91216Y22401D01*
Y18744D01*
X-85886D01*
Y25256D01*
X-85521Y25582D01*
X-77899D01*
X-77508Y25659D01*
X-77178Y25880D01*
X-73679Y29379D01*
X-73631Y29397D01*
X-73502Y29517D01*
X-73384Y29612D01*
X-73263Y29694D01*
X-73140Y29764D01*
X-73012Y29823D01*
X-72881Y29871D01*
X-72744Y29909D01*
X-72601Y29936D01*
X-72450Y29953D01*
X-72273Y29959D01*
X-72227Y29980D01*
X-69922D01*
X-64020Y24078D01*
D02*
G37*
G36*
X-100783Y25001D02*
X-100718Y24527D01*
Y24330D01*
X-97516Y24330D01*
X-97452Y23856D01*
Y21851D01*
Y18701D01*
Y13598D01*
X-97516Y13125D01*
X-97952Y13125D01*
X-100718D01*
Y12927D01*
X-100783Y12454D01*
X-101290Y12454D01*
X-101500Y12541D01*
X-105500D01*
X-105883Y12383D01*
X-106041Y12000D01*
Y8632D01*
X-106632Y8041D01*
X-107840D01*
X-107860Y8033D01*
X-107880Y8040D01*
X-107925Y8017D01*
X-108043Y8066D01*
X-108404Y8388D01*
X-108399Y8561D01*
X-108388Y8693D01*
X-108370Y8797D01*
X-108351Y8868D01*
X-108343Y8888D01*
X-108229Y8950D01*
X-108062Y9019D01*
X-108051Y9047D01*
X-108024Y9061D01*
X-107973Y9235D01*
X-107904Y9402D01*
X-107915Y9430D01*
X-107907Y9458D01*
X-107993Y9617D01*
X-108062Y9785D01*
X-108090Y9796D01*
X-108104Y9822D01*
X-108278Y9874D01*
X-108425Y9935D01*
Y10500D01*
X-108503Y10890D01*
X-108724Y11221D01*
X-109779Y12276D01*
X-110110Y12497D01*
X-110500Y12575D01*
X-110890Y12497D01*
X-111221Y12276D01*
X-111442Y11945D01*
X-111520Y11555D01*
X-111442Y11165D01*
X-111221Y10834D01*
X-110746Y10359D01*
X-110740Y10336D01*
X-110777Y9915D01*
X-110828Y9785D01*
X-110828D01*
X-110983Y9458D01*
X-110975Y9430D01*
X-110986Y9402D01*
X-110917Y9234D01*
X-110865Y9061D01*
X-110839Y9047D01*
X-110828Y9019D01*
X-110661Y8950D01*
X-110547Y8888D01*
X-110539Y8868D01*
X-110519Y8797D01*
X-110502Y8693D01*
X-110491Y8561D01*
X-110486Y8388D01*
X-110847Y8066D01*
X-110965Y8017D01*
X-111010Y8040D01*
X-111030Y8033D01*
X-111050Y8041D01*
X-116557D01*
Y9946D01*
X-116643Y10377D01*
X-116887Y10743D01*
X-117253Y10987D01*
X-117684Y11073D01*
X-120882D01*
X-120921Y11081D01*
X-121150D01*
X-121589Y11458D01*
X-121781Y11645D01*
X-121838Y11668D01*
X-122281Y11964D01*
X-122866Y12081D01*
X-140959D01*
Y15776D01*
X-133776Y22959D01*
X-112392D01*
X-112045Y22459D01*
X-112051Y22247D01*
X-112077Y21942D01*
X-112120Y21687D01*
X-112174Y21483D01*
X-112235Y21333D01*
X-112294Y21235D01*
X-112344Y21181D01*
X-112385Y21154D01*
X-112431Y21138D01*
X-112557Y21124D01*
X-112583Y21110D01*
X-113756D01*
Y15779D01*
X-107244D01*
Y21110D01*
X-108417D01*
X-108443Y21124D01*
X-108569Y21138D01*
X-108615Y21154D01*
X-108656Y21181D01*
X-108706Y21235D01*
X-108765Y21333D01*
X-108826Y21483D01*
X-108880Y21687D01*
X-108923Y21942D01*
X-108949Y22247D01*
X-108959Y22612D01*
X-108971Y22638D01*
Y24973D01*
X-103193D01*
X-103053Y25001D01*
X-100783D01*
D02*
G37*
G36*
X-93343Y14657D02*
X-93312Y14571D01*
X-93261Y14496D01*
X-93190Y14432D01*
X-93099Y14376D01*
X-92988Y14332D01*
X-92856Y14296D01*
X-92705Y14271D01*
X-92533Y14256D01*
X-92342Y14251D01*
Y13251D01*
X-92532Y13250D01*
X-93182Y13202D01*
X-93252Y13184D01*
X-93302Y13164D01*
X-93332Y13140D01*
X-93342Y13114D01*
X-93354Y14751D01*
X-93343Y14657D01*
D02*
G37*
G36*
X-89413Y12467D02*
X-89530Y12616D01*
X-89651Y12750D01*
X-89777Y12867D01*
X-89907Y12969D01*
X-90042Y13055D01*
X-90181Y13126D01*
X-90325Y13181D01*
X-90473Y13220D01*
X-90625Y13244D01*
X-90782Y13251D01*
X-90630Y14251D01*
X-90483Y14258D01*
X-90334Y14277D01*
X-90183Y14309D01*
X-90029Y14354D01*
X-89873Y14412D01*
X-89715Y14482D01*
X-89555Y14565D01*
X-89392Y14661D01*
X-89061Y14892D01*
X-89413Y12467D01*
D02*
G37*
G36*
X-93412Y11014D02*
X-93451Y10933D01*
X-93458Y10834D01*
X-93434Y10719D01*
X-93379Y10586D01*
X-93293Y10436D01*
X-93175Y10269D01*
X-93026Y10085D01*
X-92635Y9664D01*
X-93642Y9257D01*
X-93833Y9442D01*
X-94183Y9735D01*
X-94341Y9844D01*
X-94488Y9927D01*
X-94624Y9985D01*
X-94749Y10018D01*
X-94862Y10025D01*
X-94965Y10008D01*
X-95056Y9965D01*
X-93342Y11079D01*
X-93412Y11014D01*
D02*
G37*
G36*
X-108540Y9392D02*
X-108625Y9362D01*
X-108700Y9312D01*
X-108765Y9242D01*
X-108820Y9152D01*
X-108865Y9042D01*
X-108900Y8912D01*
X-108925Y8762D01*
X-108940Y8592D01*
X-108945Y8402D01*
X-109945D01*
X-109950Y8592D01*
X-109965Y8762D01*
X-109990Y8912D01*
X-110025Y9042D01*
X-110070Y9152D01*
X-110125Y9242D01*
X-110190Y9312D01*
X-110265Y9362D01*
X-110350Y9392D01*
X-110445Y9402D01*
X-108445D01*
X-108540Y9392D01*
D02*
G37*
G36*
X-108940Y7052D02*
X-108925Y6880D01*
X-108900Y6728D01*
X-108865Y6596D01*
X-108820Y6485D01*
X-108765Y6394D01*
X-108700Y6323D01*
X-108625Y6272D01*
X-108540Y6242D01*
X-108445Y6232D01*
X-110445D01*
X-110350Y6242D01*
X-110265Y6272D01*
X-110190Y6323D01*
X-110125Y6394D01*
X-110070Y6485D01*
X-110025Y6596D01*
X-109990Y6728D01*
X-109965Y6880D01*
X-109950Y7052D01*
X-109945Y7244D01*
X-108945D01*
X-108940Y7052D01*
D02*
G37*
G36*
X-89748Y5924D02*
X-89753Y5934D01*
X-89765Y5943D01*
X-89786Y5952D01*
X-89815Y5959D01*
X-89851Y5965D01*
X-89896Y5970D01*
X-90079Y5978D01*
X-90156Y5978D01*
Y6978D01*
X-89447Y6984D01*
X-89748Y5924D01*
D02*
G37*
G36*
X-78250Y-725D02*
X-78302Y-682D01*
X-78370Y-644D01*
X-78454Y-610D01*
X-78553Y-581D01*
X-78669Y-556D01*
X-78801Y-536D01*
X-79112Y-509D01*
X-79486Y-500D01*
Y1500D01*
X-79291Y1502D01*
X-78801Y1536D01*
X-78669Y1556D01*
X-78553Y1581D01*
X-78454Y1610D01*
X-78370Y1644D01*
X-78302Y1682D01*
X-78250Y1725D01*
Y-725D01*
D02*
G37*
G36*
X-144913Y-3392D02*
X-145036Y-3536D01*
X-145145Y-3681D01*
X-145239Y-3827D01*
X-145319Y-3974D01*
X-145384Y-4123D01*
X-145435Y-4272D01*
X-145471Y-4423D01*
X-145493Y-4574D01*
X-145500Y-4727D01*
X-146500D01*
X-146507Y-4574D01*
X-146529Y-4423D01*
X-146565Y-4272D01*
X-146616Y-4123D01*
X-146681Y-3974D01*
X-146761Y-3827D01*
X-146855Y-3681D01*
X-146964Y-3536D01*
X-147087Y-3392D01*
X-147225Y-3250D01*
X-144775D01*
X-144913Y-3392D01*
D02*
G37*
G36*
X-145495Y-13948D02*
X-145480Y-14120D01*
X-145455Y-14272D01*
X-145420Y-14404D01*
X-145375Y-14515D01*
X-145320Y-14606D01*
X-145255Y-14677D01*
X-145180Y-14728D01*
X-145095Y-14758D01*
X-145000Y-14768D01*
X-147000D01*
X-146905Y-14758D01*
X-146820Y-14728D01*
X-146745Y-14677D01*
X-146680Y-14606D01*
X-146625Y-14515D01*
X-146580Y-14404D01*
X-146545Y-14272D01*
X-146520Y-14120D01*
X-146505Y-13948D01*
X-146500Y-13756D01*
X-145500D01*
X-145495Y-13948D01*
D02*
G37*
G36*
X-144095Y-20242D02*
X-144180Y-20272D01*
X-144255Y-20323D01*
X-144320Y-20394D01*
X-144375Y-20485D01*
X-144420Y-20596D01*
X-144455Y-20728D01*
X-144480Y-20880D01*
X-144495Y-21052D01*
X-144500Y-21244D01*
X-145500D01*
X-145505Y-21052D01*
X-145520Y-20880D01*
X-145545Y-20728D01*
X-145580Y-20596D01*
X-145625Y-20485D01*
X-145680Y-20394D01*
X-145745Y-20323D01*
X-145820Y-20272D01*
X-145905Y-20242D01*
X-146000Y-20232D01*
X-144000D01*
X-144095Y-20242D01*
D02*
G37*
G36*
X-127457Y-22710D02*
X-126743Y-23311D01*
X-126424Y-23532D01*
X-126128Y-23701D01*
X-125858Y-23818D01*
X-125612Y-23881D01*
X-125391Y-23892D01*
X-125194Y-23851D01*
X-125022Y-23756D01*
X-128232Y-26179D01*
X-128102Y-26042D01*
X-128033Y-25873D01*
X-128025Y-25671D01*
X-128077Y-25437D01*
X-128189Y-25170D01*
X-128362Y-24871D01*
X-128595Y-24540D01*
X-128889Y-24176D01*
X-129658Y-23351D01*
X-127850Y-22330D01*
X-127457Y-22710D01*
D02*
G37*
G36*
X-138747Y-24216D02*
X-138732Y-24405D01*
X-138707Y-24584D01*
X-138670Y-24754D01*
X-138622Y-24914D01*
X-138564Y-25065D01*
X-138494Y-25207D01*
X-138413Y-25339D01*
X-138321Y-25462D01*
X-138218Y-25575D01*
X-138925Y-26282D01*
X-139038Y-26179D01*
X-139161Y-26087D01*
X-139293Y-26006D01*
X-139435Y-25936D01*
X-139586Y-25878D01*
X-139746Y-25830D01*
X-139916Y-25793D01*
X-140095Y-25768D01*
X-140284Y-25753D01*
X-140482Y-25750D01*
X-138750Y-24017D01*
X-138747Y-24216D01*
D02*
G37*
G36*
X-157740Y-25264D02*
X-157589Y-25368D01*
X-157438Y-25460D01*
X-157363Y-25500D01*
X-156101D01*
X-156099Y-25500D01*
X-156000Y-25541D01*
X-155569D01*
X-153511Y-25701D01*
X-153226Y-26111D01*
X-153283Y-26311D01*
X-154693Y-27331D01*
X-154967D01*
Y-27529D01*
X-157000Y-29000D01*
X-163000D01*
Y-25500D01*
X-157851D01*
X-157890Y-25147D01*
X-157740Y-25264D01*
D02*
G37*
G36*
X-152791Y-32459D02*
X-152903Y-32437D01*
X-153030Y-32444D01*
X-153171Y-32478D01*
X-153326Y-32542D01*
X-153496Y-32634D01*
X-153680Y-32754D01*
X-153878Y-32903D01*
X-154317Y-33286D01*
X-154559Y-33520D01*
X-155162Y-32709D01*
X-155028Y-32574D01*
X-154483Y-31954D01*
X-154462Y-31913D01*
X-154455Y-31883D01*
X-152791Y-32459D01*
D02*
G37*
G36*
X-122758Y-31095D02*
X-122728Y-31180D01*
X-122677Y-31255D01*
X-122606Y-31320D01*
X-122515Y-31375D01*
X-122404Y-31420D01*
X-122272Y-31455D01*
X-122120Y-31480D01*
X-121948Y-31495D01*
X-121756Y-31500D01*
Y-32500D01*
X-121948Y-32505D01*
X-122120Y-32520D01*
X-122272Y-32545D01*
X-122404Y-32580D01*
X-122515Y-32625D01*
X-122606Y-32680D01*
X-122677Y-32745D01*
X-122728Y-32820D01*
X-122758Y-32905D01*
X-122768Y-33000D01*
Y-31000D01*
X-122758Y-31095D01*
D02*
G37*
G36*
X-128232Y-33171D02*
X-128242Y-33076D01*
X-128272Y-32991D01*
X-128323Y-32916D01*
X-128394Y-32851D01*
X-128485Y-32796D01*
X-128596Y-32751D01*
X-128728Y-32716D01*
X-128880Y-32691D01*
X-129052Y-32676D01*
X-129244Y-32671D01*
Y-31671D01*
X-129052Y-31666D01*
X-128880Y-31651D01*
X-128728Y-31626D01*
X-128596Y-31591D01*
X-128485Y-31546D01*
X-128394Y-31491D01*
X-128323Y-31426D01*
X-128272Y-31351D01*
X-128242Y-31266D01*
X-128232Y-31171D01*
Y-33171D01*
D02*
G37*
G36*
X-153997Y-37784D02*
X-153872Y-37875D01*
X-153743Y-37946D01*
X-153609Y-37997D01*
X-153472Y-38030D01*
X-153330Y-38044D01*
X-153185Y-38038D01*
X-153035Y-38013D01*
X-152881Y-37969D01*
X-152723Y-37906D01*
X-153611Y-40183D01*
X-153698Y-39985D01*
X-154048Y-39306D01*
X-154136Y-39165D01*
X-154313Y-38917D01*
X-154402Y-38811D01*
X-154492Y-38715D01*
X-154118Y-37675D01*
X-153997Y-37784D01*
D02*
G37*
G36*
X-141495Y-63448D02*
X-141480Y-63620D01*
X-141455Y-63772D01*
X-141420Y-63904D01*
X-141375Y-64015D01*
X-141320Y-64106D01*
X-141255Y-64177D01*
X-141180Y-64228D01*
X-141095Y-64258D01*
X-141000Y-64268D01*
X-143000D01*
X-142905Y-64258D01*
X-142820Y-64228D01*
X-142745Y-64177D01*
X-142680Y-64106D01*
X-142625Y-64015D01*
X-142580Y-63904D01*
X-142545Y-63772D01*
X-142520Y-63620D01*
X-142505Y-63448D01*
X-142500Y-63256D01*
X-141500D01*
X-141495Y-63448D01*
D02*
G37*
G36*
X-150893Y-63747D02*
X-150525Y-64058D01*
X-150363Y-64171D01*
X-150214Y-64256D01*
X-150080Y-64313D01*
X-149960Y-64341D01*
X-149854D01*
X-149762Y-64313D01*
X-149684Y-64256D01*
X-151098Y-65670D01*
X-151042Y-65592D01*
X-151013Y-65501D01*
Y-65395D01*
X-151042Y-65274D01*
X-151098Y-65140D01*
X-151183Y-64991D01*
X-151296Y-64829D01*
X-151438Y-64652D01*
X-151805Y-64256D01*
X-151098Y-63549D01*
X-150893Y-63747D01*
D02*
G37*
G36*
X-149103Y-65952D02*
X-149083Y-66157D01*
X-149048Y-66360D01*
X-148999Y-66560D01*
X-148937Y-66757D01*
X-148861Y-66951D01*
X-148770Y-67143D01*
X-148666Y-67332D01*
X-148548Y-67518D01*
X-148417Y-67702D01*
X-149047D01*
X-146792Y-69744D01*
X-147161Y-69765D01*
X-147536Y-69829D01*
X-147916Y-69935D01*
X-148303Y-70083D01*
X-148695Y-70274D01*
X-149093Y-70508D01*
X-149497Y-70783D01*
X-149907Y-71101D01*
X-150322Y-71462D01*
X-150744Y-71865D01*
X-153220Y-70098D01*
X-152615Y-69472D01*
X-151667Y-68355D01*
X-151323Y-67864D01*
X-151066Y-67417D01*
X-150896Y-67015D01*
X-150813Y-66658D01*
X-150817Y-66346D01*
X-150908Y-66078D01*
X-151086Y-65856D01*
X-150241Y-66621D01*
X-150221Y-66560D01*
X-150173Y-66360D01*
X-150138Y-66157D01*
X-150117Y-65952D01*
X-150110Y-65744D01*
X-149110D01*
X-149103Y-65952D01*
D02*
G37*
G36*
X-140082Y-65733D02*
X-140166Y-66009D01*
X-140165Y-66326D01*
X-140079Y-66686D01*
X-139908Y-67089D01*
X-139652Y-67535D01*
X-139311Y-68023D01*
X-138886Y-68554D01*
X-137780Y-69744D01*
X-139902Y-71865D01*
X-140518Y-71270D01*
X-141623Y-70334D01*
X-142111Y-69994D01*
X-142556Y-69738D01*
X-142959Y-69567D01*
X-143320Y-69481D01*
X-143637Y-69480D01*
X-143912Y-69563D01*
X-144144Y-69732D01*
X-139914Y-65501D01*
X-140082Y-65733D01*
D02*
G37*
G36*
X-153485Y-82272D02*
X-153440Y-82783D01*
X-153365Y-83235D01*
X-153260Y-83626D01*
X-153125Y-83957D01*
X-152960Y-84228D01*
X-152765Y-84439D01*
X-152540Y-84590D01*
X-152285Y-84681D01*
X-152000Y-84712D01*
X-156834Y-84700D01*
X-156770Y-84670D01*
X-156713Y-84580D01*
X-156663Y-84430D01*
X-156620Y-84220D01*
X-156583Y-83950D01*
X-156530Y-83230D01*
X-156500Y-81700D01*
X-153500D01*
X-153485Y-82272D01*
D02*
G37*
G36*
X-132107Y-83255D02*
X-132078Y-83598D01*
X-132029Y-83923D01*
X-131960Y-84230D01*
X-131872Y-84519D01*
X-131764Y-84791D01*
X-131637Y-85045D01*
X-131490Y-85281D01*
X-131323Y-85500D01*
X-131137Y-85701D01*
X-136098D01*
X-135911Y-85500D01*
X-135745Y-85281D01*
X-135598Y-85045D01*
X-135470Y-84791D01*
X-135362Y-84519D01*
X-135274Y-84230D01*
X-135205Y-83923D01*
X-135156Y-83598D01*
X-135127Y-83255D01*
X-135117Y-82895D01*
X-132117D01*
X-132107Y-83255D01*
D02*
G37*
G36*
X-142279Y-28721D02*
X-141000Y-30000D01*
Y-44000D01*
X-126500Y-58500D01*
X-97500D01*
Y-101000D01*
X-117000D01*
X-118000Y-100000D01*
Y-78000D01*
X-118500D01*
X-144000Y-52500D01*
Y-29500D01*
X-148500Y-25000D01*
X-156000D01*
Y-21000D01*
X-150000D01*
X-142279Y-28721D01*
D02*
G37*
%LPC*%
G36*
X-82449Y23020D02*
X-82839Y22942D01*
X-83170Y22721D01*
X-83391Y22390D01*
X-83468Y22000D01*
Y21803D01*
X-83391Y21413D01*
X-83170Y21082D01*
X-81209Y19122D01*
X-80878Y18901D01*
X-80770Y18879D01*
X-72670Y10779D01*
X-72339Y10558D01*
X-72060Y10503D01*
X-71961Y10459D01*
X-71833Y10456D01*
X-71733Y10449D01*
X-71650Y10438D01*
X-71584Y10424D01*
X-71537Y10410D01*
X-71509Y10398D01*
X-71508Y10398D01*
X-71502Y10390D01*
X-71487Y10379D01*
X-71482Y10374D01*
X-71475Y10371D01*
X-71454Y10357D01*
X-71431Y10302D01*
X-71288Y10243D01*
X-71161Y10155D01*
X-71103Y10166D01*
X-71048Y10143D01*
X-70906Y10203D01*
X-70754Y10231D01*
X-70720Y10279D01*
X-70666Y10302D01*
X-70607Y10445D01*
X-70582Y10480D01*
X-69500D01*
X-69110Y10558D01*
X-68779Y10779D01*
X-68558Y11110D01*
X-68480Y11500D01*
X-68558Y11890D01*
X-68779Y12221D01*
X-69110Y12442D01*
X-69500Y12520D01*
X-70582D01*
X-70607Y12555D01*
X-70666Y12698D01*
X-70720Y12721D01*
X-70754Y12769D01*
X-70906Y12797D01*
X-71048Y12856D01*
X-71103Y12834D01*
X-71161Y12845D01*
X-71288Y12757D01*
X-71431Y12698D01*
X-71886Y12884D01*
X-71902Y12896D01*
X-79570Y20563D01*
X-79901Y20785D01*
X-80010Y20806D01*
X-81485Y22282D01*
X-81507Y22390D01*
X-81728Y22721D01*
X-82059Y22942D01*
X-82449Y23020D01*
D02*
G37*
G36*
X-114693Y-15950D02*
X-114767Y-15958D01*
X-114767Y-15958D01*
X-114778Y-15959D01*
X-114894Y-15971D01*
X-115095Y-15988D01*
X-115454Y-16172D01*
X-115604Y-16239D01*
X-115909Y-16354D01*
X-116038Y-16392D01*
X-116164Y-16422D01*
X-116280Y-16443D01*
X-116388Y-16455D01*
X-116507Y-16459D01*
X-116553Y-16480D01*
X-122395D01*
X-122443Y-16459D01*
X-122616Y-16454D01*
X-122748Y-16443D01*
X-122852Y-16425D01*
X-122923Y-16406D01*
X-122943Y-16398D01*
X-123005Y-16284D01*
X-123064Y-16141D01*
X-123074Y-16117D01*
X-123102Y-16106D01*
X-123116Y-16079D01*
X-123290Y-16028D01*
X-123457Y-15959D01*
X-123485Y-15970D01*
X-123514Y-15962D01*
X-123672Y-16048D01*
X-123840Y-16117D01*
X-123851Y-16145D01*
X-123878Y-16160D01*
X-123885Y-16184D01*
X-123885Y-16184D01*
X-123900Y-16235D01*
X-123900Y-16235D01*
X-123902Y-16242D01*
X-123929Y-16333D01*
X-123990Y-16480D01*
X-125610D01*
X-126000Y-16558D01*
X-126331Y-16779D01*
X-126552Y-17110D01*
X-126630Y-17500D01*
X-126552Y-17890D01*
X-126331Y-18221D01*
X-126000Y-18442D01*
X-125610Y-18520D01*
X-123990D01*
X-123929Y-18667D01*
X-123878Y-18841D01*
X-123851Y-18855D01*
X-123840Y-18883D01*
X-123672Y-18952D01*
X-123513Y-19038D01*
X-123485Y-19030D01*
X-123457Y-19041D01*
X-123290Y-18972D01*
X-123116Y-18921D01*
X-123102Y-18894D01*
X-123074Y-18883D01*
X-123005Y-18716D01*
X-122943Y-18602D01*
X-122923Y-18594D01*
X-122852Y-18575D01*
X-122748Y-18557D01*
X-122616Y-18546D01*
X-122443Y-18541D01*
X-122395Y-18520D01*
X-116872D01*
X-116827Y-18541D01*
X-116697Y-18547D01*
X-116604Y-18562D01*
X-116521Y-18586D01*
X-116445Y-18617D01*
X-116372Y-18658D01*
X-116302Y-18711D01*
X-116232Y-18776D01*
X-116163Y-18856D01*
X-116094Y-18954D01*
X-116016Y-19089D01*
X-115857Y-19210D01*
X-115769Y-19282D01*
X-115756Y-19292D01*
X-115756D01*
X-115702Y-19335D01*
X-115693Y-19335D01*
X-115686Y-19340D01*
X-115489Y-19313D01*
X-115290Y-19293D01*
X-115285Y-19286D01*
X-115276Y-19285D01*
X-115224Y-19217D01*
X-115155Y-19126D01*
X-115096Y-19053D01*
X-114997Y-18966D01*
X-114480Y-18882D01*
X-114390Y-18942D01*
X-114000Y-19020D01*
X-113610Y-18942D01*
X-113279Y-18721D01*
X-113058Y-18390D01*
X-112980Y-18000D01*
X-113058Y-17610D01*
X-113279Y-17279D01*
X-113779Y-16779D01*
X-114110Y-16558D01*
X-114340Y-16512D01*
X-114350Y-16423D01*
X-114366Y-16222D01*
X-114371Y-16218D01*
X-114372Y-16212D01*
X-114528Y-16084D01*
X-114682Y-15954D01*
X-114688Y-15954D01*
X-114693Y-15950D01*
D02*
G37*
%LPD*%
G36*
X-71048Y10685D02*
X-71087Y10745D01*
X-71138Y10798D01*
X-71199Y10846D01*
X-71272Y10887D01*
X-71357Y10921D01*
X-71452Y10950D01*
X-71559Y10972D01*
X-71678Y10987D01*
X-71808Y10997D01*
X-71949Y11000D01*
Y12000D01*
X-71808Y12003D01*
X-71559Y12028D01*
X-71452Y12050D01*
X-71357Y12079D01*
X-71272Y12113D01*
X-71199Y12155D01*
X-71138Y12202D01*
X-71087Y12255D01*
X-71048Y12315D01*
Y10685D01*
D02*
G37*
G36*
X-123447Y-16595D02*
X-123417Y-16680D01*
X-123367Y-16755D01*
X-123297Y-16820D01*
X-123207Y-16875D01*
X-123097Y-16920D01*
X-122967Y-16955D01*
X-122817Y-16980D01*
X-122647Y-16995D01*
X-122457Y-17000D01*
Y-18000D01*
X-122647Y-18005D01*
X-122817Y-18020D01*
X-122967Y-18045D01*
X-123097Y-18080D01*
X-123207Y-18125D01*
X-123297Y-18180D01*
X-123367Y-18245D01*
X-123417Y-18320D01*
X-123447Y-18405D01*
X-123457Y-18500D01*
Y-16500D01*
X-123447Y-16595D01*
D02*
G37*
G36*
X-115548Y-18817D02*
X-115638Y-18662D01*
X-115736Y-18523D01*
X-115841Y-18400D01*
X-115955Y-18294D01*
X-116076Y-18204D01*
X-116205Y-18131D01*
X-116342Y-18074D01*
X-116487Y-18033D01*
X-116640Y-18008D01*
X-116800Y-18000D01*
X-116486Y-17000D01*
X-116348Y-16995D01*
X-116203Y-16979D01*
X-116053Y-16952D01*
X-115898Y-16915D01*
X-115737Y-16867D01*
X-115398Y-16740D01*
X-115220Y-16660D01*
X-114848Y-16469D01*
X-115548Y-18817D01*
D02*
G37*
%LPC*%
G36*
X-100783Y21903D02*
X-105405D01*
Y18701D01*
X-100783D01*
Y21903D01*
D02*
G37*
G36*
X-120279Y20064D02*
Y17181D01*
D01*
X-120221Y17094D01*
X-119890Y16873D01*
X-119500Y16795D01*
X-119110Y16873D01*
X-118779Y17094D01*
X-118558Y17425D01*
X-118480Y17815D01*
Y17844D01*
X-118558Y18234D01*
X-118779Y18565D01*
X-120279Y20064D01*
D02*
G37*
%LPD*%
G36*
X-167712Y85117D02*
X-167797Y85087D01*
X-167872Y85036D01*
X-167937Y84965D01*
X-167992Y84874D01*
X-168037Y84763D01*
X-168072Y84631D01*
X-168097Y84480D01*
X-168112Y84308D01*
X-168117Y84115D01*
X-169117D01*
X-169122Y84308D01*
X-169137Y84480D01*
X-169162Y84631D01*
X-169197Y84763D01*
X-169242Y84874D01*
X-169297Y84965D01*
X-169362Y85036D01*
X-169437Y85087D01*
X-169522Y85117D01*
X-169617Y85127D01*
X-167617D01*
X-167712Y85117D01*
D02*
G37*
G36*
X-168112Y82961D02*
X-168097Y82789D01*
X-168072Y82637D01*
X-168037Y82506D01*
X-167992Y82394D01*
X-167937Y82303D01*
X-167872Y82232D01*
X-167797Y82182D01*
X-167712Y82152D01*
X-167617Y82141D01*
X-169617D01*
X-169522Y82152D01*
X-169437Y82182D01*
X-169362Y82232D01*
X-169297Y82303D01*
X-169242Y82394D01*
X-169197Y82506D01*
X-169162Y82637D01*
X-169137Y82789D01*
X-169122Y82961D01*
X-169117Y83153D01*
X-168117D01*
X-168112Y82961D01*
D02*
G37*
G36*
X-127814Y80662D02*
X-127824Y80757D01*
X-127854Y80842D01*
X-127905Y80917D01*
X-127976Y80982D01*
X-128067Y81037D01*
X-128178Y81082D01*
X-128310Y81117D01*
X-128461Y81142D01*
X-128633Y81157D01*
X-128826Y81162D01*
Y82162D01*
X-128633Y82167D01*
X-128461Y82182D01*
X-128310Y82207D01*
X-128178Y82242D01*
X-128067Y82287D01*
X-127976Y82342D01*
X-127905Y82407D01*
X-127854Y82482D01*
X-127824Y82567D01*
X-127814Y82662D01*
Y80662D01*
D02*
G37*
G36*
X-155411Y82567D02*
X-155380Y82482D01*
X-155330Y82407D01*
X-155259Y82342D01*
X-155168Y82287D01*
X-155056Y82242D01*
X-154925Y82207D01*
X-154773Y82182D01*
X-154601Y82167D01*
X-154409Y82162D01*
Y81162D01*
X-154601Y81157D01*
X-154773Y81142D01*
X-154925Y81117D01*
X-155056Y81082D01*
X-155168Y81037D01*
X-155259Y80982D01*
X-155330Y80917D01*
X-155380Y80842D01*
X-155411Y80757D01*
X-155421Y80662D01*
Y82662D01*
X-155411Y82567D01*
D02*
G37*
G36*
X-163640Y80662D02*
X-163651Y80757D01*
X-163681Y80842D01*
X-163732Y80917D01*
X-163802Y80982D01*
X-163893Y81037D01*
X-164005Y81082D01*
X-164136Y81117D01*
X-164288Y81142D01*
X-164460Y81157D01*
X-164653Y81162D01*
Y82162D01*
X-164460Y82167D01*
X-164288Y82182D01*
X-164136Y82207D01*
X-164005Y82242D01*
X-163893Y82287D01*
X-163802Y82342D01*
X-163732Y82407D01*
X-163681Y82482D01*
X-163651Y82567D01*
X-163640Y82662D01*
Y80662D01*
D02*
G37*
G36*
X-164873Y81162D02*
X-165065Y81157D01*
X-165236Y81142D01*
X-165388Y81117D01*
X-165519Y81082D01*
X-165630Y81037D01*
X-165721Y80982D01*
X-165793Y80917D01*
X-165844Y80842D01*
X-165875Y80757D01*
X-165885Y80662D01*
X-165873Y82153D01*
X-165863Y82155D01*
X-165833Y82157D01*
X-164873Y82162D01*
Y81162D01*
D02*
G37*
G36*
X-173040Y79577D02*
X-173159Y79451D01*
X-173367Y79195D01*
X-173455Y79064D01*
X-173533Y78931D01*
X-173601Y78797D01*
X-173659Y78661D01*
X-173706Y78522D01*
X-173743Y78383D01*
X-173769Y78241D01*
X-174810Y80108D01*
X-174687Y80063D01*
X-174566Y80033D01*
X-174447Y80019D01*
X-174331Y80020D01*
X-174216Y80036D01*
X-174104Y80069D01*
X-173994Y80117D01*
X-173886Y80180D01*
X-173781Y80259D01*
X-173677Y80353D01*
X-173040Y79577D01*
D02*
G37*
G36*
X-171349Y79000D02*
X-171359Y79095D01*
X-171390Y79180D01*
X-171440Y79255D01*
X-171511Y79320D01*
X-171602Y79375D01*
X-171713Y79420D01*
X-171845Y79455D01*
X-171997Y79480D01*
X-172169Y79495D01*
X-172361Y79500D01*
Y80500D01*
X-172169Y80505D01*
X-171997Y80520D01*
X-171845Y80545D01*
X-171713Y80580D01*
X-171602Y80625D01*
X-171511Y80680D01*
X-171440Y80745D01*
X-171390Y80820D01*
X-171359Y80905D01*
X-171349Y81000D01*
Y79000D01*
D02*
G37*
G36*
X-113053Y78064D02*
X-113149Y78103D01*
X-113254Y78118D01*
X-113370Y78108D01*
X-113496Y78073D01*
X-113633Y78015D01*
X-113779Y77932D01*
X-113936Y77825D01*
X-114103Y77693D01*
X-114280Y77537D01*
X-114467Y77357D01*
X-115568Y77670D01*
X-115352Y77893D01*
X-115018Y78285D01*
X-114899Y78453D01*
X-114812Y78604D01*
X-114757Y78736D01*
X-114735Y78850D01*
X-114745Y78946D01*
X-114787Y79025D01*
X-114861Y79085D01*
X-113053Y78064D01*
D02*
G37*
G36*
X-133718Y47075D02*
X-133821Y46962D01*
X-133913Y46839D01*
X-133994Y46707D01*
X-134063Y46565D01*
X-134122Y46414D01*
X-134170Y46254D01*
X-134206Y46084D01*
X-134232Y45905D01*
X-134247Y45716D01*
X-134250Y45518D01*
X-135983Y47250D01*
X-135784Y47253D01*
X-135595Y47268D01*
X-135416Y47293D01*
X-135246Y47330D01*
X-135086Y47378D01*
X-134935Y47436D01*
X-134793Y47506D01*
X-134661Y47587D01*
X-134538Y47679D01*
X-134425Y47782D01*
X-133718Y47075D01*
D02*
G37*
G36*
X-189275Y69072D02*
X-189263Y68072D01*
X-190263D01*
X-190268Y68264D01*
X-190283Y68435D01*
X-190308Y68586D01*
X-190343Y68718D01*
X-190388Y68829D01*
X-190443Y68920D01*
X-190508Y68991D01*
X-190583Y69042D01*
X-190668Y69073D01*
X-190763Y69084D01*
X-189275Y69072D01*
D02*
G37*
G36*
X-188416Y65704D02*
X-188294Y65612D01*
X-188162Y65530D01*
X-188021Y65459D01*
X-187870Y65398D01*
X-187709Y65348D01*
X-187538Y65308D01*
X-187358Y65278D01*
X-187168Y65259D01*
X-186968Y65250D01*
X-188749Y63567D01*
X-188747Y63764D01*
X-188757Y63951D01*
X-188778Y64130D01*
X-188811Y64299D01*
X-188856Y64459D01*
X-188913Y64609D01*
X-188981Y64751D01*
X-189061Y64883D01*
X-189153Y65006D01*
X-189257Y65120D01*
X-188529Y65806D01*
X-188416Y65704D01*
D02*
G37*
G36*
X-63683Y-16158D02*
X-63882Y-16364D01*
X-64196Y-16733D01*
X-64310Y-16896D01*
X-64396Y-17045D01*
X-64454Y-17179D01*
X-64483Y-17299D01*
X-64484Y-17404D01*
X-64457Y-17495D01*
X-64402Y-17572D01*
X-65804Y-16170D01*
X-65728Y-16225D01*
X-65636Y-16252D01*
X-65531Y-16251D01*
X-65411Y-16221D01*
X-65277Y-16164D01*
X-65128Y-16078D01*
X-64965Y-15963D01*
X-64788Y-15821D01*
X-64390Y-15451D01*
X-63683Y-16158D01*
D02*
G37*
G36*
X-49737Y-16564D02*
X-49715Y-16715D01*
X-49679Y-16866D01*
X-49628Y-17015D01*
X-49563Y-17163D01*
X-49483Y-17311D01*
X-49389Y-17457D01*
X-49280Y-17602D01*
X-49157Y-17745D01*
X-49019Y-17888D01*
X-51469D01*
X-51331Y-17745D01*
X-51208Y-17602D01*
X-51099Y-17457D01*
X-51005Y-17311D01*
X-50925Y-17163D01*
X-50860Y-17015D01*
X-50809Y-16866D01*
X-50773Y-16715D01*
X-50751Y-16564D01*
X-50744Y-16411D01*
X-49744D01*
X-49737Y-16564D01*
D02*
G37*
G36*
X-60196Y-21842D02*
X-60274Y-21786D01*
X-60365Y-21757D01*
X-60472D01*
X-60592Y-21786D01*
X-60726Y-21842D01*
X-60875Y-21927D01*
X-61037Y-22040D01*
X-61214Y-22182D01*
X-61610Y-22549D01*
X-62317Y-21842D01*
X-62119Y-21637D01*
X-61808Y-21270D01*
X-61695Y-21107D01*
X-61610Y-20958D01*
X-61554Y-20824D01*
X-61525Y-20704D01*
Y-20598D01*
X-61554Y-20506D01*
X-61610Y-20428D01*
X-60196Y-21842D01*
D02*
G37*
G36*
X-58847Y-29742D02*
X-58932Y-29772D01*
X-59007Y-29823D01*
X-59072Y-29894D01*
X-59127Y-29985D01*
X-59172Y-30096D01*
X-59207Y-30228D01*
X-59232Y-30380D01*
X-59247Y-30552D01*
X-59252Y-30744D01*
X-60252D01*
X-60257Y-30552D01*
X-60272Y-30380D01*
X-60297Y-30228D01*
X-60332Y-30096D01*
X-60377Y-29985D01*
X-60432Y-29894D01*
X-60497Y-29823D01*
X-60572Y-29772D01*
X-60657Y-29742D01*
X-60752Y-29732D01*
X-58752D01*
X-58847Y-29742D01*
D02*
G37*
G36*
X-27Y-48681D02*
X-403Y-48684D01*
X-1080Y-48734D01*
X-1382Y-48780D01*
X-1658Y-48840D01*
X-1909Y-48915D01*
X-2135Y-49003D01*
X-2337Y-49107D01*
X-2513Y-49224D01*
X-2664Y-49356D01*
X-3372Y-48649D01*
X-3240Y-48497D01*
X-3122Y-48321D01*
X-3019Y-48120D01*
X-2930Y-47894D01*
X-2856Y-47642D01*
X-2795Y-47366D01*
X-2749Y-47065D01*
X-2717Y-46738D01*
X-2697Y-46011D01*
X-27Y-48681D01*
D02*
G37*
G36*
X-76911Y-29676D02*
X-77109Y-29680D01*
X-77298Y-29694D01*
X-77478Y-29720D01*
X-77648Y-29756D01*
X-77808Y-29804D01*
X-77959Y-29863D01*
X-78101Y-29932D01*
X-78233Y-30013D01*
X-78355Y-30105D01*
X-78468Y-30208D01*
X-79176Y-29501D01*
X-79073Y-29388D01*
X-78981Y-29265D01*
X-78900Y-29133D01*
X-78830Y-28991D01*
X-78772Y-28841D01*
X-78724Y-28680D01*
X-78687Y-28510D01*
X-78662Y-28331D01*
X-78647Y-28142D01*
X-78644Y-27944D01*
X-76911Y-29676D01*
D02*
G37*
G36*
X-88889Y-33306D02*
X-88874Y-33477D01*
X-88849Y-33628D01*
X-88814Y-33759D01*
X-88770Y-33870D01*
X-88715Y-33961D01*
X-88651Y-34032D01*
X-88576Y-34082D01*
X-88492Y-34112D01*
X-88397Y-34122D01*
X-90390D01*
X-90296Y-34112D01*
X-90211Y-34082D01*
X-90137Y-34032D01*
X-90072Y-33961D01*
X-90018Y-33870D01*
X-89973Y-33759D01*
X-89938Y-33628D01*
X-89913Y-33477D01*
X-89899Y-33306D01*
X-89894Y-33114D01*
X-88894D01*
X-88889Y-33306D01*
D02*
G37*
G36*
X-78769Y-35095D02*
X-78738Y-35180D01*
X-78688Y-35255D01*
X-78617Y-35320D01*
X-78526Y-35375D01*
X-78415Y-35420D01*
X-78283Y-35455D01*
X-78131Y-35480D01*
X-77959Y-35495D01*
X-77767Y-35500D01*
Y-36500D01*
X-77959Y-36505D01*
X-78131Y-36520D01*
X-78283Y-36545D01*
X-78415Y-36580D01*
X-78526Y-36625D01*
X-78617Y-36680D01*
X-78688Y-36745D01*
X-78738Y-36820D01*
X-78769Y-36905D01*
X-78779Y-37000D01*
Y-35000D01*
X-78769Y-35095D01*
D02*
G37*
G36*
X-71223Y-37220D02*
X-71367Y-37084D01*
X-71512Y-36961D01*
X-71658Y-36853D01*
X-71805Y-36759D01*
X-71953Y-36680D01*
X-72102Y-36615D01*
X-72252Y-36565D01*
X-72403Y-36529D01*
X-72554Y-36507D01*
X-72707Y-36500D01*
X-72716Y-35500D01*
X-72563Y-35493D01*
X-72411Y-35471D01*
X-72261Y-35434D01*
X-72112Y-35383D01*
X-71964Y-35318D01*
X-71817Y-35237D01*
X-71672Y-35143D01*
X-71529Y-35033D01*
X-71386Y-34909D01*
X-71245Y-34771D01*
X-71223Y-37220D01*
D02*
G37*
G36*
X350Y17326D02*
X-46Y17269D01*
X-1064Y17054D01*
X-1346Y16968D01*
X-1599Y16875D01*
X-1824Y16775D01*
X-2021Y16668D01*
X-2189Y16554D01*
X-2328Y16433D01*
X-3136Y17038D01*
X-2998Y17198D01*
X-2880Y17379D01*
X-2782Y17581D01*
X-2704Y17805D01*
X-2647Y18050D01*
X-2610Y18317D01*
X-2594Y18605D01*
X-2598Y18914D01*
X-2622Y19245D01*
X-2667Y19597D01*
X350Y17326D01*
D02*
G37*
G36*
X-45006Y-33989D02*
X-44991Y-34159D01*
X-44966Y-34309D01*
X-44931Y-34439D01*
X-44886Y-34549D01*
X-44831Y-34639D01*
X-44766Y-34709D01*
X-44691Y-34759D01*
X-44606Y-34789D01*
X-44511Y-34799D01*
X-46511D01*
X-46416Y-34789D01*
X-46331Y-34759D01*
X-46256Y-34709D01*
X-46191Y-34639D01*
X-46136Y-34549D01*
X-46091Y-34439D01*
X-46056Y-34309D01*
X-46031Y-34159D01*
X-46016Y-33989D01*
X-46011Y-33799D01*
X-45011D01*
X-45006Y-33989D01*
D02*
G37*
G36*
X-38439Y-38799D02*
X-38516Y-38743D01*
X-38607Y-38716D01*
X-38712Y-38718D01*
X-38832Y-38747D01*
X-38966Y-38805D01*
X-39115Y-38891D01*
X-39278Y-39005D01*
X-39455Y-39148D01*
X-39853Y-39518D01*
X-40560Y-38811D01*
X-40361Y-38605D01*
X-40048Y-38236D01*
X-39933Y-38073D01*
X-39847Y-37924D01*
X-39790Y-37790D01*
X-39760Y-37670D01*
X-39759Y-37564D01*
X-39786Y-37473D01*
X-39841Y-37397D01*
X-38439Y-38799D01*
D02*
G37*
G36*
X-84243Y-44350D02*
X-84253Y-44255D01*
X-84283Y-44170D01*
X-84334Y-44095D01*
X-84405Y-44030D01*
X-84496Y-43975D01*
X-84607Y-43930D01*
X-84739Y-43895D01*
X-84891Y-43870D01*
X-85062Y-43855D01*
X-85255Y-43850D01*
Y-42850D01*
X-85062Y-42845D01*
X-84891Y-42830D01*
X-84739Y-42805D01*
X-84607Y-42770D01*
X-84496Y-42725D01*
X-84405Y-42670D01*
X-84334Y-42605D01*
X-84283Y-42530D01*
X-84253Y-42445D01*
X-84243Y-42350D01*
Y-44350D01*
D02*
G37*
G36*
X-86553Y-42445D02*
X-86523Y-42530D01*
X-86472Y-42605D01*
X-86401Y-42670D01*
X-86310Y-42725D01*
X-86199Y-42770D01*
X-86067Y-42805D01*
X-85916Y-42830D01*
X-85744Y-42845D01*
X-85551Y-42850D01*
Y-43850D01*
X-85744Y-43855D01*
X-85916Y-43870D01*
X-86067Y-43895D01*
X-86199Y-43930D01*
X-86310Y-43975D01*
X-86401Y-44030D01*
X-86472Y-44095D01*
X-86523Y-44170D01*
X-86553Y-44255D01*
X-86563Y-44350D01*
Y-42350D01*
X-86553Y-42445D01*
D02*
G37*
G36*
X-35989Y-45896D02*
X-36074Y-45926D01*
X-36149Y-45976D01*
X-36214Y-46047D01*
X-36269Y-46139D01*
X-36314Y-46250D01*
X-36349Y-46381D01*
X-36374Y-46533D01*
X-36389Y-46705D01*
X-36394Y-46897D01*
X-37394D01*
X-37399Y-46705D01*
X-37414Y-46533D01*
X-37439Y-46381D01*
X-37474Y-46250D01*
X-37519Y-46139D01*
X-37574Y-46047D01*
X-37639Y-45976D01*
X-37714Y-45926D01*
X-37799Y-45896D01*
X-37894Y-45885D01*
X-35894D01*
X-35989Y-45896D01*
D02*
G37*
G36*
X-36386Y-49852D02*
X-36365Y-50003D01*
X-36328Y-50154D01*
X-36278Y-50303D01*
X-36212Y-50452D01*
X-36133Y-50599D01*
X-36038Y-50745D01*
X-35930Y-50890D01*
X-35806Y-51034D01*
X-35669Y-51176D01*
X-38119D01*
X-37981Y-51034D01*
X-37858Y-50890D01*
X-37749Y-50745D01*
X-37655Y-50599D01*
X-37575Y-50452D01*
X-37510Y-50303D01*
X-37459Y-50154D01*
X-37423Y-50003D01*
X-37401Y-49852D01*
X-37394Y-49699D01*
X-36394D01*
X-36386Y-49852D01*
D02*
G37*
G36*
X-65245Y-55242D02*
X-65330Y-55272D01*
X-65405Y-55323D01*
X-65470Y-55394D01*
X-65525Y-55485D01*
X-65570Y-55596D01*
X-65605Y-55728D01*
X-65630Y-55880D01*
X-65645Y-56052D01*
X-65650Y-56244D01*
X-66650D01*
X-66655Y-56052D01*
X-66670Y-55880D01*
X-66695Y-55728D01*
X-66730Y-55596D01*
X-66775Y-55485D01*
X-66830Y-55394D01*
X-66895Y-55323D01*
X-66970Y-55272D01*
X-67055Y-55242D01*
X-67150Y-55232D01*
X-65150D01*
X-65245Y-55242D01*
D02*
G37*
G36*
X-65645Y-57348D02*
X-65630Y-57518D01*
X-65605Y-57668D01*
X-65570Y-57798D01*
X-65525Y-57908D01*
X-65470Y-57998D01*
X-65405Y-58068D01*
X-65330Y-58118D01*
X-65245Y-58148D01*
X-65150Y-58158D01*
X-67150D01*
X-67055Y-58148D01*
X-66970Y-58118D01*
X-66895Y-58068D01*
X-66830Y-57998D01*
X-66775Y-57908D01*
X-66730Y-57798D01*
X-66695Y-57668D01*
X-66670Y-57518D01*
X-66655Y-57348D01*
X-66650Y-57158D01*
X-65650D01*
X-65645Y-57348D01*
D02*
G37*
G36*
X-57589Y-51595D02*
X-57559Y-51680D01*
X-57509Y-51755D01*
X-57439Y-51820D01*
X-57349Y-51875D01*
X-57239Y-51920D01*
X-57109Y-51955D01*
X-56959Y-51980D01*
X-56789Y-51995D01*
X-56599Y-52000D01*
Y-53000D01*
X-56789Y-53005D01*
X-56959Y-53020D01*
X-57109Y-53045D01*
X-57239Y-53080D01*
X-57349Y-53125D01*
X-57439Y-53180D01*
X-57509Y-53245D01*
X-57559Y-53320D01*
X-57589Y-53405D01*
X-57599Y-53500D01*
Y-51500D01*
X-57589Y-51595D01*
D02*
G37*
G36*
X-27Y-58681D02*
X-403Y-58684D01*
X-1080Y-58734D01*
X-1382Y-58780D01*
X-1658Y-58840D01*
X-1909Y-58915D01*
X-2135Y-59004D01*
X-2337Y-59107D01*
X-2513Y-59224D01*
X-2664Y-59356D01*
X-3372Y-58649D01*
X-3240Y-58497D01*
X-3122Y-58321D01*
X-3019Y-58120D01*
X-2930Y-57894D01*
X-2856Y-57642D01*
X-2795Y-57366D01*
X-2749Y-57065D01*
X-2717Y-56739D01*
X-2697Y-56011D01*
X-27Y-58681D01*
D02*
G37*
G36*
X-51250Y-65725D02*
X-51392Y-65587D01*
X-51536Y-65464D01*
X-51681Y-65355D01*
X-51827Y-65261D01*
X-51974Y-65181D01*
X-52123Y-65116D01*
X-52272Y-65065D01*
X-52423Y-65029D01*
X-52574Y-65007D01*
X-52727Y-65000D01*
Y-64000D01*
X-52574Y-63993D01*
X-52423Y-63971D01*
X-52272Y-63935D01*
X-52123Y-63884D01*
X-51974Y-63819D01*
X-51827Y-63739D01*
X-51681Y-63645D01*
X-51536Y-63536D01*
X-51392Y-63413D01*
X-51250Y-63275D01*
Y-65725D01*
D02*
G37*
G36*
X-74500Y-101000D02*
X-95000D01*
Y-58500D01*
X-74500D01*
Y-101000D01*
D02*
G37*
D14*
X-119500Y17815D02*
Y17844D01*
X-128795Y19757D02*
X-121413D01*
X-119500Y17844D01*
X-110500Y11555D02*
X-109445Y10500D01*
Y3500D02*
Y10500D01*
X-90449Y35000D02*
X-89449Y34000D01*
X-90398Y35000D02*
Y37602D01*
X-89449Y34000D02*
X-84500D01*
X-95093Y23500D02*
X-90051D01*
X-88551Y22000D01*
X-139449Y-17697D02*
Y-17500D01*
X-140500Y-24399D02*
Y-24000D01*
X-136000Y45500D02*
X-120022Y61478D01*
Y72510D01*
X-148719Y-28281D02*
X-146000Y-31000D01*
Y-54500D02*
Y-31000D01*
X-151667Y-28281D02*
X-148719D01*
X-187000Y63500D02*
Y63570D01*
X-189763Y66333D02*
X-187000Y63570D01*
X-84031Y81662D02*
X-82031D01*
X-112117Y86320D02*
X-100320D01*
X-95662Y81662D02*
X-84031D01*
X-100320Y86320D02*
X-95662Y81662D01*
X-82031D02*
X-48204D01*
X-59752Y-40248D02*
X-41500Y-58500D01*
X-12516D01*
X0Y-45984D01*
X-8516Y-64500D02*
X0Y-55984D01*
X-42500Y-64500D02*
X-8516D01*
X-54500Y-52500D02*
X-42500Y-64500D01*
X-59752Y-40248D02*
Y-27000D01*
Y-52500D02*
X-54500D01*
X-70000Y-36000D02*
X-69984Y-35984D01*
X-80558Y-36000D02*
X-70000D01*
X-81511Y-36953D02*
X-80558Y-36000D01*
X-66150Y-52795D02*
X-65854Y-52500D01*
X-66150Y-61000D02*
Y-52795D01*
X-62705Y-22937D02*
X-59457Y-19689D01*
X-63000Y-22937D02*
X-62705D01*
X-59457Y-19689D02*
Y-19000D01*
X-63894Y-25039D02*
Y-23831D01*
X-63000Y-22937D01*
X-65854Y-27000D02*
X-63894Y-25039D01*
X-52500Y-12500D02*
X-50244Y-14756D01*
Y-19138D02*
Y-14756D01*
X-66543Y-19000D02*
Y-18311D01*
X-60732Y-12500D01*
X-52500D01*
X-55563Y-64500D02*
X-50000D01*
X-59063Y-61689D02*
Y-61000D01*
Y-61689D02*
X-57398Y-63354D01*
X-56709D01*
X-55563Y-64500D01*
X-45511Y-26043D02*
X0Y19468D01*
X-45511Y-36953D02*
Y-26043D01*
X-42137Y-41094D02*
X-37700Y-36658D01*
X-37011D01*
X-43550Y-41094D02*
X-42137D01*
X-45511Y-43055D02*
X-43550Y-41094D01*
X-37011Y-43744D02*
X-36894Y-43861D01*
Y-52426D02*
Y-43861D01*
X0Y19468D02*
Y20000D01*
X-81806Y-43350D02*
X-81511Y-43055D01*
X-89394Y-43350D02*
X-81806D01*
X-89394Y-36264D02*
X-88894Y-35764D01*
X-89394Y-36264D02*
Y-33114D01*
X-86206Y-29926D02*
X-78894D01*
X-76894Y-27926D01*
X-89394Y-33114D02*
X-86206Y-29926D01*
X-192117Y71225D02*
X-191428D01*
X-189763Y66333D02*
Y69560D01*
X-191428Y71225D02*
X-189763Y69560D01*
X-140500Y-24000D02*
X-138239Y-26261D01*
X-134517D01*
X-145000Y-24000D02*
X-138799Y-30201D01*
X-145000Y-24000D02*
Y-18051D01*
X-151717Y-24291D02*
X-148209D01*
X-143000Y-48500D02*
Y-29500D01*
X-148209Y-24291D02*
X-143000Y-29500D01*
X-156500Y-36000D02*
X-153000Y-39500D01*
X-152000D01*
X-156500Y-34754D02*
X-153917Y-32171D01*
X-156500Y-36000D02*
Y-34754D01*
X-153917Y-32171D02*
X-151717D01*
X-125610Y-17500D02*
X-114500D01*
X-114000Y-18000D01*
X-71949Y11500D02*
X-69500D01*
X-82449Y21803D02*
X-80488Y19842D01*
X-80291D01*
X-82449Y21803D02*
Y22000D01*
X-80291Y19842D02*
X-71949Y11500D01*
X-63000Y-2500D02*
Y24500D01*
X-69500Y31000D02*
X-63000Y24500D01*
X-70500Y-10000D02*
X-63000Y-2500D01*
X-112117Y99871D02*
X-111988Y100000D01*
X-103500D01*
X-168617Y94158D02*
Y100117D01*
X-95141Y23452D02*
X-95093Y23500D01*
X-94531Y10853D02*
X-90156Y6478D01*
X-95141Y10853D02*
X-94531D01*
X-90156Y6478D02*
X-88478D01*
X-88000Y6000D01*
X-88251Y13751D02*
X-88000Y13500D01*
X-95141Y14003D02*
X-94889Y13751D01*
X-88251D01*
X-87000Y58000D02*
X-38000D01*
X-97500Y47500D02*
X-87000Y58000D01*
X-104193Y40807D02*
X-97500Y47500D01*
X-146000Y-17051D02*
Y-2000D01*
Y-17051D02*
X-145000Y-18051D01*
X-38000Y58000D02*
X-6000Y90000D01*
X-73500Y31000D02*
X-69500D01*
X-77899Y26601D02*
X-73500Y31000D01*
X-76500Y34000D02*
X-73500Y31000D01*
X-84500Y34000D02*
X-76500D01*
X-73500Y31000D02*
Y31000D01*
X-95141Y26601D02*
X-77899D01*
X-83000Y-10000D02*
X-70500D01*
X-105000Y-32000D02*
X-83000Y-10000D01*
X-125500Y-32000D02*
X-105000D01*
X-104000Y34949D02*
X-103949Y35000D01*
X-104000Y31500D02*
Y34949D01*
Y31500D02*
X-102500Y30000D01*
X-100500D01*
X-99818Y27341D02*
X-99117Y26641D01*
X-99818Y27341D02*
Y29318D01*
X-100500Y30000D02*
X-99818Y29318D01*
X-104193Y35244D02*
X-103949Y35000D01*
X-104193Y35244D02*
Y40807D01*
X-84500Y34000D02*
X-72500Y46000D01*
X-120022Y72510D02*
X-112314Y80217D01*
X-112117D01*
X-138799Y-30201D02*
X-134517D01*
X-6000Y90000D02*
X0D01*
X-72500Y46000D02*
X-39000D01*
X-5000Y80000D02*
X0D01*
X-39000Y46000D02*
X-5000Y80000D01*
X-90398Y37602D02*
X-88000Y40000D01*
Y47000D01*
X-87500Y47500D01*
X-151767Y-26311D02*
X-151717Y-26261D01*
X-159000Y-26500D02*
X-158811Y-26311D01*
X-163500Y-51854D02*
Y-36500D01*
X-157251Y-30251D02*
X-151767D01*
X-163500Y-36500D02*
X-157251Y-30251D01*
X-143000Y-48500D02*
X-124500Y-67000D01*
X-100299D01*
X-142055D02*
X-142000Y-66945D01*
Y-58500D01*
X-146000Y-54500D02*
X-142000Y-58500D01*
X-149610Y-68610D02*
Y-65744D01*
X-163500Y-51854D02*
X-149610Y-65744D01*
X-151767Y-30251D02*
X-151717Y-30201D01*
X-134517Y-32171D02*
X-125671D01*
X-125500Y-32000D01*
X-175500Y78500D02*
X-174823D01*
X-173324Y80000D02*
X-168617D01*
X-174823Y78500D02*
X-173324Y80000D01*
X-112117Y86320D02*
Y93769D01*
X-168617Y80000D02*
X-166955Y81662D01*
X-159531D01*
X-168617Y80000D02*
Y87269D01*
X-41373Y91513D02*
X-39708Y93178D01*
X-39117D01*
X-41373Y87115D02*
Y91513D01*
X-46826Y81662D02*
X-41373Y87115D01*
X-48204Y81662D02*
X-46826D01*
X-159531Y81662D02*
X-123704D01*
X-192117Y78312D02*
X-183913D01*
X-183617Y78017D01*
D15*
X-100299Y-67000D02*
D03*
X-92701D02*
D03*
D16*
X-48204Y81662D02*
D03*
Y99379D02*
D03*
X-84031D02*
D03*
Y81662D02*
D03*
X-159531Y99379D02*
D03*
Y81662D02*
D03*
X-123704D02*
D03*
Y99379D02*
D03*
D17*
X-168617Y73898D02*
D03*
Y80000D02*
D03*
X-81511Y-36953D02*
D03*
Y-43055D02*
D03*
X-45511Y-36953D02*
D03*
Y-43055D02*
D03*
X-183617Y71914D02*
D03*
Y78017D02*
D03*
X-112117Y80217D02*
D03*
Y86320D02*
D03*
Y93769D02*
D03*
Y99871D02*
D03*
X-125500Y-32000D02*
D03*
Y-25898D02*
D03*
X-39117Y100068D02*
D03*
Y93178D02*
D03*
X-168617Y87269D02*
D03*
Y94158D02*
D03*
X-110500Y18445D02*
D03*
Y11555D02*
D03*
D18*
X-59752Y-52500D02*
D03*
X-65854D02*
D03*
X-59752Y-27000D02*
D03*
X-65854D02*
D03*
X-90449Y35000D02*
D03*
X-96551D02*
D03*
X-103949D02*
D03*
X-110051D02*
D03*
X-145551Y-17500D02*
D03*
X-139449D02*
D03*
X-82449Y22000D02*
D03*
X-88551D02*
D03*
X-142055Y-67000D02*
D03*
X-148945D02*
D03*
X-132500Y-17500D02*
D03*
X-125610D02*
D03*
X-102555Y3500D02*
D03*
X-109445D02*
D03*
D19*
X-59063Y-61000D02*
D03*
X-66150D02*
D03*
X-66543Y-19000D02*
D03*
X-59457D02*
D03*
D20*
X-89394Y-43350D02*
D03*
Y-36264D02*
D03*
X-37011Y-36658D02*
D03*
Y-43744D02*
D03*
X-192117Y71225D02*
D03*
Y78312D02*
D03*
D21*
X-99117Y10814D02*
D03*
Y26641D02*
D03*
D22*
X-95141Y10853D02*
D03*
Y14003D02*
D03*
Y17153D02*
D03*
Y20302D02*
D03*
Y23452D02*
D03*
Y26601D02*
D03*
X-103094Y10853D02*
D03*
Y14003D02*
D03*
Y17153D02*
D03*
Y20302D02*
D03*
Y23452D02*
D03*
D23*
Y26601D02*
D03*
D24*
X-119500Y7185D02*
D03*
Y17815D02*
D03*
D25*
X-134517Y-24291D02*
D03*
Y-26261D02*
D03*
Y-28231D02*
D03*
Y-30201D02*
D03*
Y-32171D02*
D03*
X-151717D02*
D03*
Y-30201D02*
D03*
Y-28231D02*
D03*
Y-26261D02*
D03*
Y-24291D02*
D03*
D46*
X-102555Y3500D02*
Y10754D01*
X-102654Y10853D02*
X-102555Y10754D01*
X-103094Y10853D02*
X-102654D01*
X-102555Y2909D02*
X-101390Y1744D01*
X-100799D02*
X-99555Y500D01*
X-102555Y2909D02*
Y3500D01*
X-101390Y1744D02*
X-100799D01*
X-109565Y26401D02*
X-109463Y26502D01*
X-110500Y25664D02*
X-109664Y26500D01*
X-110500Y18445D02*
Y25664D01*
X-110051Y26887D02*
X-109664Y26500D01*
X-110051Y26887D02*
Y35000D01*
X-110295Y35244D02*
X-110051Y35000D01*
X-120921Y9551D02*
X-119500Y8130D01*
X-122866Y10551D02*
X-121866Y9551D01*
X-152551Y10551D02*
X-122866D01*
X-119500Y7185D02*
Y8130D01*
X-121866Y9551D02*
X-120921D01*
X-107500Y47500D02*
Y48418D01*
Y46582D02*
Y47500D01*
X-132500Y26500D02*
X-109664D01*
X-118531Y8185D02*
Y9161D01*
X-118500Y7240D02*
Y8185D01*
X-109664Y26500D02*
X-109565Y26401D01*
X-109463Y26502D02*
X-103193D01*
X-103094Y26601D01*
X-134980Y24020D02*
X-132500Y26500D01*
X-166020Y24020D02*
X-134980D01*
X-168617Y62117D02*
X-160500Y54000D01*
X-168617Y62117D02*
Y73898D01*
X-47000Y106500D02*
X-32000D01*
X-28500Y103000D01*
Y80000D02*
Y103000D01*
X-41500Y67000D02*
X-28500Y80000D01*
X-103500Y67000D02*
X-41500D01*
X-99555Y500D02*
X-77000D01*
X-93919Y30000D02*
X-83000D01*
X-95091Y31172D02*
Y33539D01*
Y31172D02*
X-93919Y30000D01*
X-96551Y35000D02*
X-95091Y33539D01*
X-110295Y35244D02*
Y43786D01*
X-190174Y24020D02*
X-186980D01*
X-181500Y29500D02*
Y63500D01*
X-186980Y24020D02*
X-181500Y29500D01*
X-186980Y24020D02*
X-166020D01*
X-181500Y63500D02*
Y69797D01*
X-139449Y-17500D02*
X-132500D01*
X-109000Y61500D02*
X-103500Y67000D01*
X-109000Y49918D02*
Y61500D01*
Y49918D02*
X-107500Y48418D01*
X-48204Y99379D02*
Y105296D01*
X-47000Y106500D01*
X-166020Y24020D02*
X-152551Y10551D01*
X-110295Y43786D02*
X-107500Y46582D01*
X-129266Y-22328D02*
X-125697Y-25898D01*
X-125500D01*
X-132000Y-22328D02*
X-129266D01*
X-132000D02*
Y-18000D01*
X-132500Y-17500D02*
X-132000Y-18000D01*
X-132500Y-17500D02*
Y-6760D01*
X-183420Y71914D02*
X-175586D01*
X-173602Y73898D01*
X-168617D01*
X-183617Y71914D02*
X-183420D01*
X-181960Y70454D01*
Y70257D02*
Y70454D01*
X-47859Y99723D02*
X-39462D01*
X-48204Y99379D02*
X-47859Y99723D01*
X-39462D02*
X-39117Y100068D01*
X-84031Y99379D02*
X-48204D01*
D47*
X-158811Y-26311D02*
X-151767D01*
D48*
X-155000Y-74000D02*
X-149610Y-68610D01*
X-155000Y-86534D02*
X-153302Y-88231D01*
X-155000Y-86534D02*
Y-74000D01*
X-142055Y-67590D02*
Y-67000D01*
Y-67590D02*
X-133617Y-76028D01*
Y-88231D02*
Y-76028D01*
X-106500Y-73949D02*
X-100299Y-67748D01*
X-106500Y-88231D02*
Y-73949D01*
X-100299Y-67748D02*
Y-67000D01*
X-86815Y-88231D02*
Y-73634D01*
X-92701Y-67748D02*
Y-67000D01*
Y-67748D02*
X-86815Y-73634D01*
D49*
X0Y0D02*
D03*
Y10000D02*
D03*
Y20000D02*
D03*
Y30000D02*
D03*
Y40000D02*
D03*
Y50000D02*
D03*
Y60000D02*
D03*
Y70000D02*
D03*
Y80000D02*
D03*
Y-25984D02*
D03*
Y-35984D02*
D03*
Y-45984D02*
D03*
Y-55984D02*
D03*
Y-65984D02*
D03*
Y-75984D02*
D03*
Y-85984D02*
D03*
X-190174Y44020D02*
D03*
Y34020D02*
D03*
Y24020D02*
D03*
Y14020D02*
D03*
Y4020D02*
D03*
Y-5980D02*
D03*
Y-15980D02*
D03*
X-117500Y47500D02*
D03*
X-107500D02*
D03*
X-97500D02*
D03*
D50*
X0Y90000D02*
D03*
Y-15984D02*
D03*
X-190174Y54020D02*
D03*
D51*
Y-88815D02*
D03*
Y-78815D02*
D03*
Y-68815D02*
D03*
Y-58815D02*
D03*
Y-48815D02*
D03*
D52*
Y-38815D02*
D03*
D53*
X-87500Y47500D02*
D03*
D54*
X-106500Y-88231D02*
D03*
X-153302D02*
D03*
D55*
X-86815D02*
D03*
X-133617D02*
D03*
D56*
X-60023Y-96043D02*
D03*
X0Y104000D02*
D03*
X-190174Y109020D02*
D03*
D57*
X-128795Y19757D02*
D03*
X-136000Y45500D02*
D03*
X-187000Y63500D02*
D03*
X-69984Y-35984D02*
D03*
X-50000Y-64500D02*
D03*
X-36894Y-52426D02*
D03*
X-50244Y-19138D02*
D03*
X-76894Y-27926D02*
D03*
X-140500Y-24000D02*
D03*
X-152000Y-39500D02*
D03*
X-114000Y-18000D02*
D03*
X-69500Y11500D02*
D03*
X-103500Y100000D02*
D03*
X-168617Y100117D02*
D03*
X-88000Y6000D02*
D03*
Y13500D02*
D03*
X-146000Y-2000D02*
D03*
X-77000Y500D02*
D03*
X-83000Y30000D02*
D03*
X-159000Y-26500D02*
D03*
X-175500Y78500D02*
D03*
X-181500Y63500D02*
D03*
D58*
X-160500Y31500D02*
D03*
Y39000D02*
D03*
Y46500D02*
D03*
Y54000D02*
D03*
Y61500D02*
D03*
M02*
