M48
;Layer_Color=9474304
;FILE_FORMAT=2:3
INCH,LZ
;TYPE=PLATED
T01F00S00C0.017
T02F00S00C0.025
T03F00S00C0.040
T04F00S00C0.047
;TYPE=NON_PLATED
T05F00S00C0.126
%
T01
X-01405Y-0024
X-0114Y-0018
X-00769Y-00279
X-007Y-0036
X-00502Y-00191
X-005Y-00645
X-00369Y-00524
X-0077Y00005
X-0088Y0006
Y00135
X-00695Y00115
X-0083Y003
X-01288Y00198
X-0136Y00455
X-0146Y-0002
X-0159Y-00265
X-0152Y-00395
X-01815Y00635
X-0187
X-01755Y00785
X-01686Y01001
X-01035Y01
T02
X-01605Y00315
Y0039
Y00465
Y0054
Y00615
T03
X0Y-0086
Y-0076
Y-0066
Y-0056
Y-0046
Y-0036
Y-0026
Y-0016
Y0
Y001
Y002
Y003
Y004
Y005
Y006
X-00875Y00475
X-00975
X-01075
X-01175
X-01902Y0044
Y0054
Y0034
Y0024
Y0014
Y0004
Y-0006
Y-0016
Y-00388
Y-00488
Y-00588
Y-00688
Y-00788
Y-00888
X0Y007
Y008
Y009
T04
X-01336Y-00882
X-01065
X-00868
X-01533
T05
X-006Y-0096
X-01902Y0109
X0Y0104
M30
